<svg width="55" height="54" viewBox="0 0 55 54" fill="none" xmlns="http://www.w3.org/2000/svg">
<circle opacity="0.8" cx="19.5" cy="19.5" r="19.5" fill="#8959FF"/>
<g clip-path="url(#clip0_4301_4662)">
<path d="M30.8009 45.9701C30.6966 46.1998 30.5257 46.3929 30.3104 46.5244C30.0951 46.6559 29.8453 46.7197 29.5933 46.7077C29.3414 46.6956 29.0988 46.6082 28.897 46.4568C28.6953 46.3054 28.5436 46.0968 28.4616 45.8582L20.2277 20.6428C20.1603 20.4238 20.1538 20.1906 20.209 19.9683C20.2642 19.7459 20.379 19.5428 20.541 19.3808C20.703 19.2188 20.9061 19.1041 21.1284 19.0488C21.3508 18.9936 21.584 19.0001 21.803 19.0675L47.0231 27.2968C47.2617 27.3787 47.4702 27.5304 47.6217 27.7321C47.7731 27.9339 47.8605 28.1765 47.8726 28.4285C47.8846 28.6805 47.8208 28.9303 47.6893 29.1456C47.5577 29.3608 47.3647 29.5317 47.135 29.636L40.0825 32.7031C39.8941 32.7852 39.7287 32.9121 39.6006 33.0728C39.4726 33.2335 39.3857 33.423 39.3477 33.6249C39.3096 33.8268 39.3215 34.035 39.3823 34.2313C39.4431 34.4275 39.551 34.6059 39.6965 34.751L47.5209 42.5754C47.7571 42.8117 47.8897 43.1321 47.8897 43.4662C47.8897 43.8003 47.7571 44.1207 47.5209 44.357L45.525 46.3545C45.2887 46.5906 44.9683 46.7233 44.6342 46.7233C44.3001 46.7233 43.9797 46.5906 43.7434 46.3545L35.9159 38.5316C35.7707 38.3861 35.5922 38.2784 35.3958 38.2177C35.1995 38.157 34.9913 38.1452 34.7894 38.1834C34.5874 38.2216 34.3979 38.3087 34.2373 38.4369C34.0767 38.5651 33.9499 38.7307 33.868 38.9192L30.8009 45.9701Z" stroke="white" stroke-width="2.52044" stroke-linecap="round" stroke-linejoin="round"/>
<path d="M28.9844 15.2148V16.4751" stroke="white" stroke-width="2.52044" stroke-linecap="round" stroke-linejoin="round"/>
<path d="M16.3789 27.8184H17.6391" stroke="white" stroke-width="2.52044" stroke-linecap="round" stroke-linejoin="round"/>
<path d="M34.0234 17.7353L35.2837 15.2148" stroke="white" stroke-width="2.52044" stroke-linecap="round" stroke-linejoin="round"/>
<path d="M18.8993 32.8594L16.3789 34.1196" stroke="white" stroke-width="2.52044" stroke-linecap="round" stroke-linejoin="round"/>
</g>
<defs>
<clipPath id="clip0_4301_4662">
<rect width="40.3271" height="40.3271" fill="white" transform="translate(13.8594 12.6953)"/>
</clipPath>
</defs>
</svg>
