<svg width="125" height="45" viewBox="0 0 125 45" fill="none" xmlns="http://www.w3.org/2000/svg">
<g clip-path="url(#clip0_4337_159)">
<mask id="mask0_4337_159" style="mask-type:luminance" maskUnits="userSpaceOnUse" x="0" y="0" width="125" height="45">
<path d="M124.641 0H0.320312V44.7555H124.641V0Z" fill="white"/>
</mask>
<g mask="url(#mask0_4337_159)">
<path d="M51.2812 15.9453H53.9615V30.3771H51.2812V15.9453Z" fill="black"/>
<path d="M62.833 19.2441C64.221 19.2441 65.3343 19.6496 66.1729 20.4606C67.0114 21.2715 67.4304 22.4741 67.4304 24.0685V30.3772H64.8532V24.3985C64.8532 23.4362 64.6263 22.7147 64.1732 22.2336C63.7194 21.7388 63.0736 21.4914 62.2352 21.4914C61.2866 21.4914 60.5375 21.78 59.9879 22.3573C59.438 22.9209 59.163 23.7388 59.163 24.8107V30.3772H56.5859V19.3678H59.0393V20.7904C59.4655 20.2818 60.0016 19.897 60.6476 19.6359C61.2937 19.3747 62.0221 19.2441 62.833 19.2441Z" fill="black"/>
<path d="M79.7739 19.3672L75.0522 30.3766H72.393L67.6719 19.3672H70.3516L73.7742 27.5315L77.2999 19.3672H79.7739Z" fill="black"/>
<path d="M90.4012 24.9344C90.4012 25.1132 90.3875 25.3673 90.3601 25.6973H81.7211C81.8728 26.5082 82.2644 27.1542 82.8965 27.6353C83.5424 28.1027 84.3399 28.3363 85.2878 28.3363C86.4975 28.3363 87.4939 27.9376 88.2778 27.1404L89.659 28.728C89.1642 29.319 88.5388 29.7657 87.783 30.068C87.0265 30.3705 86.1749 30.5216 85.2263 30.5216C84.0167 30.5216 82.9519 30.281 82.0306 29.8002C81.11 29.319 80.3952 28.6523 79.8867 27.8002C79.3913 26.9343 79.1445 25.9583 79.1445 24.8726C79.1445 23.8004 79.3851 22.8384 79.8662 21.9862C80.3604 21.1203 81.041 20.4468 81.9069 19.9658C82.7728 19.4847 83.7488 19.2441 84.8347 19.2441C85.9064 19.2441 86.8618 19.4847 87.7003 19.9658C88.5525 20.4331 89.212 21.0997 89.6795 21.9656C90.1606 22.8177 90.4012 23.8075 90.4012 24.9344ZM84.8347 21.3059C84.0098 21.3059 83.3087 21.5532 82.7318 22.0481C82.168 22.5291 81.8243 23.1752 81.7006 23.9861H87.9477C87.8377 23.1889 87.5008 22.5429 86.9376 22.0481C86.3738 21.5532 85.6732 21.3059 84.8347 21.3059Z" fill="black"/>
<path d="M94.3011 20.9753C95.0433 19.8208 96.3493 19.4496 98.2185 19.4496V21.5113C97.9984 21.4701 97.7995 21.4495 97.6205 21.4495C96.6172 21.4495 95.834 21.9306 95.2702 22.5216C94.707 23.0988 94.4248 23.9372 94.4248 25.0368V30.3766H91.8477V19.3672H94.3011V20.9753Z" fill="black"/>
<path d="M106.914 29.7779C106.611 30.0253 106.24 30.2109 105.8 30.3345C105.374 30.4585 104.921 30.5201 104.44 30.5201C103.23 30.5201 102.296 30.2041 101.635 29.5719C100.976 28.9396 100.646 28.0185 100.646 26.8092V21.5105H98.832V19.4489H100.646V16.9336H103.223V19.4489H106.171V21.5105H103.223V26.7472C103.223 27.2834 103.354 27.6955 103.615 27.9843C103.876 28.2591 104.254 28.3967 104.748 28.3967C105.326 28.3967 105.807 28.2454 106.192 27.9431L106.914 29.7779Z" fill="black"/>
<path fill-rule="evenodd" clip-rule="evenodd" d="M44.5395 23.2033C44.5395 30.5052 38.6204 36.4243 31.3186 36.4243C24.0169 36.4243 18.0977 30.5052 18.0977 23.2033C18.0977 15.9017 24.0169 9.98242 31.3186 9.98242C38.6204 9.98242 44.5395 15.9017 44.5395 23.2033ZM40.3845 23.2033C40.3845 28.2102 36.3257 32.269 31.3189 32.269C30.9717 32.269 30.6291 32.2496 30.292 32.2117C34.8483 31.7329 38.3993 27.8792 38.3993 23.1958C38.3993 18.5362 34.8836 14.6975 30.3602 14.1877C30.6752 14.1546 30.9951 14.1376 31.3189 14.1376C36.3257 14.1376 40.3845 18.1965 40.3845 23.2033ZM28.3911 29.5891C31.379 29.0613 33.6517 26.4031 33.6517 23.2033C33.6517 20.0035 31.379 17.3453 28.3911 16.8177C28.7526 16.7551 29.1245 16.7225 29.5039 16.7225C33.0832 16.7225 35.9848 19.6241 35.9848 23.2033C35.9848 26.7826 33.0832 29.6842 29.5039 29.6842C29.1245 29.6842 28.7526 29.6515 28.3911 29.5891Z" fill="black"/>
</g>
</g>
<defs>
<clipPath id="clip0_4337_159">
<rect width="124.321" height="44.7555" fill="white" transform="translate(0.320312)"/>
</clipPath>
</defs>
</svg>
