<svg width="125" height="45" viewBox="0 0 125 45" fill="none" xmlns="http://www.w3.org/2000/svg">
<g clip-path="url(#clip0_4337_198)">
<mask id="mask0_4337_198" style="mask-type:luminance" maskUnits="userSpaceOnUse" x="0" y="0" width="125" height="45">
<path d="M124.606 0H0.285156V44.7555H124.606V0Z" fill="white"/>
</mask>
<g mask="url(#mask0_4337_198)">
<path d="M54.3593 17.0527V31.44H50.8547V25.517H45.403V31.44H41.8984V17.0527H45.403V22.6888H50.8547V17.0527H54.3593Z" fill="black"/>
<path d="M57.8326 18.8149C57.2178 18.8149 56.7123 18.6373 56.3162 18.2821C55.9335 17.9132 55.7422 17.4622 55.7422 16.9294C55.7422 16.3829 55.9335 15.932 56.3162 15.5767C56.7123 15.2079 57.2178 15.0234 57.8326 15.0234C58.4339 15.0234 58.9259 15.2079 59.3082 15.5767C59.7046 15.932 59.9026 16.3829 59.9026 16.9294C59.9026 17.4622 59.7046 17.9132 59.3082 18.2821C58.9259 18.6373 58.4339 18.8149 57.8326 18.8149ZM59.5748 20.0036V31.4396H56.0701V20.0036H59.5748Z" fill="black"/>
<path d="M67.6708 28.4685V31.44H65.8881C64.6175 31.44 63.6267 31.1326 62.9162 30.518C62.2059 29.8893 61.8507 28.8716 61.8507 27.4642V22.9144H60.457V20.0041H61.8507V17.2168H65.3553V20.0041H67.6503V22.9144H65.3553V27.5052C65.3553 27.8469 65.4374 28.0926 65.6009 28.2429C65.765 28.3933 66.0385 28.4685 66.4208 28.4685H67.6708Z" fill="black"/>
<path d="M79.5822 25.5373C79.5822 25.8652 79.5616 26.2069 79.5206 26.562H71.5896C71.6443 27.2726 71.8693 27.819 72.2659 28.2017C72.6755 28.5705 73.174 28.7551 73.7614 28.7551C74.636 28.7551 75.244 28.386 75.5859 27.6482H79.3155C79.1247 28.3997 78.7759 29.0761 78.2706 29.6772C77.7789 30.2784 77.1573 30.7499 76.4058 31.0913C75.6542 31.433 74.8138 31.6038 73.8845 31.6038C72.7644 31.6038 71.7667 31.3646 70.8927 30.8866C70.0181 30.4082 69.335 29.7252 68.8427 28.8371C68.351 27.9489 68.1055 26.9104 68.1055 25.7218C68.1055 24.533 68.3442 23.4947 68.8228 22.6066C69.3145 21.7185 69.9976 21.0353 70.8722 20.5571C71.7462 20.0789 72.7507 19.8398 73.8845 19.8398C74.9916 19.8398 75.975 20.0721 76.8359 20.5367C77.6968 21.0012 78.3663 21.6638 78.8443 22.5246C79.336 23.3854 79.5822 24.3896 79.5822 25.5373ZM75.9955 24.6151C75.9955 24.0139 75.791 23.5357 75.3807 23.1804C74.9711 22.8252 74.4583 22.6476 73.8441 22.6476C73.2561 22.6476 72.7576 22.8184 72.3473 23.16C71.9513 23.5015 71.7052 23.9866 71.6101 24.6151H75.9955Z" fill="black"/>
<path d="M79.9141 25.7218C79.9141 24.533 80.1528 23.4947 80.6314 22.6066C81.1231 21.7185 81.7994 21.0353 82.6603 20.5571C83.5343 20.0789 84.532 19.8398 85.6521 19.8398C87.0868 19.8398 88.2821 20.2155 89.2387 20.967C90.2091 21.7185 90.8444 22.7774 91.1446 24.1437H87.415C87.1004 23.2692 86.4925 22.832 85.5905 22.832C84.9484 22.832 84.4362 23.0848 84.0539 23.5904C83.671 24.0822 83.4796 24.7927 83.4796 25.7218C83.4796 26.651 83.671 27.3682 84.0539 27.8737C84.4362 28.3655 84.9484 28.6115 85.5905 28.6115C86.4925 28.6115 87.1004 28.1744 87.415 27.2998H91.1446C90.8444 28.639 90.2091 29.691 89.2387 30.456C88.2684 31.2212 87.0731 31.6038 85.6521 31.6038C84.532 31.6038 83.5343 31.3646 82.6603 30.8866C81.7994 30.4082 81.1231 29.7252 80.6314 28.8371C80.1528 27.9489 79.9141 26.9104 79.9141 25.7218Z" fill="black"/>
<path d="M99.2289 19.8805C100.541 19.8805 101.593 20.3177 102.385 21.1921C103.177 22.0529 103.574 23.2416 103.574 24.7582V31.4395H100.09V25.2295C100.09 24.4645 99.8916 23.8701 99.4956 23.4466C99.099 23.023 98.5663 22.8113 97.8968 22.8113C97.2274 22.8113 96.6947 23.023 96.2981 23.4466C95.9021 23.8701 95.7038 24.4645 95.7038 25.2295V31.4395H92.1992V16.2734H95.7038V21.5406C96.0594 21.0351 96.5442 20.632 97.159 20.3314C97.7738 20.0308 98.4638 19.8805 99.2289 19.8805Z" fill="black"/>
<path d="M23.7539 23.9191V11.4785H27.9016V17.8735C28.6255 17.5941 29.4122 17.4409 30.2347 17.4409C33.814 17.4409 36.7155 20.3425 36.7155 23.9217V31.4394H32.5678V23.9217C32.5678 22.6332 31.5232 21.5886 30.2347 21.5886C28.9467 21.5886 27.9025 22.6323 27.9016 23.92V23.9217V31.4394H23.7539V23.9217V23.9191Z" fill="black"/>
<path d="M32.5664 15.6262V11.4785H36.714V15.6262H32.5664Z" fill="black"/>
</g>
</g>
<defs>
<clipPath id="clip0_4337_198">
<rect width="124.321" height="44.7555" fill="white" transform="translate(0.285156)"/>
</clipPath>
</defs>
</svg>
