<svg width="125" height="45" viewBox="0 0 125 45" fill="none" xmlns="http://www.w3.org/2000/svg">
<g clip-path="url(#clip0_4337_171)">
<mask id="mask0_4337_171" style="mask-type:luminance" maskUnits="userSpaceOnUse" x="0" y="0" width="125" height="45">
<path d="M124.962 0H0.640625V44.7555H124.962V0Z" fill="white"/>
</mask>
<g mask="url(#mask0_4337_171)">
<path d="M54.7148 17.0527V31.44H51.2102V25.517H45.7585V31.44H42.2539V17.0527H45.7585V22.6888H51.2102V17.0527H54.7148Z" fill="black"/>
<path d="M58.1881 18.8149C57.5732 18.8149 57.0677 18.6373 56.6716 18.2821C56.289 17.9132 56.0977 17.4622 56.0977 16.9294C56.0977 16.3829 56.289 15.932 56.6716 15.5767C57.0677 15.2079 57.5732 15.0234 58.1881 15.0234C58.7893 15.0234 59.2813 15.2079 59.6637 15.5767C60.0601 15.932 60.2581 16.3829 60.2581 16.9294C60.2581 17.4622 60.0601 17.9132 59.6637 18.2821C59.2813 18.6373 58.7893 18.8149 58.1881 18.8149ZM59.9302 20.0036V31.4396H56.4256V20.0036H59.9302Z" fill="black"/>
<path d="M68.0263 28.4685V31.44H66.2435C64.973 31.44 63.9821 31.1326 63.2716 30.518C62.5613 29.8893 62.2061 28.8716 62.2061 27.4642V22.9144H60.8125V20.0041H62.2061V17.2168H65.7108V20.0041H68.0058V22.9144H65.7108V27.5052C65.7108 27.8469 65.7929 28.0926 65.9563 28.2429C66.1204 28.3933 66.394 28.4685 66.7762 28.4685H68.0263Z" fill="black"/>
<path d="M79.9376 25.5373C79.9376 25.8652 79.9171 26.2069 79.8761 26.562H71.945C71.9997 27.2726 72.2248 27.819 72.6213 28.2017C73.031 28.5705 73.5295 28.7551 74.1169 28.7551C74.9915 28.7551 75.5994 28.386 75.9413 27.6482H79.671C79.4801 28.3997 79.1314 29.0761 78.626 29.6772C78.1344 30.2784 77.5127 30.7499 76.7612 31.0913C76.0097 31.433 75.1693 31.6038 74.24 31.6038C73.1199 31.6038 72.1222 31.3646 71.2482 30.8866C70.3736 30.4082 69.6905 29.7252 69.1982 28.8371C68.7065 27.9489 68.4609 26.9104 68.4609 25.7218C68.4609 24.533 68.6996 23.4947 69.1783 22.6066C69.67 21.7185 70.3531 21.0353 71.2277 20.5571C72.1017 20.0789 73.1062 19.8398 74.24 19.8398C75.3471 19.8398 76.3305 20.0721 77.1914 20.5367C78.0523 21.0012 78.7218 21.6638 79.1998 22.5246C79.6915 23.3854 79.9376 24.3896 79.9376 25.5373ZM76.351 24.6151C76.351 24.0139 76.1465 23.5357 75.7362 23.1804C75.3266 22.8252 74.8137 22.6476 74.1996 22.6476C73.6116 22.6476 73.113 22.8184 72.7028 23.16C72.3068 23.5015 72.0607 23.9866 71.9655 24.6151H76.351Z" fill="black"/>
<path d="M80.2695 25.7218C80.2695 24.533 80.5082 23.4947 80.9869 22.6066C81.4785 21.7185 82.1549 21.0353 83.0158 20.5571C83.8898 20.0789 84.8874 19.8398 86.0076 19.8398C87.4422 19.8398 88.6376 20.2155 89.5942 20.967C90.5645 21.7185 91.1998 22.7774 91.5001 24.1437H87.7704C87.4559 23.2692 86.848 22.832 85.946 22.832C85.3039 22.832 84.7917 23.0848 84.4094 23.5904C84.0265 24.0822 83.8351 24.7927 83.8351 25.7218C83.8351 26.651 84.0265 27.3682 84.4094 27.8737C84.7917 28.3655 85.3039 28.6115 85.946 28.6115C86.848 28.6115 87.4559 28.1744 87.7704 27.2998H91.5001C91.1998 28.639 90.5645 29.691 89.5942 30.456C88.6239 31.2212 87.4285 31.6038 86.0076 31.6038C84.8874 31.6038 83.8898 31.3646 83.0158 30.8866C82.1549 30.4082 81.4785 29.7252 80.9869 28.8371C80.5082 27.9489 80.2695 26.9104 80.2695 25.7218Z" fill="black"/>
<path d="M99.5844 19.8805C100.896 19.8805 101.948 20.3177 102.741 21.1921C103.533 22.0529 103.929 23.2416 103.929 24.7582V31.4395H100.445V25.2295C100.445 24.4645 100.247 23.8701 99.8511 23.4466C99.4545 23.023 98.9218 22.8113 98.2523 22.8113C97.5828 22.8113 97.0501 23.023 96.6535 23.4466C96.2576 23.8701 96.0593 24.4645 96.0593 25.2295V31.4395H92.5547V16.2734H96.0593V21.5406C96.4149 21.0351 96.8997 20.632 97.5145 20.3314C98.1292 20.0308 98.8192 19.8805 99.5844 19.8805Z" fill="black"/>
<path d="M24.1094 23.9191V11.4785H28.2571V17.8735C28.981 17.5941 29.7677 17.4409 30.5902 17.4409C34.1694 17.4409 37.071 20.3425 37.071 23.9217V31.4394H32.9233V23.9217C32.9233 22.6332 31.8787 21.5886 30.5902 21.5886C29.3022 21.5886 28.258 22.6323 28.2571 23.92V23.9217V31.4394H24.1094V23.9217V23.9191Z" fill="black"/>
<path d="M32.9219 15.6262V11.4785H37.0695V15.6262H32.9219Z" fill="black"/>
</g>
</g>
<defs>
<clipPath id="clip0_4337_171">
<rect width="124.321" height="44.7555" fill="white" transform="translate(0.640625)"/>
</clipPath>
</defs>
</svg>
