<svg width="125" height="45" viewBox="0 0 125 45" fill="none" xmlns="http://www.w3.org/2000/svg">
<path d="M29.9246 12.2246L18.4297 26.0186H28.7751L27.6256 35.2144L39.1205 21.4206H28.7751L29.9246 12.2246Z" fill="black"/>
<path d="M55.3937 21.8395V26.0946H49.2561V31.9227H44.4336V14.6445H56.6831V18.8996H49.2561V21.8395H55.3937Z" fill="black"/>
<path d="M63.4084 14.6445V31.9227H58.9727V14.6445H63.4084Z" fill="black"/>
<path d="M70.7285 18.3848C71.416 18.3848 72.0861 18.5395 72.7394 18.8489C73.4101 19.1412 73.9603 19.5194 74.3904 19.9837V18.7716H78.8262V31.9236H74.3904V29.7317C74.0634 30.4538 73.5649 31.0641 72.8948 31.5627C72.2241 32.0613 71.416 32.3105 70.4706 32.3105C69.4903 32.3105 68.5703 32.0613 67.7113 31.5627C66.8516 31.0641 66.1464 30.2991 65.5965 29.2675C65.0635 28.2187 64.7969 26.9035 64.7969 25.3218C64.7969 23.8433 65.0635 22.5882 65.5965 21.5567C66.1464 20.5252 66.869 19.7429 67.7629 19.2099C68.6741 18.6598 69.6625 18.3848 70.7285 18.3848ZM71.6566 22.7172C71.0207 22.7172 70.4874 22.9751 70.0578 23.4909C69.6451 24.0066 69.4387 24.617 69.4387 25.3218C69.4387 26.0268 69.6538 26.62 70.0833 27.1012C70.5135 27.5826 71.081 27.8234 71.7859 27.8234C72.1638 27.8234 72.5505 27.7287 72.9464 27.5396C73.3411 27.3334 73.6768 27.0324 73.9516 26.6371C74.2443 26.2244 74.3904 25.7001 74.3904 25.064V23.8003C74.0119 23.4909 73.5823 23.233 73.1006 23.0267C72.6369 22.8203 72.1551 22.7172 71.6566 22.7172Z" fill="black"/>
<path d="M85.7041 18.3848C86.5637 18.3848 87.3544 18.5137 88.0767 18.7716C88.8158 19.0123 89.4088 19.3475 89.8558 19.7773V23.2588C89.4088 22.9837 88.9016 22.7258 88.3347 22.4851C87.7672 22.2272 87.1567 22.0983 86.5034 22.0983C86.0907 22.0983 85.7215 22.1843 85.3945 22.3562C85.0849 22.5109 84.9302 22.7602 84.9302 23.1041C84.9302 23.3447 85.0253 23.5252 85.2142 23.6456C85.4032 23.7659 85.7731 23.8949 86.3232 24.0324L87.1226 24.2387C89.4088 24.8233 90.5519 26.0526 90.5519 27.9265C90.5519 28.7861 90.2946 29.551 89.7787 30.2217C89.2802 30.875 88.6181 31.3906 87.7933 31.7689C86.9846 32.1301 86.1081 32.3105 85.1626 32.3105C84.1824 32.3105 83.2711 32.173 82.4288 31.8978C81.5865 31.6057 80.8642 31.2531 80.2625 30.8407V27.385C80.8816 27.763 81.5778 28.0812 82.3517 28.339C83.1424 28.597 83.8473 28.7259 84.4664 28.7259C84.965 28.7259 85.3261 28.6657 85.5493 28.5455C85.7898 28.4252 85.9104 28.2101 85.9104 27.9007C85.9104 27.6599 85.7731 27.4795 85.4977 27.3592C85.2223 27.2217 84.8276 27.0668 84.3117 26.8949L82.9963 26.4822C82.0335 26.1901 81.3286 25.7344 80.8817 25.1155C80.4347 24.4794 80.2109 23.7058 80.2109 22.7946C80.2109 21.8834 80.4515 21.1011 80.9332 20.4478C81.4144 19.7945 82.0677 19.2873 82.8932 18.9263C83.7354 18.5653 84.6722 18.3848 85.7041 18.3848Z" fill="black"/>
<path d="M99.7039 18.3839C101.045 18.3839 102.137 18.8394 102.979 19.7506C103.839 20.6618 104.268 22.0114 104.268 23.7994V31.9227H99.8332L99.8071 24.4957C99.8071 23.8424 99.6268 23.3868 99.2657 23.1289C98.9045 22.8538 98.5005 22.7163 98.0536 22.7163C97.5724 22.7163 97.1684 22.8452 96.8414 23.1031C96.5151 23.3438 96.231 23.6361 95.9905 23.9799V31.9227H91.5547V14.6445H95.9905V20.4727C96.4032 19.9054 96.9017 19.4154 97.486 19.0028C98.0878 18.5902 98.8275 18.3839 99.7039 18.3839Z" fill="black"/>
<path d="M104.046 14.7461V15.2948H103.386V16.9642H102.758V15.2948H102.098V14.7461H104.046Z" fill="black"/>
<path d="M106.618 14.7129V16.9742H105.991V15.8768L105.532 16.3922H105.344L104.885 15.8768V16.9742H104.258V14.7129H104.479L105.438 15.6772L106.397 14.7129H106.618Z" fill="black"/>
</svg>
