<svg width="126" height="45" viewBox="0 0 126 45" fill="none" xmlns="http://www.w3.org/2000/svg">
<g clip-path="url(#clip0_4337_226)">
<mask id="mask0_4337_226" style="mask-type:luminance" maskUnits="userSpaceOnUse" x="0" y="0" width="126" height="45">
<path d="M125.247 0H0.925781V44.7555H125.247V0Z" fill="white"/>
</mask>
<g mask="url(#mask0_4337_226)">
<path d="M51.8867 15.9453H54.567V30.3771H51.8867V15.9453Z" fill="black"/>
<path d="M63.4385 19.2441C64.8265 19.2441 65.9398 19.6496 66.7784 20.4606C67.6169 21.2715 68.0359 22.4741 68.0359 24.0685V30.3772H65.4587V24.3985C65.4587 23.4362 65.2318 22.7147 64.7787 22.2336C64.3249 21.7388 63.679 21.4914 62.8407 21.4914C61.8921 21.4914 61.1429 21.78 60.5933 22.3573C60.0435 22.9209 59.7685 23.7388 59.7685 24.8107V30.3772H57.1914V19.3678H59.6448V20.7904C60.071 20.2818 60.6071 19.897 61.2531 19.6359C61.8991 19.3747 62.6276 19.2441 63.4385 19.2441Z" fill="black"/>
<path d="M80.3794 19.3672L75.6577 30.3766H72.9984L68.2773 19.3672H70.9571L74.3796 27.5315L77.9054 19.3672H80.3794Z" fill="black"/>
<path d="M91.0066 24.9344C91.0066 25.1132 90.993 25.3673 90.9656 25.6973H82.3266C82.4782 26.5082 82.8698 27.1542 83.502 27.6353C84.1479 28.1027 84.9454 28.3363 85.8933 28.3363C87.103 28.3363 88.0994 27.9376 88.8832 27.1404L90.2644 28.728C89.7697 29.319 89.1443 29.7657 88.3884 30.068C87.6319 30.3705 86.7803 30.5216 85.8318 30.5216C84.6221 30.5216 83.5573 30.281 82.6361 29.8002C81.7155 29.319 81.0007 28.6523 80.4922 27.8002C79.9968 26.9343 79.75 25.9583 79.75 24.8726C79.75 23.8004 79.9906 22.8384 80.4717 21.9862C80.9659 21.1203 81.6465 20.4468 82.5124 19.9658C83.3783 19.4847 84.3542 19.2441 85.4402 19.2441C86.5118 19.2441 87.4672 19.4847 88.3058 19.9658C89.158 20.4331 89.8175 21.0997 90.285 21.9656C90.7661 22.8177 91.0066 23.8075 91.0066 24.9344ZM85.4402 21.3059C84.6153 21.3059 83.9141 21.5532 83.3373 22.0481C82.7735 22.5291 82.4297 23.1752 82.306 23.9861H88.5532C88.4431 23.1889 88.1062 22.5429 87.5431 22.0481C86.9793 21.5532 86.2787 21.3059 85.4402 21.3059Z" fill="black"/>
<path d="M94.9066 20.9753C95.6488 19.8208 96.9548 19.4496 98.824 19.4496V21.5113C98.6039 21.4701 98.405 21.4495 98.226 21.4495C97.2227 21.4495 96.4395 21.9306 95.8757 22.5216C95.3125 23.0988 95.0303 23.9372 95.0303 25.0368V30.3766H92.4531V19.3672H94.9066V20.9753Z" fill="black"/>
<path d="M107.519 29.7779C107.216 30.0253 106.846 30.2109 106.406 30.3345C105.98 30.4585 105.526 30.5201 105.045 30.5201C103.835 30.5201 102.901 30.2041 102.241 29.5719C101.581 28.9396 101.251 28.0185 101.251 26.8092V21.5105H99.4375V19.4489H101.251V16.9336H103.829V19.4489H106.777V21.5105H103.829V26.7472C103.829 27.2834 103.959 27.6955 104.22 27.9843C104.481 28.2591 104.859 28.3967 105.354 28.3967C105.931 28.3967 106.413 28.2454 106.797 27.9431L107.519 29.7779Z" fill="black"/>
<path fill-rule="evenodd" clip-rule="evenodd" d="M45.145 23.2033C45.145 30.5052 39.2259 36.4243 31.924 36.4243C24.6224 36.4243 18.7031 30.5052 18.7031 23.2033C18.7031 15.9017 24.6224 9.98242 31.924 9.98242C39.2259 9.98242 45.145 15.9017 45.145 23.2033ZM40.99 23.2033C40.99 28.2102 36.9312 32.269 31.9243 32.269C31.5772 32.269 31.2346 32.2496 30.8975 32.2117C35.4538 31.7329 39.0048 27.8792 39.0048 23.1958C39.0048 18.5362 35.4891 14.6975 30.9656 14.1877C31.2807 14.1546 31.6005 14.1376 31.9243 14.1376C36.9312 14.1376 40.99 18.1965 40.99 23.2033ZM28.9965 29.5891C31.9845 29.0613 34.2572 26.4031 34.2572 23.2033C34.2572 20.0035 31.9845 17.3453 28.9965 16.8177C29.3581 16.7551 29.73 16.7225 30.1094 16.7225C33.6886 16.7225 36.5903 19.6241 36.5903 23.2033C36.5903 26.7826 33.6886 29.6842 30.1094 29.6842C29.73 29.6842 29.3581 29.6515 28.9965 29.5891Z" fill="black"/>
</g>
</g>
<defs>
<clipPath id="clip0_4337_226">
<rect width="124.321" height="44.7555" fill="white" transform="translate(0.925781)"/>
</clipPath>
</defs>
</svg>
