<svg width="125" height="45" viewBox="0 0 125 45" fill="none" xmlns="http://www.w3.org/2000/svg">
<g id="2" clip-path="url(#clip0_4353_173)">
<g id="Group 1000004806">
<g id="Group 1000004805">
<g id="DevWise">
<path d="M42.0912 30.1311H36.9766V15.7032H42.1334C43.5847 15.7032 44.834 15.992 45.8813 16.5697C46.9287 17.1427 47.7341 17.9669 48.2977 19.0424C48.866 20.118 49.1502 21.4048 49.1502 22.9031C49.1502 24.406 48.866 25.6975 48.2977 26.7777C47.7341 27.858 46.924 28.6869 45.8672 29.2646C44.8152 29.8423 43.5565 30.1311 42.0912 30.1311ZM40.027 27.5175H41.9644C42.8661 27.5175 43.6246 27.3578 44.2399 27.0384C44.8598 26.7143 45.3248 26.2142 45.6347 25.5378C45.9494 24.8568 46.1068 23.9786 46.1068 22.9031C46.1068 21.8369 45.9494 20.9657 45.6347 20.2894C45.3248 19.6131 44.8622 19.1152 44.2469 18.7959C43.6316 18.4765 42.8731 18.3168 41.9714 18.3168H40.027V27.5175Z" fill="black"/>
<path d="M56.2849 30.3425C55.1718 30.3425 54.2137 30.117 53.4106 29.6662C52.6121 29.2106 51.9969 28.5672 51.5648 27.7359C51.1327 26.8999 50.9167 25.9112 50.9167 24.77C50.9167 23.6569 51.1327 22.68 51.5648 21.8393C51.9969 20.9986 52.6051 20.3434 53.3894 19.8737C54.1785 19.4041 55.1037 19.1693 56.1651 19.1693C56.879 19.1693 57.5436 19.2843 58.1588 19.5145C58.7788 19.7399 59.3189 20.0804 59.7792 20.536C60.2441 20.9915 60.6058 21.5645 60.8641 22.2549C61.1224 22.9406 61.2515 23.7437 61.2515 24.6643V25.4885H52.1143V23.6287H58.4265C58.4265 23.1966 58.3326 22.8138 58.1447 22.4804C57.9569 22.1469 57.6962 21.8862 57.3627 21.6984C57.034 21.5058 56.6512 21.4095 56.2144 21.4095C55.7589 21.4095 55.355 21.5152 55.0027 21.7266C54.6552 21.9332 54.3828 22.2127 54.1855 22.5649C53.9882 22.9124 53.8873 23.2999 53.8826 23.7273V25.4956C53.8826 26.031 53.9812 26.4936 54.1785 26.8834C54.3804 27.2732 54.6646 27.5738 55.0309 27.7852C55.3972 27.9965 55.8317 28.1022 56.3342 28.1022C56.6677 28.1022 56.9729 28.0552 57.25 27.9613C57.5271 27.8674 57.7643 27.7265 57.9616 27.5386C58.1588 27.3507 58.3091 27.1206 58.4124 26.8482L61.1881 27.0314C61.0472 27.6983 60.7584 28.2807 60.3216 28.7785C59.8895 29.2716 59.3306 29.6568 58.6449 29.9339C57.9639 30.2063 57.1772 30.3425 56.2849 30.3425Z" fill="black"/>
<path d="M73.0077 19.3102L69.2246 30.1311H65.8431L62.0599 19.3102H65.2301L67.4775 27.0525H67.5902L69.8305 19.3102H73.0077Z" fill="black"/>
<path d="M77.8476 30.1311L73.7193 15.7032H77.0515L79.4397 25.7281H79.5595L82.1943 15.7032H85.0475L87.6752 25.7492H87.802L90.1902 15.7032H93.5225L89.3942 30.1311H86.4212L83.6737 20.698H83.561L80.8205 30.1311H77.8476Z" fill="black"/>
<path d="M95.0988 30.1311V19.3102H98.0999V30.1311H95.0988ZM96.6064 17.9153C96.1602 17.9153 95.7774 17.7673 95.4581 17.4714C95.1434 17.1708 94.9861 16.8116 94.9861 16.3936C94.9861 15.9803 95.1434 15.6257 95.4581 15.3298C95.7774 15.0292 96.1602 14.8789 96.6064 14.8789C97.0526 14.8789 97.433 15.0292 97.7477 15.3298C98.067 15.6257 98.2267 15.9803 98.2267 16.3936C98.2267 16.8116 98.067 17.1708 97.7477 17.4714C97.433 17.7673 97.0526 17.9153 96.6064 17.9153Z" fill="black"/>
<path d="M109.507 22.3958L106.76 22.5649C106.713 22.3301 106.612 22.1187 106.457 21.9309C106.302 21.7383 106.098 21.5857 105.844 21.4729C105.595 21.3555 105.297 21.2968 104.949 21.2968C104.484 21.2968 104.092 21.3954 103.773 21.5927C103.453 21.7853 103.294 22.0436 103.294 22.3676C103.294 22.626 103.397 22.8443 103.604 23.0228C103.81 23.2013 104.165 23.3445 104.668 23.4526L106.626 23.8471C107.678 24.0631 108.462 24.4107 108.979 24.8897C109.496 25.3688 109.754 25.9981 109.754 26.7777C109.754 27.4869 109.545 28.1092 109.127 28.6446C108.714 29.1801 108.145 29.5981 107.422 29.8986C106.703 30.1945 105.875 30.3425 104.935 30.3425C103.503 30.3425 102.361 30.0442 101.511 29.4478C100.666 28.8466 100.171 28.0294 100.025 26.9961L102.977 26.8412C103.066 27.2779 103.282 27.6114 103.625 27.8415C103.968 28.067 104.407 28.1797 104.942 28.1797C105.468 28.1797 105.891 28.0787 106.21 27.8768C106.534 27.6701 106.699 27.4047 106.703 27.0807C106.699 26.8083 106.584 26.5852 106.358 26.4114C106.133 26.2329 105.785 26.0967 105.316 26.0028L103.442 25.6294C102.385 25.4181 101.598 25.0517 101.082 24.5304C100.57 24.0091 100.314 23.3445 100.314 22.5367C100.314 21.8416 100.502 21.2428 100.877 20.7403C101.258 20.2377 101.791 19.8503 102.477 19.5779C103.167 19.3055 103.975 19.1693 104.9 19.1693C106.267 19.1693 107.342 19.4581 108.127 20.0358C108.916 20.6135 109.376 21.4001 109.507 22.3958Z" fill="black"/>
<path d="M116.575 30.3425C115.462 30.3425 114.504 30.117 113.701 29.6662C112.902 29.2106 112.287 28.5672 111.855 27.7359C111.423 26.8999 111.207 25.9112 111.207 24.77C111.207 23.6569 111.423 22.68 111.855 21.8393C112.287 20.9986 112.895 20.3434 113.68 19.8737C114.469 19.4041 115.394 19.1693 116.455 19.1693C117.169 19.1693 117.834 19.2843 118.449 19.5145C119.069 19.7399 119.609 20.0804 120.069 20.536C120.534 20.9915 120.896 21.5645 121.154 22.2549C121.413 22.9406 121.542 23.7437 121.542 24.6643V25.4885H112.405V23.6287H118.717C118.717 23.1966 118.623 22.8138 118.435 22.4804C118.247 22.1469 117.986 21.8862 117.653 21.6984C117.324 21.5058 116.941 21.4095 116.505 21.4095C116.049 21.4095 115.645 21.5152 115.293 21.7266C114.945 21.9332 114.673 22.2127 114.476 22.5649C114.279 22.9124 114.178 23.2999 114.173 23.7273V25.4956C114.173 26.031 114.271 26.4936 114.469 26.8834C114.671 27.2732 114.955 27.5738 115.321 27.7852C115.688 27.9965 116.122 28.1022 116.624 28.1022C116.958 28.1022 117.263 28.0552 117.54 27.9613C117.817 27.8674 118.055 27.7265 118.252 27.5386C118.449 27.3507 118.599 27.1206 118.703 26.8482L121.478 27.0314C121.338 27.6983 121.049 28.2807 120.612 28.7785C120.18 29.2716 119.621 29.6568 118.935 29.9339C118.254 30.2063 117.468 30.3425 116.575 30.3425Z" fill="black"/>
</g>
<g id="Subtract">
<path fill-rule="evenodd" clip-rule="evenodd" d="M30.3022 23.9883C30.3424 23.5751 30.3629 23.1561 30.3629 22.7323C30.3629 22.4792 30.3556 22.2279 30.3411 21.9785H4.76008C4.74562 22.2279 4.73828 22.4792 4.73828 22.7323C4.73828 23.1561 4.75886 23.5751 4.79907 23.9883H30.3022ZM29.6339 27.003H5.46731C5.71466 27.7028 6.02109 28.3747 6.3806 29.0128H28.7206C29.0801 28.3747 29.3866 27.7028 29.6339 27.003ZM26.3686 32.0274H8.73266C11.0297 34.2072 14.134 35.5446 17.5506 35.5446C20.9673 35.5446 24.0716 34.2072 26.3686 32.0274ZM5.30143 18.9639H29.7998C29.5856 18.2667 29.3135 17.595 28.9891 16.9541H6.11209C5.78773 17.595 5.51564 18.2667 5.30143 18.9639ZM8.23163 13.9395H26.8696C24.5336 11.4645 21.2225 9.91992 17.5506 9.91992C13.8787 9.91992 10.5677 11.4645 8.23163 13.9395Z" fill="black"/>
<path fill-rule="evenodd" clip-rule="evenodd" d="M30.3022 23.9883C30.3424 23.5751 30.3629 23.1561 30.3629 22.7323C30.3629 22.4792 30.3556 22.2279 30.3411 21.9785H4.76008C4.74562 22.2279 4.73828 22.4792 4.73828 22.7323C4.73828 23.1561 4.75886 23.5751 4.79907 23.9883H30.3022ZM29.6339 27.003H5.46731C5.71466 27.7028 6.02109 28.3747 6.3806 29.0128H28.7206C29.0801 28.3747 29.3866 27.7028 29.6339 27.003ZM26.3686 32.0274H8.73266C11.0297 34.2072 14.134 35.5446 17.5506 35.5446C20.9673 35.5446 24.0716 34.2072 26.3686 32.0274ZM5.30143 18.9639H29.7998C29.5856 18.2667 29.3135 17.595 28.9891 16.9541H6.11209C5.78773 17.595 5.51564 18.2667 5.30143 18.9639ZM8.23163 13.9395H26.8696C24.5336 11.4645 21.2225 9.91992 17.5506 9.91992C13.8787 9.91992 10.5677 11.4645 8.23163 13.9395Z" fill="black"/>
</g>
</g>
</g>
</g>
<defs>
<clipPath id="clip0_4353_173">
<rect width="124.321" height="44.7555" fill="white" transform="translate(0.605469)"/>
</clipPath>
</defs>
</svg>
