<svg width="126" height="45" viewBox="0 0 126 45" fill="none" xmlns="http://www.w3.org/2000/svg">
<g id="2" clip-path="url(#clip0_4353_146)">
<g id="Clip path group">
<mask id="mask0_4353_146" style="mask-type:luminance" maskUnits="userSpaceOnUse" x="0" y="0" width="126" height="45">
<g id="clip0_36_4446">
<path id="Vector" d="M125.282 0H0.960938V44.7555H125.282V0Z" fill="white"/>
</g>
</mask>
<g mask="url(#mask0_4353_146)">
<g id="Group">
<path id="Vector_2" d="M25.7322 35.2473H17.3672L25.7322 22.5977H34.0974L25.7322 35.2473Z" fill="black"/>
<path id="Vector_3" d="M22.6706 9.54102H31.2397L22.6706 22.5986H14.1016L22.6706 9.54102Z" fill="black"/>
<path id="Vector_4" d="M51.1623 20.5448C51.1623 21.3205 50.9752 22.0478 50.6012 22.7267C50.2411 23.4053 49.6662 23.9525 48.8767 24.3682C48.1009 24.7837 47.1174 24.9915 45.9261 24.9915H43.4949V30.5601H40.5859V16.0566H45.9261C47.0481 16.0566 48.0039 16.2506 48.7935 16.6385C49.5832 17.0263 50.1718 17.5596 50.5598 18.2384C50.9616 18.9171 51.1623 19.686 51.1623 20.5448ZM45.8013 22.6435C46.6048 22.6435 47.2004 22.4635 47.5884 22.1031C47.9763 21.7293 48.1701 21.2098 48.1701 20.5448C48.1701 19.1319 47.3806 18.4254 45.8013 18.4254H43.4949V22.6435H45.8013Z" fill="black"/>
<path id="Vector_5" d="M55.3035 20.836C55.6775 20.2265 56.1623 19.7486 56.7579 19.4023C57.3675 19.056 58.0601 18.8828 58.8359 18.8828V21.9372H58.067C57.1528 21.9372 56.4602 22.1519 55.9892 22.5815C55.5321 23.011 55.3035 23.7589 55.3035 24.8255V30.5604H52.3945V19.0491H55.3035V20.836Z" fill="black"/>
<path id="Vector_6" d="M65.0774 30.7487C63.9691 30.7487 62.9715 30.5063 62.085 30.0216C61.1985 29.5229 60.4988 28.8232 59.9864 27.9227C59.4877 27.0223 59.2383 25.9835 59.2383 24.8059C59.2383 23.6286 59.4946 22.5896 60.0073 21.6892C60.5336 20.7888 61.247 20.0962 62.1475 19.6113C63.0479 19.1126 64.0524 18.8633 65.1607 18.8633C66.2684 18.8633 67.2729 19.1126 68.173 19.6113C69.0737 20.0962 69.7798 20.7888 70.2927 21.6892C70.8191 22.5896 71.0821 23.6286 71.0821 24.8059C71.0821 25.9835 70.8123 27.0223 70.2721 27.9227C69.7456 28.8232 69.0252 29.5229 68.1108 30.0216C67.2107 30.5063 66.1994 30.7487 65.0774 30.7487ZM65.0774 28.2136C65.6033 28.2136 66.0956 28.089 66.5525 27.8397C67.0236 27.5766 67.3978 27.1886 67.6744 26.6761C67.9517 26.1635 68.0903 25.5402 68.0903 24.8059C68.0903 23.7116 67.7994 22.8736 67.2176 22.2917C66.6494 21.6961 65.9501 21.3984 65.119 21.3984C64.2879 21.3984 63.588 21.6961 63.0202 22.2917C62.466 22.8736 62.1891 23.7116 62.1891 24.8059C62.1891 25.9003 62.4591 26.7454 62.9994 27.341C63.5532 27.9227 64.2463 28.2136 65.0774 28.2136Z" fill="black"/>
<path id="Vector_7" d="M75.2919 28.2536H78.4161V30.56H72.3828V14.2695H75.2919V28.2536Z" fill="black"/>
<path id="Vector_8" d="M80.6738 17.6773C80.1616 17.6773 79.7321 17.518 79.3859 17.1993C79.0533 16.8669 78.8867 16.4583 78.8867 15.9734C78.8867 15.4886 79.0533 15.0869 79.3859 14.7682C79.7321 14.4358 80.1616 14.2695 80.6738 14.2695C81.1867 14.2695 81.6087 14.4358 81.9413 14.7682C82.2875 15.0869 82.4609 15.4886 82.4609 15.9734C82.4609 16.4583 82.2875 16.8669 81.9413 17.1993C81.6087 17.518 81.1867 17.6773 80.6738 17.6773ZM82.1073 19.0487V30.56H79.1988V19.0487H82.1073Z" fill="black"/>
<path id="Vector_9" d="M90.5319 18.8828C91.9031 18.8828 93.0114 19.3192 93.8562 20.1919C94.701 21.0507 95.1237 22.2559 95.1237 23.8074V30.5604H92.2146V24.2023C92.2146 23.2879 91.9858 22.5884 91.5289 22.1034C91.0714 21.6048 90.4486 21.3555 89.6591 21.3555C88.8554 21.3555 88.2183 21.6048 87.7471 22.1034C87.2902 22.5884 87.0614 23.2879 87.0614 24.2023V30.5604H84.1523V19.0491H87.0614V20.4828C87.4493 19.9841 87.941 19.5962 88.5371 19.3192C89.1463 19.0283 89.8114 18.8828 90.5319 18.8828Z" fill="black"/>
<path id="Vector_10" d="M107.758 24.5567C107.758 24.9722 107.731 25.3463 107.675 25.6787H99.2593C99.3283 26.5099 99.6199 27.1609 100.132 27.6319C100.645 28.1029 101.275 28.3385 102.023 28.3385C103.103 28.3385 103.872 27.8742 104.33 26.9462H107.467C107.134 28.0545 106.497 28.9686 105.556 29.6891C104.613 30.3954 103.457 30.7487 102.085 30.7487C100.977 30.7487 99.9798 30.5063 99.0934 30.0216C98.2206 29.5229 97.535 28.8232 97.0359 27.9227C96.5516 27.0223 96.3086 25.9835 96.3086 24.8059C96.3086 23.6147 96.5516 22.5689 97.0359 21.6684C97.5207 20.768 98.1995 20.0753 99.0722 19.5906C99.945 19.1057 100.949 18.8633 102.085 18.8633C103.18 18.8633 104.156 19.0987 105.015 19.5697C105.888 20.0407 106.56 20.7126 107.031 21.5854C107.515 22.4442 107.758 23.4345 107.758 24.5567ZM104.745 23.7256C104.731 22.9774 104.461 22.3818 103.934 21.9384C103.409 21.4814 102.764 21.2529 102.002 21.2529C101.282 21.2529 100.672 21.4745 100.174 21.9178C99.6889 22.3473 99.3911 22.9498 99.2799 23.7256H104.745Z" fill="black"/>
</g>
</g>
</g>
</g>
<defs>
<clipPath id="clip0_4353_146">
<rect width="124.321" height="44.7555" fill="white" transform="translate(0.960938)"/>
</clipPath>
</defs>
</svg>
