<svg width="34" height="45" viewBox="0 0 34 45" fill="none" xmlns="http://www.w3.org/2000/svg">
<g id="3">
<g id="Group">
<path id="Vector" d="M8.45783 18.3839C9.79925 18.3839 10.8908 18.8394 11.7331 19.7506C12.5928 20.6618 13.0223 22.0114 13.0223 23.7994V31.9227H8.58713L8.56102 24.4957C8.56102 23.8424 8.38075 23.3868 8.0196 23.1289C7.65845 22.8538 7.25441 22.7163 6.80747 22.7163C6.32635 22.7163 5.92231 22.8452 5.59534 23.1031C5.269 23.3438 4.98493 23.6361 4.74437 23.9799V31.9227H0.308594V14.6445H4.74437V20.4727C5.15711 19.9054 5.65564 19.4154 6.23995 19.0028C6.84166 18.5902 7.58137 18.3839 8.45783 18.3839Z" fill="black"/>
<path id="Vector_2" d="M12.7997 14.7461V15.2948H12.1395V16.9642H11.5123V15.2948H10.8516V14.7461H12.7997Z" fill="black"/>
<path id="Vector_3" d="M15.3719 14.7129V16.9742H14.7454V15.8768L14.286 16.3922H14.0983L13.6389 15.8768V16.9742H13.0117V14.7129H13.233L14.1921 15.6772L15.1507 14.7129H15.3719Z" fill="black"/>
</g>
</g>
</svg>
