<svg width="45" height="44" viewBox="0 0 45 44" fill="none" xmlns="http://www.w3.org/2000/svg">
<circle opacity="0.8" cx="27.8906" cy="16.9258" r="16.5" fill="#8959FF"/>
<g clip-path="url(#clip0_4353_1199)">
<path d="M8.50937 35.0668C7.07187 33.6293 8.025 30.609 7.29375 28.8402C6.53438 27.0137 3.75 25.5293 3.75 23.5762C3.75 21.623 6.53438 20.1387 7.29375 18.3121C8.025 16.5449 7.07187 13.523 8.50937 12.0855C9.94687 10.648 12.9687 11.6012 14.7359 10.8699C16.5703 10.1105 18.0469 7.32617 20 7.32617C21.9531 7.32617 23.4375 10.1105 25.2641 10.8699C27.0328 11.6012 30.0531 10.648 31.4906 12.0855C32.9281 13.523 31.975 16.5434 32.7063 18.3121C33.4656 20.1465 36.25 21.623 36.25 23.5762C36.25 25.5293 33.4656 27.0137 32.7063 28.8402C31.975 30.609 32.9281 33.6293 31.4906 35.0668C30.0531 36.5043 27.0328 35.5512 25.2641 36.2824C23.4375 37.0418 21.9531 39.8262 20 39.8262C18.0469 39.8262 16.5625 37.0418 14.7359 36.2824C12.9687 35.5512 9.94687 36.5043 8.50937 35.0668Z" stroke="black" stroke-width="2" stroke-linecap="round" stroke-linejoin="round"/>
<path d="M13.75 24.8262L17.5 28.5762L26.25 19.8262" stroke="black" stroke-width="2" stroke-linecap="round" stroke-linejoin="round"/>
</g>
<defs>
<clipPath id="clip0_4353_1199">
<rect width="40" height="40" fill="white" transform="translate(0 3.57617)"/>
</clipPath>
</defs>
</svg>
