<svg width="28" height="28" viewBox="0 0 28 28" fill="none" xmlns="http://www.w3.org/2000/svg">
<path fill-rule="evenodd" clip-rule="evenodd" d="M13.8712 25.3772C20.1859 25.3772 25.3049 20.2582 25.3049 13.9435C25.3049 7.62882 20.1859 2.50977 13.8712 2.50977C7.55655 2.50977 2.4375 7.62882 2.4375 13.9435C2.4375 20.2582 7.55655 25.3772 13.8712 25.3772Z" fill="black"/>
<path d="M10.1009 13.5425C9.65515 13.0954 8.93243 13.0954 8.48667 13.5425C8.0409 13.9897 8.0409 14.7147 8.48667 15.1619L12.3377 19.0252L19.887 11.4518C20.3327 11.0047 20.3327 10.2796 19.887 9.83246C19.4412 9.38527 18.7185 9.38527 18.2727 9.83246L12.3377 15.7864L10.1009 13.5425Z" fill="white"/>
<path d="M10.1009 13.5425C9.65515 13.0954 8.93243 13.0954 8.48667 13.5425C8.0409 13.9897 8.0409 14.7147 8.48667 15.1619L12.3377 19.0252L19.887 11.4518C20.3327 11.0047 20.3327 10.2796 19.887 9.83246C19.4412 9.38527 18.7185 9.38527 18.2727 9.83246L12.3377 15.7864L10.1009 13.5425Z" fill="white"/>
<path d="M10.1009 13.5425C9.65515 13.0954 8.93243 13.0954 8.48667 13.5425C8.0409 13.9897 8.0409 14.7147 8.48667 15.1619L12.3377 19.0252L19.887 11.4518C20.3327 11.0047 20.3327 10.2796 19.887 9.83246C19.4412 9.38527 18.7185 9.38527 18.2727 9.83246L12.3377 15.7864L10.1009 13.5425Z" fill="white"/>
</svg>
