<svg width="41" height="53" viewBox="0 0 41 53" fill="none" xmlns="http://www.w3.org/2000/svg">
<circle opacity="0.8" cx="20.8281" cy="19.5" r="19.5" fill="#8959FF"/>
<g clip-path="url(#clip0_4353_1156)">
<path d="M30.2461 45.8547L30.2461 18.1298C30.2461 16.7378 29.1177 15.6094 27.7257 15.6094L12.603 15.6094C11.211 15.6094 10.0826 16.7378 10.0826 18.1298L10.0826 45.8547C10.0826 47.2467 11.211 48.3751 12.603 48.3751H27.7257C29.1177 48.3751 30.2461 47.2467 30.2461 45.8547Z" stroke="black" stroke-width="2.52044" stroke-linecap="round" stroke-linejoin="round"/>
<path d="M20.1638 23.1693C21.2078 23.1693 22.0541 22.323 22.0541 21.279C22.0541 20.235 21.2078 19.3887 20.1638 19.3887C19.1198 19.3887 18.2734 20.235 18.2734 21.279C18.2734 22.323 19.1198 23.1693 20.1638 23.1693Z" fill="black"/>
</g>
<defs>
<clipPath id="clip0_4353_1156">
<rect width="40.3271" height="40.3271" fill="white" transform="translate(0 11.8281)"/>
</clipPath>
</defs>
</svg>
