<svg width="183" height="44" viewBox="0 0 183 44" fill="none" xmlns="http://www.w3.org/2000/svg">
<path d="M6.88798 42.9716C6.88798 39.919 6.88798 37.1794 6.88798 34.166C13.9325 33.2658 20.8988 32.4048 27.865 31.5438C31.7395 31.035 33.4224 29.2348 33.4615 25.3603C33.5006 22.8164 33.5006 20.3117 33.4615 17.7679C33.4224 13.8542 31.7786 12.0148 27.9433 11.5061C21.0162 10.6451 14.0891 9.78407 6.96626 8.88394C6.96626 6.02699 6.96626 3.20916 6.96626 0.0391267C14.8718 1.83939 22.8164 3.36572 30.6046 5.47908C35.4575 6.80971 38.5884 11.7017 38.7058 16.9069C38.784 19.9595 38.784 23.0121 38.7058 26.0647C38.5884 31.4655 35.2618 36.3967 30.1741 37.7274C22.5425 39.6842 14.7935 41.2105 6.88798 42.9716ZM20.6639 12.8367C20.6639 15.498 20.6639 17.807 20.6639 20.2335C23.2078 20.2335 25.6734 20.2335 28.1781 20.2335C28.1781 18.1201 28.1781 16.1633 28.1781 13.9325C25.5951 13.5411 23.1295 13.1889 20.6639 12.8367ZM6.92712 11.4669C6.92712 14.5978 6.92712 17.3374 6.92712 20.1943C11.2712 20.1943 15.4588 20.1943 19.8029 20.1943C19.8029 17.6896 19.8029 15.3805 19.8029 12.7584C15.3414 12.3279 11.1538 11.8974 6.92712 11.4669ZM20.5465 22.7773C20.5465 25.2429 20.5465 27.5519 20.5465 30.0566C23.2078 29.6261 25.7517 29.1957 28.2955 28.7652C28.2955 26.6909 28.2955 24.8515 28.2955 22.8164C25.6343 22.7773 23.0904 22.7773 20.5465 22.7773ZM6.96626 22.7773C6.96626 25.7908 6.96626 28.6086 6.96626 31.6221C11.3495 31.0742 15.5371 30.5654 19.8029 30.0175C19.8029 27.4737 19.8029 25.2429 19.8029 22.7382C15.3805 22.7773 11.193 22.7773 6.96626 22.7773ZM0 11.2321L5.71389 8.96221V0L0 3.05262V11.2321ZM0 13.1498V20.5074H5.71389V11.2712L0 13.1498ZM0 30.2915L5.71389 32.3265V22.5816H0V30.2915ZM0 39.919L5.71389 43.4412V34.3225L0 32.0526V39.919Z" fill="url(#paint0_linear_4301_1970)"/>
<path d="M49.8945 31.0723V12.4043H66.2535V15.9266H53.8473V27.55H66.4492V31.0723H49.8945ZM52.0079 23.245V19.8402H64.9229V23.245H52.0079Z" fill="#100852"/>
<path d="M70.793 31.0723V12.4043H74.4326L82.9252 22.9319H80.8901L89.3827 12.4043H93.0224V31.0723H89.1087V24.4191C89.1087 22.932 89.1479 21.5622 89.2261 20.2707C89.3044 18.9792 89.4218 17.6485 89.6566 16.2788L90.048 17.6485L82.8078 26.2977H81.0467L73.7282 17.6094L74.1978 16.3179C74.3935 17.6877 74.55 18.9792 74.6283 20.3098C74.7066 21.6013 74.7457 23.0102 74.7457 24.4583V31.1114H70.793V31.0723Z" fill="#100852"/>
<path d="M98.1094 31.0723V12.4043H114.468V15.9266H102.062V27.55H114.664V31.0723H98.1094ZM100.262 23.245V19.8402H113.177V23.245H100.262Z" fill="#100852"/>
<path d="M119.012 31.0723V12.4043H129.852C131.222 12.4043 132.396 12.6391 133.414 13.1479C134.431 13.6175 135.214 14.322 135.762 15.2221C136.31 16.1222 136.584 17.1398 136.584 18.3139C136.584 19.4879 136.271 20.5446 135.684 21.4839C135.058 22.4232 134.236 23.1668 133.218 23.7147C132.161 24.2626 131.027 24.5365 129.735 24.5365H122.925V31.1114H119.012V31.0723ZM122.886 21.2491H129.265C129.852 21.2491 130.4 21.1317 130.87 20.8969C131.34 20.6621 131.731 20.3098 132.044 19.8793C132.357 19.4488 132.475 18.9792 132.475 18.4313C132.475 17.9225 132.318 17.4529 132.044 17.0615C131.77 16.6701 131.34 16.357 130.87 16.1614C130.361 15.9657 129.813 15.8483 129.226 15.8483H122.886V21.2491ZM132.983 31.0723L126.643 22.658L130.87 21.9927L137.758 31.1114L132.983 31.0723Z" fill="#100852"/>
<path d="M151.455 31.3468C149.889 31.3468 148.441 31.1511 147.071 30.7206C145.702 30.3292 144.528 29.7031 143.51 28.9203C142.493 28.1376 141.71 27.1201 141.123 25.9068C140.536 24.6936 140.262 23.2847 140.262 21.6801C140.262 20.3103 140.536 19.058 141.123 17.8839C141.71 16.7098 142.532 15.6923 143.588 14.8313C144.645 13.9703 145.897 13.3049 147.345 12.8353C148.793 12.3657 150.359 12.1309 152.042 12.1309C153.451 12.1309 154.742 12.2874 155.877 12.6005C157.051 12.9136 158.069 13.2658 158.969 13.7354C159.869 14.2051 160.573 14.7139 161.121 15.2226L158.656 18.0013C158.069 17.5708 157.482 17.1794 156.777 16.8663C156.112 16.5141 155.368 16.2402 154.546 16.0445C153.764 15.8488 152.903 15.7314 152.003 15.7314C150.946 15.7314 149.928 15.888 149.028 16.201C148.128 16.5141 147.306 16.9055 146.602 17.4534C145.897 18.0013 145.389 18.6275 144.997 19.3319C144.606 20.0755 144.41 20.8582 144.41 21.7192C144.41 22.8151 144.606 23.7152 145.036 24.4979C145.428 25.2806 146.015 25.9068 146.719 26.3765C147.424 26.8461 148.206 27.1983 149.107 27.4331C150.007 27.6679 150.907 27.7854 151.885 27.7854C152.864 27.7854 153.764 27.7071 154.625 27.5114C155.486 27.3157 156.229 27.0809 156.856 26.7287C157.482 26.3765 157.99 25.9851 158.304 25.5155C158.656 25.0458 158.812 24.5371 158.773 23.9891L158.734 23.5195L159.282 24.4979H151.69V21.2105H162.726C162.726 21.4844 162.765 21.7584 162.765 21.9932C162.765 22.2672 162.804 22.4628 162.804 22.6585C162.804 22.8542 162.804 22.9716 162.804 23.0499C162.804 24.4588 162.53 25.672 161.982 26.7287C161.434 27.7854 160.652 28.6464 159.634 29.3117C158.617 30.0161 157.443 30.5249 156.034 30.8771C154.703 31.1511 153.138 31.3468 151.455 31.3468Z" fill="#100852"/>
<path d="M166.445 31.0723V12.4043H182.804V15.9266H170.398V27.55H183V31.0723H166.445ZM168.598 23.245V19.8402H181.513V23.245H168.598Z" fill="#100852"/>
<path d="M49.7461 35.7324H52.4465C54.4425 35.7324 55.8514 36.9848 55.8514 38.8242C55.8514 40.7027 54.4816 41.9159 52.4465 41.9159H49.7461V35.7324ZM52.4074 40.9767C53.7771 40.9767 54.6773 40.1157 54.6773 38.8633C54.6773 37.5718 53.7771 36.75 52.4074 36.75H50.8811V41.0158H52.4074V40.9767Z" fill="#100852"/>
<path d="M58.9844 35.7324H60.1193V41.9551H58.9844V35.7324Z" fill="#100852"/>
<path d="M67.9034 38.7853H68.9992V41.2509C68.3339 41.7596 67.4337 42.0336 66.5727 42.0336C64.6551 42.0336 63.207 40.703 63.207 38.8244C63.207 36.985 64.6159 35.6152 66.5727 35.6152C67.6294 35.6152 68.4904 35.9675 69.0775 36.6328L68.3339 37.3372C67.8642 36.8676 67.2772 36.6328 66.6119 36.6328C65.2812 36.6328 64.342 37.5329 64.342 38.8244C64.342 40.0768 65.2812 41.016 66.5727 41.016C67.0032 41.016 67.4337 40.9378 67.8642 40.7029V38.7853H67.9034Z" fill="#100852"/>
<path d="M72.3672 35.7324H73.5413V41.9551H72.3672V35.7324Z" fill="#100852"/>
<path d="M78.3516 36.7108H76.2773V35.7324H81.5607V36.7108H79.4865V41.9551H78.3124V36.7108H78.3516Z" fill="#100852"/>
<path d="M88.0209 40.5071H84.9292L84.303 41.9551H83.1289L85.9076 35.7324H87.0425L89.8603 41.9551H88.6471L88.0209 40.5071ZM87.6296 39.6069L86.4555 36.9065L85.2814 39.6069H87.6296Z" fill="#100852"/>
<path d="M92.5195 35.7324H93.6545V40.9767H96.9028V41.9551H92.5195V35.7324Z" fill="#100852"/>
<defs>
<linearGradient id="paint0_linear_4301_1970" x1="19.3822" y1="0" x2="19.3822" y2="43.4412" gradientUnits="userSpaceOnUse">
<stop stop-color="#A35AFF"/>
<stop offset="1" stop-color="#371FF7"/>
</linearGradient>
</defs>
</svg>
