<svg width="50" height="48" viewBox="0 0 50 48" fill="none" xmlns="http://www.w3.org/2000/svg">
<circle opacity="0.8" cx="29.7031" cy="19.5" r="19.5" fill="#8959FF"/>
<g clip-path="url(#clip0_4353_1415)">
<path d="M12.5 43.7344C13.8807 43.7344 15 42.6151 15 41.2344C15 39.8537 13.8807 38.7344 12.5 38.7344C11.1193 38.7344 10 39.8537 10 41.2344C10 42.6151 11.1193 43.7344 12.5 43.7344Z" fill="black"/>
<path d="M28.75 43.7344C30.1307 43.7344 31.25 42.6151 31.25 41.2344C31.25 39.8537 30.1307 38.7344 28.75 38.7344C27.3693 38.7344 26.25 39.8537 26.25 41.2344C26.25 42.6151 27.3693 43.7344 28.75 43.7344Z" fill="black"/>
<path d="M6.60781 18.7344H35L30.5437 33.2203C30.3863 33.7314 30.0692 34.1785 29.6389 34.496C29.2086 34.8135 28.6879 34.9847 28.1531 34.9844H13.1359C12.5926 34.9846 12.064 34.8078 11.6301 34.4808C11.1962 34.1538 10.8807 33.6943 10.7313 33.1719L5.07969 13.3906C5.00502 13.1296 4.84737 12.8999 4.63058 12.7364C4.41379 12.5729 4.14966 12.4844 3.87812 12.4844H1.25" stroke="black" stroke-width="2" stroke-linecap="round" stroke-linejoin="round"/>
</g>
<defs>
<clipPath id="clip0_4353_1415">
<rect width="40" height="40" fill="white" transform="translate(0 7.48438)"/>
</clipPath>
</defs>
</svg>
