<svg width="1211" height="486" viewBox="0 0 1211 486" fill="none" xmlns="http://www.w3.org/2000/svg">
<mask id="mask0_4301_4904" style="mask-type:alpha" maskUnits="userSpaceOnUse" x="0" y="0" width="1211" height="486">
<rect width="1211" height="486" rx="24" fill="#100650"/>
</mask>
<g mask="url(#mask0_4301_4904)">
<path d="M757.29 526.184C757.29 488.378 757.29 454.45 757.29 417.13C844.519 405.982 930.778 395.319 1017.04 384.656C1065.01 378.355 1085.85 356.059 1086.34 308.076C1086.82 276.571 1086.82 245.551 1086.34 214.047C1085.85 165.579 1065.5 142.798 1018.01 136.497C932.232 125.834 846.457 115.171 758.259 104.023C758.259 68.6415 758.259 33.744 758.259 -5.51543C856.149 16.7801 954.524 35.6829 1050.96 61.8559C1111.05 78.3351 1149.82 138.921 1151.27 203.384C1152.24 241.189 1152.24 278.994 1151.27 316.8C1149.82 383.686 1108.63 444.757 1045.63 461.236C951.132 485.47 855.18 504.373 757.29 526.184ZM927.871 152.977C927.871 185.935 927.871 214.532 927.871 244.582C959.37 244.582 989.9 244.582 1020.91 244.582C1020.91 218.409 1020.91 194.175 1020.91 166.548C988.931 161.701 958.401 157.339 927.871 152.977ZM757.775 136.013C757.775 174.787 757.775 208.715 757.775 244.097C811.566 244.097 863.418 244.097 917.209 244.097C917.209 213.077 917.209 184.481 917.209 152.007C861.965 146.676 810.112 141.344 757.775 136.013ZM926.417 276.087C926.417 306.622 926.417 335.218 926.417 366.238C959.37 360.906 990.869 355.575 1022.37 350.243C1022.37 324.555 1022.37 301.775 1022.37 276.571C989.415 276.086 957.916 276.087 926.417 276.087ZM758.259 276.087C758.259 313.407 758.259 348.304 758.259 385.625C812.535 378.84 864.388 372.539 917.209 365.753C917.209 334.249 917.209 306.622 917.209 275.602C862.449 276.086 810.597 276.087 758.259 276.087ZM672 133.105L742.752 104.993V-6L672 31.8053V133.105ZM672 156.854V247.975H742.752V133.589L672 156.854ZM672 369.146L742.752 394.349V273.663H672V369.146ZM672 488.378L742.752 532V419.069L672 390.957V488.378Z" fill="url(#paint0_linear_4301_4904)"/>
</g>
<defs>
<linearGradient id="paint0_linear_4301_4904" x1="912" y1="-6" x2="912" y2="532" gradientUnits="userSpaceOnUse">
<stop stop-color="#A35AFF"/>
<stop offset="1" stop-color="#371FF7"/>
</linearGradient>
</defs>
</svg>
