<svg width="658" height="632" viewBox="0 0 658 632" fill="none" xmlns="http://www.w3.org/2000/svg">
<path d="M0.78 45.46C0.78 42.9 2.9 41.12 5.98 41.12C8.94 41.12 10.82 42.76 10.9 45.4H8.34C8.28 44.14 7.38 43.4 5.94 43.4C4.36 43.4 3.34 44.16 3.34 45.38C3.34 46.42 3.9 47 5.12 47.28L7.42 47.78C9.92 48.32 11.14 49.6 11.14 51.78C11.14 54.5 9.02 56.26 5.8 56.26C2.68 56.26 0.64 54.6 0.58 51.98H3.14C3.16 53.22 4.16 53.96 5.8 53.96C7.5 53.96 8.58 53.22 8.58 52C8.58 51.02 8.08 50.44 6.88 50.18L4.56 49.66C2.08 49.12 0.78 47.7 0.78 45.46ZM16.4559 56H14.0159V48.16H12.1159V46.12H14.0159V43.04H16.4559V46.12H18.3759V48.16H16.4559V56ZM26.0928 46.08V48.34H25.1928C23.4328 48.34 22.3328 49.28 22.3328 51.2V56H19.8928V46.14H22.1928L22.3328 47.58C22.7528 46.6 23.6928 45.94 25.0128 45.94C25.3528 45.94 25.6928 45.98 26.0928 46.08ZM30.2938 56.26C28.1938 56.26 26.9138 55.04 26.9138 53.18C26.9138 51.36 28.2338 50.22 30.5738 50.04L33.5338 49.82V49.6C33.5338 48.26 32.7338 47.72 31.4938 47.72C30.0538 47.72 29.2538 48.32 29.2538 49.36H27.1738C27.1738 47.22 28.9338 45.82 31.6138 45.82C34.2738 45.82 35.9138 47.26 35.9138 50V56H33.7738L33.5938 54.54C33.1738 55.56 31.8338 56.26 30.2938 56.26ZM31.0938 54.42C32.5938 54.42 33.5538 53.52 33.5538 52V51.48L31.4938 51.64C29.9738 51.78 29.3938 52.28 29.3938 53.08C29.3938 53.98 29.9938 54.42 31.0938 54.42ZM41.5341 56H39.0941V48.16H37.1941V46.12H39.0941V43.04H41.5341V46.12H43.4541V48.16H41.5341V56ZM49.2933 56.26C46.3533 56.26 44.2933 54.12 44.2933 51.06C44.2933 47.96 46.3133 45.82 49.2133 45.82C52.1733 45.82 54.0533 47.8 54.0533 50.88V51.62L46.6133 51.64C46.7933 53.38 47.7133 54.26 49.3333 54.26C50.6733 54.26 51.5533 53.74 51.8333 52.8H54.0933C53.6733 54.96 51.8733 56.26 49.2933 56.26ZM49.2333 47.82C47.7933 47.82 46.9133 48.6 46.6733 50.08H51.6333C51.6333 48.72 50.6933 47.82 49.2333 47.82ZM55.4461 50.84C55.4461 47.96 57.3261 45.8 60.1461 45.8C61.6261 45.8 62.7861 46.42 63.3661 47.48L63.5061 46.12H65.7661V55.5C65.7661 58.8 63.7861 60.86 60.5861 60.86C57.7461 60.86 55.8061 59.24 55.5061 56.6H57.9461C58.1061 57.88 59.0861 58.64 60.5861 58.64C62.2661 58.64 63.3461 57.58 63.3461 55.94V54.3C62.7261 55.22 61.5061 55.8 60.0861 55.8C57.2861 55.8 55.4461 53.7 55.4461 50.84ZM57.9061 50.78C57.9061 52.44 58.9661 53.68 60.5661 53.68C62.2461 53.68 63.2861 52.5 63.2861 50.78C63.2861 49.1 62.2661 47.94 60.5661 47.94C58.9461 47.94 57.9061 49.16 57.9061 50.78ZM69.5113 44.14C68.6713 44.14 68.0113 43.48 68.0113 42.66C68.0113 41.84 68.6713 41.2 69.5113 41.2C70.3113 41.2 70.9713 41.84 70.9713 42.66C70.9713 43.48 70.3113 44.14 69.5113 44.14ZM68.2913 56V46.12H70.7313V56H68.2913ZM72.6722 51.04C72.6722 47.98 74.6922 45.82 77.6122 45.82C80.3122 45.82 82.1522 47.32 82.4122 49.7H79.9722C79.6922 48.58 78.8722 48 77.7122 48C76.1522 48 75.1122 49.18 75.1122 51.04C75.1122 52.9 76.0722 54.06 77.6322 54.06C78.8522 54.06 79.7122 53.46 79.9722 52.38H82.4322C82.1322 54.68 80.2122 56.26 77.6322 56.26C74.6322 56.26 72.6722 54.18 72.6722 51.04ZM89.6389 60.58V46.12H91.8989L92.0589 47.62C92.6589 46.48 93.9589 45.82 95.4589 45.82C98.2389 45.82 100.079 47.84 100.079 50.94C100.079 54.02 98.3989 56.26 95.4589 56.26C93.9789 56.26 92.6989 55.68 92.0789 54.68V60.58H89.6389ZM92.0989 51.06C92.0989 52.84 93.1989 54.06 94.8789 54.06C96.5989 54.06 97.6189 52.82 97.6189 51.06C97.6189 49.3 96.5989 48.04 94.8789 48.04C93.1989 48.04 92.0989 49.28 92.0989 51.06ZM104.962 56.26C102.862 56.26 101.582 55.04 101.582 53.18C101.582 51.36 102.902 50.22 105.242 50.04L108.202 49.82V49.6C108.202 48.26 107.402 47.72 106.162 47.72C104.722 47.72 103.922 48.32 103.922 49.36H101.842C101.842 47.22 103.602 45.82 106.282 45.82C108.942 45.82 110.582 47.26 110.582 50V56H108.442L108.262 54.54C107.842 55.56 106.502 56.26 104.962 56.26ZM105.762 54.42C107.262 54.42 108.222 53.52 108.222 52V51.48L106.162 51.64C104.642 51.78 104.062 52.28 104.062 53.08C104.062 53.98 104.662 54.42 105.762 54.42ZM119.179 46.08V48.34H118.279C116.519 48.34 115.419 49.28 115.419 51.2V56H112.979V46.14H115.279L115.419 47.58C115.839 46.6 116.779 45.94 118.099 45.94C118.439 45.94 118.779 45.98 119.179 46.08ZM124.581 56H122.141V48.16H120.241V46.12H122.141V43.04H124.581V46.12H126.501V48.16H124.581V56ZM130.458 56H128.018V46.12H130.278L130.478 47.4C131.098 46.4 132.298 45.82 133.638 45.82C136.118 45.82 137.398 47.36 137.398 49.92V56H134.958V50.5C134.958 48.84 134.138 48.04 132.878 48.04C131.378 48.04 130.458 49.08 130.458 50.68V56ZM144.215 56.26C141.275 56.26 139.215 54.12 139.215 51.06C139.215 47.96 141.235 45.82 144.135 45.82C147.095 45.82 148.975 47.8 148.975 50.88V51.62L141.535 51.64C141.715 53.38 142.635 54.26 144.255 54.26C145.595 54.26 146.475 53.74 146.755 52.8H149.015C148.595 54.96 146.795 56.26 144.215 56.26ZM144.155 47.82C142.715 47.82 141.835 48.6 141.595 50.08H146.555C146.555 48.72 145.615 47.82 144.155 47.82ZM157.128 46.08V48.34H156.228C154.468 48.34 153.368 49.28 153.368 51.2V56H150.928V46.14H153.228L153.368 47.58C153.788 46.6 154.728 45.94 156.048 45.94C156.388 45.94 156.728 45.98 157.128 46.08ZM158.02 53H160.34C160.36 53.86 161 54.4 162.12 54.4C163.26 54.4 163.88 53.94 163.88 53.22C163.88 52.72 163.62 52.36 162.74 52.16L160.96 51.74C159.18 51.34 158.32 50.5 158.32 48.92C158.32 46.98 159.96 45.82 162.24 45.82C164.46 45.82 165.96 47.1 165.98 49.02H163.66C163.64 48.18 163.08 47.64 162.14 47.64C161.18 47.64 160.62 48.08 160.62 48.82C160.62 49.38 161.06 49.74 161.9 49.94L163.68 50.36C165.34 50.74 166.18 51.5 166.18 53.02C166.18 55.02 164.48 56.26 162.04 56.26C159.58 56.26 158.02 54.94 158.02 53ZM170.477 56H168.037V41.12H170.497V47.4C171.117 46.44 172.277 45.82 173.697 45.82C176.137 45.82 177.417 47.36 177.417 49.92V56H174.977V50.5C174.977 48.84 174.157 48.04 172.917 48.04C171.377 48.04 170.477 49.12 170.477 50.6V56ZM181.035 44.14C180.195 44.14 179.535 43.48 179.535 42.66C179.535 41.84 180.195 41.2 181.035 41.2C181.835 41.2 182.495 41.84 182.495 42.66C182.495 43.48 181.835 44.14 181.035 44.14ZM179.815 56V46.12H182.255V56H179.815ZM184.776 60.58V46.12H187.036L187.196 47.62C187.796 46.48 189.096 45.82 190.596 45.82C193.376 45.82 195.216 47.84 195.216 50.94C195.216 54.02 193.536 56.26 190.596 56.26C189.116 56.26 187.836 55.68 187.216 54.68V60.58H184.776ZM187.236 51.06C187.236 52.84 188.336 54.06 190.016 54.06C191.736 54.06 192.756 52.82 192.756 51.06C192.756 49.3 191.736 48.04 190.016 48.04C188.336 48.04 187.236 49.28 187.236 51.06ZM196.398 53H198.718C198.738 53.86 199.378 54.4 200.498 54.4C201.638 54.4 202.258 53.94 202.258 53.22C202.258 52.72 201.998 52.36 201.118 52.16L199.338 51.74C197.558 51.34 196.698 50.5 196.698 48.92C196.698 46.98 198.338 45.82 200.618 45.82C202.838 45.82 204.338 47.1 204.358 49.02H202.038C202.018 48.18 201.458 47.64 200.518 47.64C199.558 47.64 198.998 48.08 198.998 48.82C198.998 49.38 199.438 49.74 200.278 49.94L202.058 50.36C203.718 50.74 204.558 51.5 204.558 53.02C204.558 55.02 202.858 56.26 200.418 56.26C197.958 56.26 196.398 54.94 196.398 53Z" fill="black"/>
<path d="M520.796 45.46C520.796 42.9 522.916 41.12 525.996 41.12C528.956 41.12 530.836 42.76 530.916 45.4H528.356C528.296 44.14 527.396 43.4 525.956 43.4C524.376 43.4 523.356 44.16 523.356 45.38C523.356 46.42 523.916 47 525.136 47.28L527.436 47.78C529.936 48.32 531.156 49.6 531.156 51.78C531.156 54.5 529.036 56.26 525.816 56.26C522.696 56.26 520.656 54.6 520.596 51.98H523.156C523.176 53.22 524.176 53.96 525.816 53.96C527.516 53.96 528.596 53.22 528.596 52C528.596 51.02 528.096 50.44 526.896 50.18L524.576 49.66C522.096 49.12 520.796 47.7 520.796 45.46ZM533.112 60.58V46.12H535.372L535.532 47.62C536.132 46.48 537.432 45.82 538.932 45.82C541.712 45.82 543.552 47.84 543.552 50.94C543.552 54.02 541.872 56.26 538.932 56.26C537.452 56.26 536.172 55.68 535.552 54.68V60.58H533.112ZM535.572 51.06C535.572 52.84 536.672 54.06 538.352 54.06C540.072 54.06 541.092 52.82 541.092 51.06C541.092 49.3 540.072 48.04 538.352 48.04C536.672 48.04 535.572 49.28 535.572 51.06ZM549.914 56.26C546.974 56.26 544.914 54.12 544.914 51.06C544.914 47.96 546.934 45.82 549.834 45.82C552.794 45.82 554.674 47.8 554.674 50.88V51.62L547.234 51.64C547.414 53.38 548.334 54.26 549.954 54.26C551.294 54.26 552.174 53.74 552.454 52.8H554.714C554.294 54.96 552.494 56.26 549.914 56.26ZM549.854 47.82C548.414 47.82 547.534 48.6 547.294 50.08H552.254C552.254 48.72 551.314 47.82 549.854 47.82ZM556.047 51.04C556.047 47.98 558.067 45.82 560.987 45.82C563.687 45.82 565.527 47.32 565.787 49.7H563.347C563.067 48.58 562.247 48 561.087 48C559.527 48 558.487 49.18 558.487 51.04C558.487 52.9 559.447 54.06 561.007 54.06C562.227 54.06 563.087 53.46 563.347 52.38H565.807C565.507 54.68 563.587 56.26 561.007 56.26C558.007 56.26 556.047 54.18 556.047 51.04ZM568.843 44.14C568.003 44.14 567.343 43.48 567.343 42.66C567.343 41.84 568.003 41.2 568.843 41.2C569.643 41.2 570.303 41.84 570.303 42.66C570.303 43.48 569.643 44.14 568.843 44.14ZM567.623 56V46.12H570.063V56H567.623ZM575.524 56.26C573.424 56.26 572.144 55.04 572.144 53.18C572.144 51.36 573.464 50.22 575.804 50.04L578.764 49.82V49.6C578.764 48.26 577.964 47.72 576.724 47.72C575.284 47.72 574.484 48.32 574.484 49.36H572.404C572.404 47.22 574.164 45.82 576.844 45.82C579.504 45.82 581.144 47.26 581.144 50V56H579.004L578.824 54.54C578.404 55.56 577.064 56.26 575.524 56.26ZM576.324 54.42C577.824 54.42 578.784 53.52 578.784 52V51.48L576.724 51.64C575.204 51.78 574.624 52.28 574.624 53.08C574.624 53.98 575.224 54.42 576.324 54.42ZM586.001 56H583.581V41.12H586.001V56ZM589.781 44.14C588.941 44.14 588.281 43.48 588.281 42.66C588.281 41.84 588.941 41.2 589.781 41.2C590.581 41.2 591.241 41.84 591.241 42.66C591.241 43.48 590.581 44.14 589.781 44.14ZM588.561 56V46.12H591.001V56H588.561ZM592.762 53H595.082C595.102 53.86 595.742 54.4 596.862 54.4C598.002 54.4 598.622 53.94 598.622 53.22C598.622 52.72 598.362 52.36 597.482 52.16L595.702 51.74C593.922 51.34 593.062 50.5 593.062 48.92C593.062 46.98 594.702 45.82 596.982 45.82C599.202 45.82 600.702 47.1 600.722 49.02H598.402C598.382 48.18 597.822 47.64 596.882 47.64C595.922 47.64 595.362 48.08 595.362 48.82C595.362 49.38 595.802 49.74 596.642 49.94L598.422 50.36C600.082 50.74 600.922 51.5 600.922 53.02C600.922 55.02 599.222 56.26 596.782 56.26C594.322 56.26 592.762 54.94 592.762 53ZM606.14 56H603.7V48.16H601.8V46.12H603.7V43.04H606.14V46.12H608.06V48.16H606.14V56ZM614.207 53H616.527C616.547 53.86 617.187 54.4 618.307 54.4C619.447 54.4 620.067 53.94 620.067 53.22C620.067 52.72 619.807 52.36 618.927 52.16L617.147 51.74C615.367 51.34 614.507 50.5 614.507 48.92C614.507 46.98 616.147 45.82 618.427 45.82C620.647 45.82 622.147 47.1 622.167 49.02H619.847C619.827 48.18 619.267 47.64 618.327 47.64C617.367 47.64 616.807 48.08 616.807 48.82C616.807 49.38 617.247 49.74 618.087 49.94L619.867 50.36C621.527 50.74 622.367 51.5 622.367 53.02C622.367 55.02 620.667 56.26 618.227 56.26C615.767 56.26 614.207 54.94 614.207 53ZM626.685 56H624.265V41.12H626.685V50.26L630.525 46.12H633.585L629.825 50.04L633.505 56H630.705L628.125 51.84L626.685 53.34V56ZM636.207 44.14C635.367 44.14 634.707 43.48 634.707 42.66C634.707 41.84 635.367 41.2 636.207 41.2C637.007 41.2 637.667 41.84 637.667 42.66C637.667 43.48 637.007 44.14 636.207 44.14ZM634.987 56V46.12H637.427V56H634.987ZM642.408 56H639.988V41.12H642.408V56ZM647.427 56H645.007V41.12H647.427V56ZM649.227 53H651.547C651.567 53.86 652.207 54.4 653.327 54.4C654.467 54.4 655.087 53.94 655.087 53.22C655.087 52.72 654.827 52.36 653.947 52.16L652.167 51.74C650.387 51.34 649.527 50.5 649.527 48.92C649.527 46.98 651.167 45.82 653.447 45.82C655.667 45.82 657.167 47.1 657.187 49.02H654.867C654.847 48.18 654.287 47.64 653.347 47.64C652.387 47.64 651.827 48.08 651.827 48.82C651.827 49.38 652.267 49.74 653.107 49.94L654.887 50.36C656.547 50.74 657.387 51.5 657.387 53.02C657.387 55.02 655.687 56.26 653.247 56.26C650.787 56.26 649.227 54.94 649.227 53Z" fill="black"/>
<path d="M203.278 503H200.618L205.898 488.38H208.518L213.798 503H211.098L209.918 499.62H204.458L203.278 503ZM206.878 492.74L205.218 497.46H209.178L207.498 492.74C207.378 492.36 207.238 491.92 207.198 491.62C207.138 491.9 207.018 492.34 206.878 492.74ZM214.438 497.84C214.438 494.96 216.318 492.8 219.138 492.8C220.618 492.8 221.778 493.42 222.358 494.48L222.498 493.12H224.758V502.5C224.758 505.8 222.778 507.86 219.578 507.86C216.738 507.86 214.798 506.24 214.498 503.6H216.938C217.098 504.88 218.078 505.64 219.578 505.64C221.258 505.64 222.338 504.58 222.338 502.94V501.3C221.718 502.22 220.498 502.8 219.078 502.8C216.278 502.8 214.438 500.7 214.438 497.84ZM216.898 497.78C216.898 499.44 217.958 500.68 219.558 500.68C221.238 500.68 222.278 499.5 222.278 497.78C222.278 496.1 221.258 494.94 219.558 494.94C217.938 494.94 216.898 496.16 216.898 497.78ZM228.503 491.14C227.663 491.14 227.003 490.48 227.003 489.66C227.003 488.84 227.663 488.2 228.503 488.2C229.303 488.2 229.963 488.84 229.963 489.66C229.963 490.48 229.303 491.14 228.503 491.14ZM227.283 503V493.12H229.723V503H227.283ZM234.704 503H232.284V488.12H234.704V503ZM241.684 503.26C238.744 503.26 236.684 501.12 236.684 498.06C236.684 494.96 238.704 492.82 241.604 492.82C244.564 492.82 246.444 494.8 246.444 497.88V498.62L239.004 498.64C239.184 500.38 240.104 501.26 241.724 501.26C243.064 501.26 243.944 500.74 244.224 499.8H246.484C246.064 501.96 244.264 503.26 241.684 503.26ZM241.624 494.82C240.184 494.82 239.304 495.6 239.064 497.08H244.024C244.024 495.72 243.084 494.82 241.624 494.82ZM257.147 503H254.707V495.16H252.807V493.12H254.707V490.04H257.147V493.12H259.067V495.16H257.147V503ZM264.907 503.26C261.967 503.26 259.907 501.12 259.907 498.06C259.907 494.96 261.927 492.82 264.827 492.82C267.787 492.82 269.667 494.8 269.667 497.88V498.62L262.227 498.64C262.407 500.38 263.327 501.26 264.947 501.26C266.287 501.26 267.167 500.74 267.447 499.8H269.707C269.287 501.96 267.487 503.26 264.907 503.26ZM264.847 494.82C263.407 494.82 262.527 495.6 262.287 497.08H267.247C267.247 495.72 266.307 494.82 264.847 494.82ZM274.462 503.26C272.362 503.26 271.082 502.04 271.082 500.18C271.082 498.36 272.402 497.22 274.742 497.04L277.702 496.82V496.6C277.702 495.26 276.902 494.72 275.662 494.72C274.222 494.72 273.422 495.32 273.422 496.36H271.342C271.342 494.22 273.102 492.82 275.782 492.82C278.442 492.82 280.082 494.26 280.082 497V503H277.942L277.762 501.54C277.342 502.56 276.002 503.26 274.462 503.26ZM275.262 501.42C276.762 501.42 277.722 500.52 277.722 499V498.48L275.662 498.64C274.142 498.78 273.562 499.28 273.562 500.08C273.562 500.98 274.162 501.42 275.262 501.42ZM284.919 503H282.479V493.12H284.719L284.919 494.28C285.419 493.46 286.419 492.82 287.839 492.82C289.339 492.82 290.379 493.56 290.899 494.7C291.399 493.56 292.559 492.82 294.059 492.82C296.459 492.82 297.779 494.26 297.779 496.54V503H295.359V497.18C295.359 495.76 294.599 495.02 293.439 495.02C292.259 495.02 291.359 495.78 291.359 497.4V503H288.919V497.16C288.919 495.78 288.179 495.04 287.019 495.04C285.859 495.04 284.919 495.8 284.919 497.4V503ZM301.394 491.14C300.554 491.14 299.894 490.48 299.894 489.66C299.894 488.84 300.554 488.2 301.394 488.2C302.194 488.2 302.854 488.84 302.854 489.66C302.854 490.48 302.194 491.14 301.394 491.14ZM300.174 503V493.12H302.614V503H300.174ZM307.575 503H305.135V493.12H307.395L307.595 494.4C308.215 493.4 309.415 492.82 310.755 492.82C313.235 492.82 314.515 494.36 314.515 496.92V503H312.075V497.5C312.075 495.84 311.255 495.04 309.995 495.04C308.495 495.04 307.575 496.08 307.575 497.68V503ZM316.352 497.84C316.352 494.96 318.232 492.8 321.052 492.8C322.532 492.8 323.692 493.42 324.272 494.48L324.412 493.12H326.672V502.5C326.672 505.8 324.692 507.86 321.492 507.86C318.652 507.86 316.712 506.24 316.412 503.6H318.852C319.012 504.88 319.992 505.64 321.492 505.64C323.172 505.64 324.252 504.58 324.252 502.94V501.3C323.632 502.22 322.412 502.8 320.992 502.8C318.192 502.8 316.352 500.7 316.352 497.84ZM318.812 497.78C318.812 499.44 319.872 500.68 321.472 500.68C323.152 500.68 324.192 499.5 324.192 497.78C324.192 496.1 323.172 494.94 321.472 494.94C319.852 494.94 318.812 496.16 318.812 497.78ZM344.343 503L343.363 501.9C342.203 502.78 340.723 503.26 338.963 503.26C335.783 503.26 333.643 501.58 333.643 499.12C333.643 497.34 334.803 495.88 337.043 494.8C335.903 493.48 335.463 492.58 335.463 491.48C335.463 489.54 337.043 488.14 339.203 488.14C341.343 488.14 342.823 489.46 342.823 491.36C342.823 492.82 342.043 493.98 340.223 495.2L343.163 498.5C343.423 497.8 343.563 496.96 343.563 496H345.943C345.943 497.7 345.543 499.16 344.803 500.32L347.183 503H344.343ZM337.783 491.46C337.783 492.18 338.103 492.78 339.043 493.86C340.063 493.26 340.563 492.44 340.563 491.44C340.563 490.58 340.043 490.08 339.203 490.08C338.323 490.08 337.783 490.6 337.783 491.46ZM336.223 498.88C336.223 500.3 337.363 501.16 339.243 501.16C340.343 501.16 341.243 500.86 341.943 500.3L338.223 496.12C336.843 496.9 336.223 497.74 336.223 498.88ZM352.319 493.12H353.739V491.92C353.739 489.24 355.159 488.12 357.299 488.12C357.679 488.12 358.139 488.14 358.559 488.22V490.3H357.699C356.459 490.3 356.159 490.94 356.159 491.92V493.12H358.519V495.16H356.159V503H353.739V495.16H352.319V493.12ZM362.763 503.26C360.663 503.26 359.383 502.04 359.383 500.18C359.383 498.36 360.703 497.22 363.043 497.04L366.003 496.82V496.6C366.003 495.26 365.203 494.72 363.963 494.72C362.523 494.72 361.723 495.32 361.723 496.36H359.643C359.643 494.22 361.403 492.82 364.083 492.82C366.743 492.82 368.383 494.26 368.383 497V503H366.243L366.063 501.54C365.643 502.56 364.303 503.26 362.763 503.26ZM363.562 501.42C365.063 501.42 366.023 500.52 366.023 499V498.48L363.963 498.64C362.443 498.78 361.863 499.28 361.863 500.08C361.863 500.98 362.463 501.42 363.562 501.42ZM372 491.14C371.16 491.14 370.5 490.48 370.5 489.66C370.5 488.84 371.16 488.2 372 488.2C372.8 488.2 373.46 488.84 373.46 489.66C373.46 490.48 372.8 491.14 372 491.14ZM370.78 503V493.12H373.22V503H370.78ZM378.2 503H375.78V488.12H378.2V503ZM385.171 493.12H386.591V491.92C386.591 489.24 388.011 488.12 390.151 488.12C390.531 488.12 390.991 488.14 391.411 488.22V490.3H390.551C389.311 490.3 389.011 490.94 389.011 491.92V493.12H391.371V495.16H389.011V503H386.591V495.16H385.171V493.12ZM395.614 503.26C393.514 503.26 392.234 502.04 392.234 500.18C392.234 498.36 393.554 497.22 395.894 497.04L398.854 496.82V496.6C398.854 495.26 398.054 494.72 396.814 494.72C395.374 494.72 394.574 495.32 394.574 496.36H392.494C392.494 494.22 394.254 492.82 396.934 492.82C399.594 492.82 401.234 494.26 401.234 497V503H399.094L398.914 501.54C398.494 502.56 397.154 503.26 395.614 503.26ZM396.414 501.42C397.914 501.42 398.874 500.52 398.874 499V498.48L396.814 498.64C395.294 498.78 394.714 499.28 394.714 500.08C394.714 500.98 395.314 501.42 396.414 501.42ZM402.871 500H405.191C405.211 500.86 405.851 501.4 406.971 501.4C408.111 501.4 408.731 500.94 408.731 500.22C408.731 499.72 408.471 499.36 407.591 499.16L405.811 498.74C404.031 498.34 403.171 497.5 403.171 495.92C403.171 493.98 404.811 492.82 407.091 492.82C409.311 492.82 410.811 494.1 410.831 496.02H408.511C408.491 495.18 407.931 494.64 406.991 494.64C406.031 494.64 405.471 495.08 405.471 495.82C405.471 496.38 405.911 496.74 406.751 496.94L408.531 497.36C410.191 497.74 411.031 498.5 411.031 500.02C411.031 502.02 409.331 503.26 406.891 503.26C404.431 503.26 402.871 501.94 402.871 500ZM416.249 503H413.809V495.16H411.909V493.12H413.809V490.04H416.249V493.12H418.169V495.16H416.249V503ZM424.496 498.04C424.496 494.98 426.516 492.82 429.436 492.82C432.136 492.82 433.976 494.32 434.236 496.7H431.796C431.516 495.58 430.696 495 429.536 495C427.976 495 426.936 496.18 426.936 498.04C426.936 499.9 427.896 501.06 429.456 501.06C430.676 501.06 431.536 500.46 431.796 499.38H434.256C433.956 501.68 432.036 503.26 429.456 503.26C426.456 503.26 424.496 501.18 424.496 498.04ZM442.773 493.12H445.213V503H442.953L442.773 501.68C442.173 502.62 440.893 503.26 439.573 503.26C437.293 503.26 435.953 501.72 435.953 499.3V493.12H438.393V498.44C438.393 500.32 439.133 501.08 440.493 501.08C442.033 501.08 442.773 500.18 442.773 498.3V493.12ZM450.193 503H447.773V488.12H450.193V503ZM456.112 503H453.672V495.16H451.772V493.12H453.672V490.04H456.112V493.12H458.032V495.16H456.112V503ZM466.249 493.12H468.689V503H466.429L466.249 501.68C465.649 502.62 464.369 503.26 463.049 503.26C460.769 503.26 459.429 501.72 459.429 499.3V493.12H461.869V498.44C461.869 500.32 462.609 501.08 463.969 501.08C465.509 501.08 466.249 500.18 466.249 498.3V493.12ZM477.409 493.08V495.34H476.509C474.749 495.34 473.649 496.28 473.649 498.2V503H471.209V493.14H473.509L473.649 494.58C474.069 493.6 475.009 492.94 476.329 492.94C476.669 492.94 477.009 492.98 477.409 493.08ZM483.149 503.26C480.209 503.26 478.149 501.12 478.149 498.06C478.149 494.96 480.169 492.82 483.069 492.82C486.029 492.82 487.909 494.8 487.909 497.88V498.62L480.469 498.64C480.649 500.38 481.569 501.26 483.189 501.26C484.529 501.26 485.409 500.74 485.689 499.8H487.949C487.529 501.96 485.729 503.26 483.149 503.26ZM483.089 494.82C481.649 494.82 480.769 495.6 480.529 497.08H485.489C485.489 495.72 484.549 494.82 483.089 494.82Z" fill="black"/>
<circle cx="346.5" cy="279.5" r="278.5" stroke="url(#paint0_linear_4301_4833)" stroke-width="2"/>
<g filter="url(#filter0_d_4301_4833)">
<circle cx="583.5" cy="127.5" r="42.5" fill="white"/>
</g>
<circle opacity="0.8" cx="590.793" cy="119.5" r="19.5" fill="#8959FF"/>
<g clip-path="url(#clip0_4301_4833)">
<path d="M574.183 134.597C573.127 132.685 572.688 130.493 572.928 128.322C573.168 126.15 574.075 124.107 575.524 122.472C576.972 120.837 578.892 119.69 581.019 119.191C583.145 118.691 585.374 118.862 587.4 119.681L580.791 126.842L581.726 131.194L586.078 132.129L593.24 125.521C594.058 127.546 594.23 129.775 593.73 131.902C593.23 134.028 592.084 135.948 590.449 137.397C588.814 138.845 586.77 139.752 584.599 139.992C582.428 140.232 580.235 139.794 578.323 138.737L569.062 149.476C568.317 150.221 567.307 150.639 566.253 150.639C565.2 150.639 564.189 150.221 563.445 149.476C562.7 148.731 562.281 147.721 562.281 146.667C562.281 145.614 562.7 144.604 563.445 143.859L574.183 134.597Z" stroke="black" stroke-width="2.64333" stroke-linecap="round" stroke-linejoin="round"/>
</g>
<g filter="url(#filter1_d_4301_4833)">
<circle cx="346.5" cy="553.5" r="42.5" fill="white"/>
</g>
<circle opacity="0.8" cx="351.5" cy="547.5" r="19.5" fill="#8959FF"/>
<g clip-path="url(#clip1_4301_4833)">
<path d="M335.774 562.886C340.519 562.886 344.365 559.039 344.365 554.295C344.365 549.55 340.519 545.704 335.774 545.704C331.03 545.704 327.184 549.55 327.184 554.295C327.184 559.039 331.03 562.886 335.774 562.886Z" stroke="black" stroke-width="2.64333" stroke-linecap="round" stroke-linejoin="round"/>
<path d="M323.586 569.494C324.906 567.464 326.712 565.796 328.841 564.641C330.969 563.487 333.352 562.882 335.773 562.882C338.195 562.882 340.578 563.487 342.706 564.641C344.834 565.796 346.641 567.464 347.961 569.494" stroke="black" stroke-width="2.64333" stroke-linecap="round" stroke-linejoin="round"/>
<path d="M350.312 562.886C352.734 562.884 355.117 563.488 357.245 564.642C359.374 565.796 361.18 567.464 362.5 569.494" stroke="black" stroke-width="2.64333" stroke-linecap="round" stroke-linejoin="round"/>
<path d="M347.125 546.315C348.3 545.847 349.564 545.643 350.827 545.72C352.09 545.796 353.32 546.151 354.43 546.758C355.54 547.365 356.502 548.21 357.248 549.232C357.994 550.254 358.504 551.428 358.743 552.671C358.983 553.913 358.944 555.193 358.632 556.419C358.319 557.645 357.739 558.786 356.934 559.762C356.129 560.738 355.118 561.524 353.974 562.064C352.83 562.604 351.58 562.885 350.315 562.886" stroke="black" stroke-width="2.64333" stroke-linecap="round" stroke-linejoin="round"/>
</g>
<g filter="url(#filter2_d_4301_4833)">
<circle cx="109.5" cy="121.5" r="42.5" fill="white"/>
</g>
<circle opacity="0.8" cx="104.5" cy="115.5" r="19.5" fill="#8959FF"/>
<g clip-path="url(#clip2_4301_4833)">
<path d="M120.361 115.027V112.384C120.361 111.683 120.083 111.01 119.587 110.514C119.091 110.019 118.419 109.74 117.718 109.74H109.788C109.087 109.74 108.414 110.019 107.919 110.514C107.423 111.01 107.145 111.683 107.145 112.384V115.027" stroke="black" stroke-width="2.64333" stroke-linecap="round" stroke-linejoin="round"/>
<path d="M128.289 115.027H99.2123C98.4824 115.027 97.8906 115.619 97.8906 116.349V137.496C97.8906 138.226 98.4824 138.817 99.2123 138.817H128.289C129.019 138.817 129.611 138.226 129.611 137.496V116.349C129.611 115.619 129.019 115.027 128.289 115.027Z" stroke="black" stroke-width="2.64333" stroke-linecap="round" stroke-linejoin="round"/>
<path d="M129.611 124C124.791 126.789 119.319 128.253 113.751 128.244C108.182 128.253 102.711 126.789 97.8906 124.002" stroke="black" stroke-width="2.64333" stroke-linecap="round" stroke-linejoin="round"/>
<path d="M111.109 122.955H116.396" stroke="black" stroke-width="2.64333" stroke-linecap="round" stroke-linejoin="round"/>
</g>
<path d="M345.5 1L104 415.5H589.5L345.5 1Z" fill="url(#paint1_linear_4301_4833)"/>
<path d="M292.799 179.166H290.805C290.728 178.74 290.586 178.365 290.377 178.041C290.168 177.717 289.912 177.442 289.61 177.217C289.307 176.991 288.968 176.82 288.593 176.705C288.223 176.59 287.828 176.533 287.411 176.533C286.657 176.533 285.981 176.722 285.385 177.102C284.792 177.481 284.324 178.037 283.978 178.77C283.637 179.503 283.467 180.398 283.467 181.455C283.467 182.52 283.637 183.419 283.978 184.152C284.324 184.885 284.794 185.439 285.391 185.814C285.988 186.189 286.659 186.376 287.404 186.376C287.818 186.376 288.21 186.321 288.581 186.21C288.956 186.095 289.294 185.927 289.597 185.705C289.9 185.484 290.155 185.213 290.364 184.893C290.577 184.57 290.724 184.199 290.805 183.781L292.799 183.788C292.693 184.431 292.486 185.023 292.179 185.565C291.877 186.102 291.487 186.566 291.01 186.958C290.537 187.346 289.995 187.646 289.386 187.859C288.777 188.072 288.112 188.179 287.392 188.179C286.258 188.179 285.248 187.911 284.362 187.374C283.475 186.832 282.777 186.059 282.265 185.053C281.758 184.048 281.505 182.848 281.505 181.455C281.505 180.057 281.76 178.857 282.272 177.856C282.783 176.85 283.482 176.079 284.368 175.542C285.255 175.001 286.262 174.73 287.392 174.73C288.086 174.73 288.734 174.83 289.335 175.031C289.94 175.227 290.483 175.516 290.965 175.9C291.446 176.279 291.845 176.744 292.16 177.293C292.475 177.839 292.689 178.463 292.799 179.166ZM299.145 188.198C298.225 188.198 297.421 187.987 296.735 187.565C296.049 187.143 295.517 186.553 295.137 185.795C294.758 185.036 294.568 184.15 294.568 183.136C294.568 182.117 294.758 181.227 295.137 180.464C295.517 179.701 296.049 179.109 296.735 178.687C297.421 178.265 298.225 178.054 299.145 178.054C300.066 178.054 300.869 178.265 301.555 178.687C302.241 179.109 302.774 179.701 303.153 180.464C303.532 181.227 303.722 182.117 303.722 183.136C303.722 184.15 303.532 185.036 303.153 185.795C302.774 186.553 302.241 187.143 301.555 187.565C300.869 187.987 300.066 188.198 299.145 188.198ZM299.151 186.594C299.748 186.594 300.242 186.436 300.634 186.121C301.026 185.805 301.316 185.386 301.504 184.862C301.695 184.337 301.791 183.76 301.791 183.129C301.791 182.503 301.695 181.928 301.504 181.403C301.316 180.875 301.026 180.451 300.634 180.131C300.242 179.812 299.748 179.652 299.151 179.652C298.551 179.652 298.052 179.812 297.656 180.131C297.264 180.451 296.972 180.875 296.78 181.403C296.593 181.928 296.499 182.503 296.499 183.129C296.499 183.76 296.593 184.337 296.78 184.862C296.972 185.386 297.264 185.805 297.656 186.121C298.052 186.436 298.551 186.594 299.151 186.594ZM307.766 182.17V188H305.855V178.182H307.69V179.78H307.811C308.037 179.26 308.391 178.842 308.872 178.527C309.358 178.212 309.969 178.054 310.707 178.054C311.376 178.054 311.962 178.195 312.464 178.476C312.967 178.753 313.357 179.166 313.634 179.716C313.911 180.266 314.05 180.945 314.05 181.755V188H312.138V181.985C312.138 181.273 311.953 180.717 311.582 180.317C311.212 179.912 310.702 179.71 310.055 179.71C309.612 179.71 309.217 179.805 308.872 179.997C308.531 180.189 308.261 180.47 308.06 180.841C307.864 181.207 307.766 181.651 307.766 182.17ZM318.524 182.17V188H316.613V178.182H318.447V179.78H318.569C318.795 179.26 319.148 178.842 319.63 178.527C320.116 178.212 320.727 178.054 321.464 178.054C322.134 178.054 322.719 178.195 323.222 178.476C323.725 178.753 324.115 179.166 324.392 179.716C324.669 180.266 324.808 180.945 324.808 181.755V188H322.896V181.985C322.896 181.273 322.711 180.717 322.34 180.317C321.969 179.912 321.46 179.71 320.812 179.71C320.369 179.71 319.975 179.805 319.63 179.997C319.289 180.189 319.018 180.47 318.818 180.841C318.622 181.207 318.524 181.651 318.524 182.17ZM331.602 188.198C330.635 188.198 329.802 187.991 329.103 187.578C328.408 187.161 327.871 186.575 327.492 185.82C327.117 185.062 326.93 184.173 326.93 183.155C326.93 182.149 327.117 181.263 327.492 180.496C327.871 179.729 328.4 179.13 329.077 178.7C329.759 178.269 330.556 178.054 331.468 178.054C332.022 178.054 332.559 178.146 333.079 178.329C333.599 178.512 334.065 178.8 334.479 179.192C334.892 179.584 335.218 180.093 335.457 180.719C335.695 181.342 335.815 182.098 335.815 182.989V183.666H328.01V182.234H333.942C333.942 181.732 333.839 181.286 333.635 180.898C333.43 180.506 333.143 180.197 332.772 179.972C332.406 179.746 331.975 179.633 331.481 179.633C330.944 179.633 330.475 179.765 330.075 180.029C329.678 180.289 329.371 180.63 329.154 181.052C328.941 181.469 328.835 181.923 328.835 182.413V183.532C328.835 184.188 328.95 184.746 329.18 185.207C329.414 185.667 329.74 186.018 330.158 186.261C330.575 186.5 331.063 186.619 331.621 186.619C331.984 186.619 332.314 186.568 332.612 186.466C332.911 186.359 333.168 186.202 333.386 185.993C333.603 185.784 333.769 185.526 333.884 185.219L335.693 185.545C335.548 186.078 335.288 186.545 334.913 186.945C334.543 187.342 334.076 187.651 333.513 187.872C332.955 188.089 332.318 188.198 331.602 188.198ZM342.071 188.198C341.121 188.198 340.302 187.983 339.616 187.553C338.934 187.118 338.41 186.519 338.044 185.756C337.677 184.994 337.494 184.12 337.494 183.136C337.494 182.138 337.682 181.259 338.057 180.496C338.432 179.729 338.96 179.13 339.642 178.7C340.324 178.269 341.127 178.054 342.052 178.054C342.797 178.054 343.462 178.192 344.046 178.469C344.63 178.742 345.101 179.126 345.459 179.62C345.821 180.114 346.036 180.692 346.104 181.352H344.244C344.142 180.892 343.907 180.496 343.541 180.163C343.179 179.831 342.693 179.665 342.084 179.665C341.551 179.665 341.084 179.805 340.684 180.087C340.287 180.364 339.979 180.76 339.757 181.276C339.535 181.787 339.425 182.392 339.425 183.091C339.425 183.807 339.533 184.425 339.751 184.945C339.968 185.464 340.275 185.867 340.671 186.153C341.072 186.438 341.542 186.581 342.084 186.581C342.446 186.581 342.774 186.515 343.068 186.383C343.366 186.246 343.616 186.053 343.816 185.801C344.02 185.55 344.163 185.247 344.244 184.893H346.104C346.036 185.528 345.829 186.095 345.484 186.594C345.139 187.092 344.677 187.484 344.097 187.77C343.522 188.055 342.846 188.198 342.071 188.198ZM352.731 178.182V179.716H347.368V178.182H352.731ZM348.806 175.83H350.718V185.117C350.718 185.488 350.773 185.767 350.884 185.955C350.995 186.138 351.137 186.263 351.312 186.332C351.491 186.396 351.685 186.428 351.894 186.428C352.047 186.428 352.181 186.417 352.297 186.396C352.412 186.374 352.501 186.357 352.565 186.344L352.91 187.923C352.799 187.966 352.642 188.009 352.437 188.051C352.233 188.098 351.977 188.124 351.67 188.128C351.167 188.136 350.699 188.047 350.264 187.859C349.829 187.672 349.478 187.382 349.209 186.99C348.941 186.598 348.806 186.106 348.806 185.513V175.83ZM358.971 188.198C358.004 188.198 357.171 187.991 356.472 187.578C355.778 187.161 355.241 186.575 354.861 185.82C354.486 185.062 354.299 184.173 354.299 183.155C354.299 182.149 354.486 181.263 354.861 180.496C355.241 179.729 355.769 179.13 356.447 178.7C357.128 178.269 357.925 178.054 358.837 178.054C359.391 178.054 359.928 178.146 360.448 178.329C360.968 178.512 361.434 178.8 361.848 179.192C362.261 179.584 362.587 180.093 362.826 180.719C363.064 181.342 363.184 182.098 363.184 182.989V183.666H355.379V182.234H361.311C361.311 181.732 361.209 181.286 361.004 180.898C360.8 180.506 360.512 180.197 360.141 179.972C359.775 179.746 359.344 179.633 358.85 179.633C358.313 179.633 357.844 179.765 357.444 180.029C357.047 180.289 356.741 180.63 356.523 181.052C356.31 181.469 356.204 181.923 356.204 182.413V183.532C356.204 184.188 356.319 184.746 356.549 185.207C356.783 185.667 357.109 186.018 357.527 186.261C357.944 186.5 358.432 186.619 358.991 186.619C359.353 186.619 359.683 186.568 359.981 186.466C360.28 186.359 360.537 186.202 360.755 185.993C360.972 185.784 361.138 185.526 361.253 185.219L363.062 185.545C362.917 186.078 362.657 186.545 362.282 186.945C361.912 187.342 361.445 187.651 360.883 187.872C360.324 188.089 359.687 188.198 358.971 188.198ZM368.98 188.192C368.187 188.192 367.48 187.989 366.858 187.585C366.24 187.175 365.754 186.594 365.4 185.839C365.051 185.081 364.876 184.171 364.876 183.11C364.876 182.049 365.053 181.141 365.407 180.387C365.765 179.633 366.255 179.055 366.877 178.655C367.499 178.254 368.204 178.054 368.993 178.054C369.602 178.054 370.092 178.156 370.463 178.361C370.838 178.561 371.127 178.795 371.332 179.064C371.541 179.332 371.703 179.569 371.818 179.773H371.933V174.909H373.844V188H371.978V186.472H371.818C371.703 186.681 371.537 186.92 371.319 187.188C371.106 187.457 370.812 187.691 370.437 187.891C370.062 188.092 369.576 188.192 368.98 188.192ZM369.402 186.562C369.951 186.562 370.416 186.417 370.795 186.127C371.179 185.833 371.468 185.426 371.664 184.906C371.865 184.386 371.965 183.781 371.965 183.091C371.965 182.409 371.867 181.812 371.671 181.301C371.475 180.79 371.187 180.391 370.808 180.106C370.429 179.82 369.96 179.678 369.402 179.678C368.826 179.678 368.347 179.827 367.963 180.125C367.58 180.423 367.29 180.83 367.094 181.346C366.902 181.862 366.806 182.443 366.806 183.091C366.806 183.747 366.904 184.337 367.1 184.862C367.297 185.386 367.586 185.801 367.97 186.108C368.358 186.411 368.835 186.562 369.402 186.562ZM385.011 188.192C384.218 188.192 383.511 187.989 382.889 187.585C382.271 187.175 381.785 186.594 381.431 185.839C381.082 185.081 380.907 184.171 380.907 183.11C380.907 182.049 381.084 181.141 381.438 180.387C381.796 179.633 382.286 179.055 382.908 178.655C383.53 178.254 384.235 178.054 385.024 178.054C385.633 178.054 386.123 178.156 386.494 178.361C386.869 178.561 387.159 178.795 387.363 179.064C387.572 179.332 387.734 179.569 387.849 179.773H387.964V174.909H389.875V188H388.009V186.472H387.849C387.734 186.681 387.568 186.92 387.35 187.188C387.137 187.457 386.843 187.691 386.468 187.891C386.093 188.092 385.608 188.192 385.011 188.192ZM385.433 186.562C385.983 186.562 386.447 186.417 386.826 186.127C387.21 185.833 387.5 185.426 387.696 184.906C387.896 184.386 387.996 183.781 387.996 183.091C387.996 182.409 387.898 181.812 387.702 181.301C387.506 180.79 387.218 180.391 386.839 180.106C386.46 179.82 385.991 179.678 385.433 179.678C384.858 179.678 384.378 179.827 383.995 180.125C383.611 180.423 383.321 180.83 383.125 181.346C382.934 181.862 382.838 182.443 382.838 183.091C382.838 183.747 382.936 184.337 383.132 184.862C383.328 185.386 383.618 185.801 384.001 186.108C384.389 186.411 384.866 186.562 385.433 186.562ZM395.46 188.217C394.838 188.217 394.276 188.102 393.773 187.872C393.27 187.638 392.872 187.299 392.578 186.856C392.288 186.413 392.143 185.869 392.143 185.226C392.143 184.672 392.249 184.216 392.463 183.858C392.676 183.5 392.963 183.217 393.325 183.008C393.688 182.799 394.093 182.641 394.54 182.535C394.987 182.428 395.443 182.347 395.908 182.292C396.496 182.224 396.973 182.168 397.34 182.126C397.706 182.079 397.972 182.004 398.139 181.902C398.305 181.8 398.388 181.634 398.388 181.403V181.359C398.388 180.8 398.23 180.368 397.915 180.061C397.604 179.754 397.139 179.601 396.521 179.601C395.878 179.601 395.371 179.744 395 180.029C394.634 180.31 394.38 180.624 394.24 180.969L392.443 180.56C392.656 179.963 392.968 179.482 393.377 179.115C393.79 178.744 394.265 178.476 394.802 178.31C395.339 178.139 395.904 178.054 396.496 178.054C396.888 178.054 397.303 178.101 397.742 178.195C398.186 178.284 398.599 178.45 398.982 178.693C399.37 178.936 399.688 179.283 399.935 179.735C400.182 180.183 400.306 180.764 400.306 181.48V188H398.439V186.658H398.362C398.239 186.905 398.053 187.148 397.806 187.386C397.559 187.625 397.242 187.823 396.854 187.981C396.466 188.138 396.002 188.217 395.46 188.217ZM395.876 186.683C396.404 186.683 396.856 186.579 397.231 186.37C397.61 186.161 397.898 185.888 398.094 185.552C398.294 185.211 398.394 184.847 398.394 184.459V183.193C398.326 183.261 398.194 183.325 397.998 183.385C397.806 183.44 397.587 183.489 397.34 183.532C397.093 183.57 396.852 183.607 396.617 183.641C396.383 183.67 396.187 183.696 396.029 183.717C395.659 183.764 395.32 183.843 395.013 183.954C394.71 184.065 394.468 184.224 394.284 184.433C394.105 184.638 394.016 184.911 394.016 185.251C394.016 185.724 394.191 186.082 394.54 186.325C394.889 186.564 395.335 186.683 395.876 186.683ZM407.434 178.182V179.716H402.071V178.182H407.434ZM403.51 175.83H405.421V185.117C405.421 185.488 405.476 185.767 405.587 185.955C405.698 186.138 405.841 186.263 406.015 186.332C406.194 186.396 406.388 186.428 406.597 186.428C406.75 186.428 406.885 186.417 407 186.396C407.115 186.374 407.204 186.357 407.268 186.344L407.613 187.923C407.502 187.966 407.345 188.009 407.14 188.051C406.936 188.098 406.68 188.124 406.373 188.128C405.87 188.136 405.402 188.047 404.967 187.859C404.532 187.672 404.181 187.382 403.912 186.99C403.644 186.598 403.51 186.106 403.51 185.513V175.83ZM412.406 188.217C411.784 188.217 411.221 188.102 410.718 187.872C410.215 187.638 409.817 187.299 409.523 186.856C409.233 186.413 409.088 185.869 409.088 185.226C409.088 184.672 409.195 184.216 409.408 183.858C409.621 183.5 409.909 183.217 410.271 183.008C410.633 182.799 411.038 182.641 411.485 182.535C411.933 182.428 412.389 182.347 412.853 182.292C413.441 182.224 413.919 182.168 414.285 182.126C414.651 182.079 414.918 182.004 415.084 181.902C415.25 181.8 415.333 181.634 415.333 181.403V181.359C415.333 180.8 415.176 180.368 414.86 180.061C414.549 179.754 414.085 179.601 413.467 179.601C412.823 179.601 412.316 179.744 411.945 180.029C411.579 180.31 411.325 180.624 411.185 180.969L409.389 180.56C409.602 179.963 409.913 179.482 410.322 179.115C410.735 178.744 411.21 178.476 411.747 178.31C412.284 178.139 412.849 178.054 413.441 178.054C413.833 178.054 414.249 178.101 414.688 178.195C415.131 178.284 415.544 178.45 415.928 178.693C416.316 178.936 416.633 179.283 416.88 179.735C417.127 180.183 417.251 180.764 417.251 181.48V188H415.384V186.658H415.308C415.184 186.905 414.999 187.148 414.752 187.386C414.504 187.625 414.187 187.823 413.799 187.981C413.411 188.138 412.947 188.217 412.406 188.217ZM412.821 186.683C413.35 186.683 413.801 186.579 414.176 186.37C414.556 186.161 414.843 185.888 415.039 185.552C415.24 185.211 415.34 184.847 415.34 184.459V183.193C415.271 183.261 415.139 183.325 414.943 183.385C414.752 183.44 414.532 183.489 414.285 183.532C414.038 183.57 413.797 183.607 413.563 183.641C413.328 183.67 413.132 183.696 412.975 183.717C412.604 183.764 412.265 183.843 411.958 183.954C411.656 184.065 411.413 184.224 411.23 184.433C411.051 184.638 410.961 184.911 410.961 185.251C410.961 185.724 411.136 186.082 411.485 186.325C411.835 186.564 412.28 186.683 412.821 186.683Z" fill="#D9D9D9"/>
<path d="M405.042 358H402.945L407.656 344.909H409.938L414.649 358H412.553L408.852 347.287H408.749L405.042 358ZM405.394 352.874H412.195V354.536H405.394V352.874ZM420.364 358.198C419.414 358.198 418.595 357.983 417.909 357.553C417.227 357.118 416.703 356.519 416.337 355.756C415.97 354.994 415.787 354.12 415.787 353.136C415.787 352.138 415.975 351.259 416.35 350.496C416.725 349.729 417.253 349.13 417.935 348.7C418.617 348.269 419.42 348.054 420.345 348.054C421.09 348.054 421.755 348.192 422.339 348.469C422.923 348.742 423.394 349.126 423.752 349.62C424.114 350.114 424.329 350.692 424.397 351.352H422.537C422.435 350.892 422.2 350.496 421.834 350.163C421.472 349.831 420.986 349.665 420.377 349.665C419.844 349.665 419.377 349.805 418.977 350.087C418.58 350.364 418.271 350.76 418.05 351.276C417.828 351.787 417.718 352.392 417.718 353.091C417.718 353.807 417.826 354.425 418.044 354.945C418.261 355.464 418.568 355.867 418.964 356.153C419.365 356.438 419.835 356.581 420.377 356.581C420.739 356.581 421.067 356.515 421.361 356.383C421.659 356.246 421.909 356.053 422.109 355.801C422.313 355.55 422.456 355.247 422.537 354.893H424.397C424.329 355.528 424.122 356.095 423.777 356.594C423.432 357.092 422.97 357.484 422.39 357.77C421.815 358.055 421.139 358.198 420.364 358.198ZM431.024 348.182V349.716H425.661V348.182H431.024ZM427.099 345.83H429.011V355.117C429.011 355.488 429.066 355.767 429.177 355.955C429.288 356.138 429.43 356.263 429.605 356.332C429.784 356.396 429.978 356.428 430.187 356.428C430.34 356.428 430.474 356.417 430.589 356.396C430.705 356.374 430.794 356.357 430.858 356.344L431.203 357.923C431.092 357.966 430.935 358.009 430.73 358.051C430.526 358.098 430.27 358.124 429.963 358.128C429.46 358.136 428.991 358.047 428.557 357.859C428.122 357.672 427.771 357.382 427.502 356.99C427.234 356.598 427.099 356.106 427.099 355.513V345.83ZM433.138 358V348.182H435.05V358H433.138ZM434.104 346.667C433.771 346.667 433.486 346.556 433.247 346.335C433.013 346.109 432.895 345.84 432.895 345.529C432.895 345.214 433.013 344.945 433.247 344.724C433.486 344.498 433.771 344.385 434.104 344.385C434.436 344.385 434.719 344.498 434.954 344.724C435.192 344.945 435.312 345.214 435.312 345.529C435.312 345.84 435.192 346.109 434.954 346.335C434.719 346.556 434.436 346.667 434.104 346.667ZM441.756 358.198C440.836 358.198 440.033 357.987 439.347 357.565C438.661 357.143 438.128 356.553 437.749 355.795C437.369 355.036 437.18 354.15 437.18 353.136C437.18 352.117 437.369 351.227 437.749 350.464C438.128 349.701 438.661 349.109 439.347 348.687C440.033 348.265 440.836 348.054 441.756 348.054C442.677 348.054 443.48 348.265 444.166 348.687C444.852 349.109 445.385 349.701 445.764 350.464C446.143 351.227 446.333 352.117 446.333 353.136C446.333 354.15 446.143 355.036 445.764 355.795C445.385 356.553 444.852 357.143 444.166 357.565C443.48 357.987 442.677 358.198 441.756 358.198ZM441.763 356.594C442.359 356.594 442.854 356.436 443.246 356.121C443.638 355.805 443.928 355.386 444.115 354.862C444.307 354.337 444.403 353.76 444.403 353.129C444.403 352.503 444.307 351.928 444.115 351.403C443.928 350.875 443.638 350.451 443.246 350.131C442.854 349.812 442.359 349.652 441.763 349.652C441.162 349.652 440.663 349.812 440.267 350.131C439.875 350.451 439.583 350.875 439.391 351.403C439.204 351.928 439.11 352.503 439.11 353.129C439.11 353.76 439.204 354.337 439.391 354.862C439.583 355.386 439.875 355.805 440.267 356.121C440.663 356.436 441.162 356.594 441.763 356.594ZM450.378 352.17V358H448.466V348.182H450.301V349.78H450.422C450.648 349.26 451.002 348.842 451.483 348.527C451.969 348.212 452.581 348.054 453.318 348.054C453.987 348.054 454.573 348.195 455.076 348.476C455.579 348.753 455.969 349.166 456.246 349.716C456.523 350.266 456.661 350.945 456.661 351.755V358H454.75V351.985C454.75 351.273 454.564 350.717 454.194 350.317C453.823 349.912 453.314 349.71 452.666 349.71C452.223 349.71 451.829 349.805 451.483 349.997C451.143 350.189 450.872 350.47 450.672 350.841C450.476 351.207 450.378 351.651 450.378 352.17ZM462.081 358.217C461.459 358.217 460.897 358.102 460.394 357.872C459.891 357.638 459.493 357.299 459.199 356.856C458.909 356.413 458.764 355.869 458.764 355.226C458.764 354.672 458.871 354.216 459.084 353.858C459.297 353.5 459.584 353.217 459.947 353.008C460.309 352.799 460.714 352.641 461.161 352.535C461.608 352.428 462.064 352.347 462.529 352.292C463.117 352.224 463.594 352.168 463.961 352.126C464.327 352.079 464.594 352.004 464.76 351.902C464.926 351.8 465.009 351.634 465.009 351.403V351.359C465.009 350.8 464.851 350.368 464.536 350.061C464.225 349.754 463.76 349.601 463.143 349.601C462.499 349.601 461.992 349.744 461.621 350.029C461.255 350.31 461.001 350.624 460.861 350.969L459.064 350.56C459.278 349.963 459.589 349.482 459.998 349.115C460.411 348.744 460.886 348.476 461.423 348.31C461.96 348.139 462.525 348.054 463.117 348.054C463.509 348.054 463.925 348.101 464.363 348.195C464.807 348.284 465.22 348.45 465.604 348.693C465.991 348.936 466.309 349.283 466.556 349.735C466.803 350.183 466.927 350.764 466.927 351.48V358H465.06V356.658H464.983C464.86 356.905 464.675 357.148 464.427 357.386C464.18 357.625 463.863 357.823 463.475 357.981C463.087 358.138 462.623 358.217 462.081 358.217ZM462.497 356.683C463.025 356.683 463.477 356.579 463.852 356.37C464.231 356.161 464.519 355.888 464.715 355.552C464.915 355.211 465.015 354.847 465.015 354.459V353.193C464.947 353.261 464.815 353.325 464.619 353.385C464.427 353.44 464.208 353.489 463.961 353.532C463.714 353.57 463.473 353.607 463.238 353.641C463.004 353.67 462.808 353.696 462.65 353.717C462.28 353.764 461.941 353.843 461.634 353.954C461.331 354.065 461.089 354.224 460.905 354.433C460.726 354.638 460.637 354.911 460.637 355.251C460.637 355.724 460.812 356.082 461.161 356.325C461.51 356.564 461.956 356.683 462.497 356.683ZM469.626 358V344.909H471.537V349.773H471.652C471.763 349.569 471.923 349.332 472.131 349.064C472.34 348.795 472.63 348.561 473.001 348.361C473.371 348.156 473.862 348.054 474.471 348.054C475.263 348.054 475.971 348.254 476.593 348.655C477.215 349.055 477.703 349.633 478.057 350.387C478.415 351.141 478.594 352.049 478.594 353.11C478.594 354.171 478.417 355.081 478.063 355.839C477.71 356.594 477.224 357.175 476.606 357.585C475.988 357.989 475.283 358.192 474.49 358.192C473.893 358.192 473.406 358.092 473.026 357.891C472.651 357.691 472.357 357.457 472.144 357.188C471.931 356.92 471.767 356.681 471.652 356.472H471.492V358H469.626ZM471.499 353.091C471.499 353.781 471.599 354.386 471.799 354.906C471.999 355.426 472.289 355.833 472.668 356.127C473.048 356.417 473.512 356.562 474.062 356.562C474.633 356.562 475.11 356.411 475.494 356.108C475.877 355.801 476.167 355.386 476.363 354.862C476.563 354.337 476.663 353.747 476.663 353.091C476.663 352.443 476.565 351.862 476.369 351.346C476.178 350.83 475.888 350.423 475.5 350.125C475.116 349.827 474.637 349.678 474.062 349.678C473.508 349.678 473.039 349.82 472.656 350.106C472.276 350.391 471.989 350.79 471.793 351.301C471.597 351.812 471.499 352.409 471.499 353.091ZM482.651 344.909V358H480.74V344.909H482.651ZM489.454 358.198C488.487 358.198 487.653 357.991 486.955 357.578C486.26 357.161 485.723 356.575 485.344 355.82C484.969 355.062 484.781 354.173 484.781 353.155C484.781 352.149 484.969 351.263 485.344 350.496C485.723 349.729 486.251 349.13 486.929 348.7C487.611 348.269 488.408 348.054 489.32 348.054C489.874 348.054 490.411 348.146 490.93 348.329C491.45 348.512 491.917 348.8 492.33 349.192C492.744 349.584 493.07 350.093 493.308 350.719C493.547 351.342 493.666 352.098 493.666 352.989V353.666H485.862V352.234H491.793C491.793 351.732 491.691 351.286 491.487 350.898C491.282 350.506 490.994 350.197 490.624 349.972C490.257 349.746 489.827 349.633 489.332 349.633C488.795 349.633 488.327 349.765 487.926 350.029C487.53 350.289 487.223 350.63 487.006 351.052C486.793 351.469 486.686 351.923 486.686 352.413V353.532C486.686 354.188 486.801 354.746 487.031 355.207C487.266 355.667 487.592 356.018 488.009 356.261C488.427 356.5 488.915 356.619 489.473 356.619C489.835 356.619 490.165 356.568 490.464 356.466C490.762 356.359 491.02 356.202 491.237 355.993C491.455 355.784 491.621 355.526 491.736 355.219L493.545 355.545C493.4 356.078 493.14 356.545 492.765 356.945C492.394 357.342 491.928 357.651 491.365 357.872C490.807 358.089 490.17 358.198 489.454 358.198ZM390.722 381V371.182H392.557V372.78H392.678C392.883 372.239 393.217 371.817 393.682 371.514C394.146 371.207 394.702 371.054 395.35 371.054C396.006 371.054 396.556 371.207 396.999 371.514C397.447 371.821 397.777 372.243 397.99 372.78H398.092C398.327 372.256 398.7 371.838 399.211 371.527C399.722 371.212 400.332 371.054 401.039 371.054C401.93 371.054 402.656 371.333 403.219 371.891C403.786 372.45 404.069 373.291 404.069 374.416V381H402.158V374.595C402.158 373.93 401.977 373.449 401.614 373.151C401.252 372.852 400.82 372.703 400.317 372.703C399.695 372.703 399.211 372.895 398.866 373.278C398.521 373.658 398.348 374.146 398.348 374.742V381H396.443V374.474C396.443 373.941 396.277 373.513 395.945 373.189C395.612 372.865 395.18 372.703 394.647 372.703C394.285 372.703 393.95 372.799 393.643 372.991C393.341 373.178 393.096 373.44 392.908 373.777C392.725 374.114 392.634 374.504 392.634 374.947V381H390.722ZM410.862 381.198C409.895 381.198 409.062 380.991 408.363 380.578C407.668 380.161 407.131 379.575 406.752 378.82C406.377 378.062 406.189 377.173 406.189 376.155C406.189 375.149 406.377 374.263 406.752 373.496C407.131 372.729 407.66 372.13 408.337 371.7C409.019 371.269 409.816 371.054 410.728 371.054C411.282 371.054 411.819 371.146 412.339 371.329C412.858 371.512 413.325 371.8 413.738 372.192C414.152 372.584 414.478 373.093 414.716 373.719C414.955 374.342 415.074 375.098 415.074 375.989V376.666H407.27V375.234H413.202C413.202 374.732 413.099 374.286 412.895 373.898C412.69 373.506 412.403 373.197 412.032 372.972C411.665 372.746 411.235 372.633 410.741 372.633C410.204 372.633 409.735 372.765 409.334 373.029C408.938 373.289 408.631 373.63 408.414 374.052C408.201 374.469 408.094 374.923 408.094 375.413V376.532C408.094 377.188 408.209 377.746 408.439 378.207C408.674 378.667 409 379.018 409.417 379.261C409.835 379.5 410.323 379.619 410.881 379.619C411.243 379.619 411.574 379.568 411.872 379.466C412.17 379.359 412.428 379.202 412.645 378.993C412.863 378.784 413.029 378.526 413.144 378.219L414.953 378.545C414.808 379.078 414.548 379.545 414.173 379.945C413.802 380.342 413.336 380.651 412.773 380.872C412.215 381.089 411.578 381.198 410.862 381.198ZM420.052 381.217C419.43 381.217 418.868 381.102 418.365 380.872C417.862 380.638 417.463 380.299 417.169 379.856C416.88 379.413 416.735 378.869 416.735 378.226C416.735 377.672 416.841 377.216 417.054 376.858C417.267 376.5 417.555 376.217 417.917 376.008C418.279 375.799 418.684 375.641 419.132 375.535C419.579 375.428 420.035 375.347 420.5 375.292C421.088 375.224 421.565 375.168 421.931 375.126C422.298 375.079 422.564 375.004 422.73 374.902C422.897 374.8 422.98 374.634 422.98 374.403V374.359C422.98 373.8 422.822 373.368 422.507 373.061C422.196 372.754 421.731 372.601 421.113 372.601C420.47 372.601 419.963 372.744 419.592 373.029C419.225 373.31 418.972 373.624 418.831 373.969L417.035 373.56C417.248 372.963 417.559 372.482 417.968 372.115C418.382 371.744 418.857 371.476 419.394 371.31C419.931 371.139 420.495 371.054 421.088 371.054C421.48 371.054 421.895 371.101 422.334 371.195C422.777 371.284 423.191 371.45 423.574 371.693C423.962 371.936 424.279 372.283 424.527 372.735C424.774 373.183 424.897 373.764 424.897 374.48V381H423.031V379.658H422.954C422.831 379.905 422.645 380.148 422.398 380.386C422.151 380.625 421.833 380.823 421.446 380.981C421.058 381.138 420.593 381.217 420.052 381.217ZM420.468 379.683C420.996 379.683 421.448 379.579 421.823 379.37C422.202 379.161 422.49 378.888 422.686 378.552C422.886 378.211 422.986 377.847 422.986 377.459V376.193C422.918 376.261 422.786 376.325 422.59 376.385C422.398 376.44 422.179 376.489 421.931 376.532C421.684 376.57 421.444 376.607 421.209 376.641C420.975 376.67 420.779 376.696 420.621 376.717C420.25 376.764 419.912 376.843 419.605 376.954C419.302 377.065 419.059 377.224 418.876 377.433C418.697 377.638 418.608 377.911 418.608 378.251C418.608 378.724 418.782 379.082 419.132 379.325C419.481 379.564 419.926 379.683 420.468 379.683ZM434.8 373.579L433.068 373.886C432.996 373.664 432.881 373.453 432.723 373.253C432.569 373.053 432.361 372.888 432.096 372.761C431.832 372.633 431.502 372.569 431.106 372.569C430.564 372.569 430.113 372.69 429.751 372.933C429.388 373.172 429.207 373.481 429.207 373.86C429.207 374.188 429.329 374.452 429.572 374.653C429.814 374.853 430.206 375.017 430.748 375.145L432.307 375.503C433.211 375.712 433.884 376.033 434.327 376.468C434.77 376.903 434.992 377.467 434.992 378.162C434.992 378.75 434.822 379.274 434.481 379.734C434.144 380.19 433.673 380.548 433.068 380.808C432.467 381.068 431.77 381.198 430.978 381.198C429.878 381.198 428.981 380.964 428.287 380.495C427.592 380.022 427.166 379.351 427.008 378.482L428.856 378.2C428.971 378.682 429.207 379.046 429.565 379.293C429.923 379.536 430.39 379.658 430.965 379.658C431.591 379.658 432.092 379.528 432.467 379.268C432.842 379.004 433.03 378.682 433.03 378.303C433.03 377.996 432.915 377.738 432.684 377.529C432.459 377.32 432.111 377.163 431.643 377.056L429.981 376.692C429.064 376.483 428.387 376.151 427.948 375.695C427.513 375.239 427.296 374.661 427.296 373.962C427.296 373.383 427.458 372.876 427.782 372.441C428.106 372.006 428.553 371.668 429.124 371.425C429.695 371.178 430.349 371.054 431.086 371.054C432.148 371.054 432.983 371.284 433.592 371.744C434.202 372.2 434.604 372.812 434.8 373.579ZM443.313 376.928V371.182H445.23V381H443.351V379.3H443.249C443.023 379.824 442.661 380.261 442.162 380.61C441.668 380.955 441.052 381.128 440.315 381.128C439.684 381.128 439.126 380.989 438.64 380.712C438.159 380.431 437.779 380.016 437.502 379.466C437.23 378.916 437.093 378.237 437.093 377.427V371.182H439.005V377.197C439.005 377.866 439.19 378.398 439.561 378.795C439.931 379.191 440.413 379.389 441.005 379.389C441.363 379.389 441.719 379.3 442.073 379.121C442.431 378.942 442.727 378.671 442.961 378.309C443.2 377.947 443.317 377.487 443.313 376.928ZM447.798 381V371.182H449.646V372.741H449.748C449.927 372.213 450.242 371.798 450.694 371.495C451.15 371.188 451.666 371.035 452.241 371.035C452.36 371.035 452.501 371.039 452.663 371.048C452.829 371.056 452.959 371.067 453.053 371.08V372.908C452.976 372.886 452.84 372.863 452.644 372.837C452.448 372.808 452.252 372.793 452.056 372.793C451.604 372.793 451.201 372.888 450.847 373.08C450.498 373.268 450.221 373.53 450.017 373.866C449.812 374.199 449.71 374.578 449.71 375.004V381H447.798ZM458.587 381.198C457.619 381.198 456.786 380.991 456.087 380.578C455.393 380.161 454.856 379.575 454.477 378.82C454.102 378.062 453.914 377.173 453.914 376.155C453.914 375.149 454.102 374.263 454.477 373.496C454.856 372.729 455.384 372.13 456.062 371.7C456.744 371.269 457.54 371.054 458.452 371.054C459.006 371.054 459.543 371.146 460.063 371.329C460.583 371.512 461.05 371.8 461.463 372.192C461.876 372.584 462.202 373.093 462.441 373.719C462.68 374.342 462.799 375.098 462.799 375.989V376.666H454.994V375.234H460.926C460.926 374.732 460.824 374.286 460.619 373.898C460.415 373.506 460.127 373.197 459.756 372.972C459.39 372.746 458.96 372.633 458.465 372.633C457.928 372.633 457.46 372.765 457.059 373.029C456.663 373.289 456.356 373.63 456.138 374.052C455.925 374.469 455.819 374.923 455.819 375.413V376.532C455.819 377.188 455.934 377.746 456.164 378.207C456.398 378.667 456.724 379.018 457.142 379.261C457.56 379.5 458.048 379.619 458.606 379.619C458.968 379.619 459.298 379.568 459.597 379.466C459.895 379.359 460.153 379.202 460.37 378.993C460.587 378.784 460.754 378.526 460.869 378.219L462.678 378.545C462.533 379.078 462.273 379.545 461.898 379.945C461.527 380.342 461.06 380.651 460.498 380.872C459.94 381.089 459.303 381.198 458.587 381.198ZM464.92 381V371.182H466.754V372.78H466.876C467.08 372.239 467.415 371.817 467.879 371.514C468.344 371.207 468.9 371.054 469.547 371.054C470.204 371.054 470.753 371.207 471.197 371.514C471.644 371.821 471.974 372.243 472.187 372.78H472.29C472.524 372.256 472.897 371.838 473.408 371.527C473.92 371.212 474.529 371.054 475.236 371.054C476.127 371.054 476.854 371.333 477.416 371.891C477.983 372.45 478.266 373.291 478.266 374.416V381H476.355V374.595C476.355 373.93 476.174 373.449 475.812 373.151C475.449 372.852 475.017 372.703 474.514 372.703C473.892 372.703 473.408 372.895 473.063 373.278C472.718 373.658 472.545 374.146 472.545 374.742V381H470.64V374.474C470.64 373.941 470.474 373.513 470.142 373.189C469.809 372.865 469.377 372.703 468.844 372.703C468.482 372.703 468.148 372.799 467.841 372.991C467.538 373.178 467.293 373.44 467.106 373.777C466.922 374.114 466.831 374.504 466.831 374.947V381H464.92ZM485.059 381.198C484.092 381.198 483.259 380.991 482.56 380.578C481.865 380.161 481.328 379.575 480.949 378.82C480.574 378.062 480.387 377.173 480.387 376.155C480.387 375.149 480.574 374.263 480.949 373.496C481.328 372.729 481.857 372.13 482.534 371.7C483.216 371.269 484.013 371.054 484.925 371.054C485.479 371.054 486.016 371.146 486.536 371.329C487.056 371.512 487.522 371.8 487.936 372.192C488.349 372.584 488.675 373.093 488.914 373.719C489.152 374.342 489.272 375.098 489.272 375.989V376.666H481.467V375.234H487.399C487.399 374.732 487.297 374.286 487.092 373.898C486.887 373.506 486.6 373.197 486.229 372.972C485.863 372.746 485.432 372.633 484.938 372.633C484.401 372.633 483.932 372.765 483.532 373.029C483.135 373.289 482.828 373.63 482.611 374.052C482.398 374.469 482.292 374.923 482.292 375.413V376.532C482.292 377.188 482.407 377.746 482.637 378.207C482.871 378.667 483.197 379.018 483.615 379.261C484.032 379.5 484.52 379.619 485.078 379.619C485.441 379.619 485.771 379.568 486.069 379.466C486.368 379.359 486.625 379.202 486.843 378.993C487.06 378.784 487.226 378.526 487.341 378.219L489.15 378.545C489.005 379.078 488.745 379.545 488.37 379.945C488 380.342 487.533 380.651 486.971 380.872C486.412 381.089 485.775 381.198 485.059 381.198ZM493.303 375.17V381H491.392V371.182H493.227V372.78H493.348C493.574 372.26 493.928 371.842 494.409 371.527C494.895 371.212 495.507 371.054 496.244 371.054C496.913 371.054 497.499 371.195 498.002 371.476C498.504 371.753 498.894 372.166 499.171 372.716C499.448 373.266 499.587 373.945 499.587 374.755V381H497.676V374.985C497.676 374.273 497.49 373.717 497.119 373.317C496.749 372.912 496.24 372.71 495.592 372.71C495.149 372.71 494.754 372.805 494.409 372.997C494.068 373.189 493.798 373.47 493.597 373.841C493.401 374.207 493.303 374.651 493.303 375.17ZM506.733 371.182V372.716H501.37V371.182H506.733ZM502.808 368.83H504.72V378.117C504.72 378.488 504.775 378.767 504.886 378.955C504.997 379.138 505.139 379.263 505.314 379.332C505.493 379.396 505.687 379.428 505.896 379.428C506.049 379.428 506.183 379.417 506.298 379.396C506.414 379.374 506.503 379.357 506.567 379.344L506.912 380.923C506.801 380.966 506.644 381.009 506.439 381.051C506.235 381.098 505.979 381.124 505.672 381.128C505.169 381.136 504.7 381.047 504.266 380.859C503.831 380.672 503.48 380.382 503.211 379.99C502.943 379.598 502.808 379.106 502.808 378.513V368.83Z" fill="#D9D9D9"/>
<path d="M179.957 358H177.861L182.571 344.909H184.853L189.564 358H187.468L183.767 347.287H183.665L179.957 358ZM180.309 352.874H187.11V354.536H180.309V352.874ZM197.521 353.928V348.182H199.438V358H197.559V356.3H197.457C197.231 356.824 196.869 357.261 196.37 357.61C195.876 357.955 195.26 358.128 194.523 358.128C193.892 358.128 193.334 357.989 192.848 357.712C192.367 357.431 191.987 357.016 191.71 356.466C191.438 355.916 191.301 355.237 191.301 354.427V348.182H193.213V354.197C193.213 354.866 193.398 355.398 193.769 355.795C194.139 356.191 194.621 356.389 195.213 356.389C195.571 356.389 195.927 356.3 196.281 356.121C196.639 355.942 196.935 355.671 197.169 355.309C197.408 354.947 197.525 354.487 197.521 353.928ZM206.59 348.182V349.716H201.227V348.182H206.59ZM202.665 345.83H204.576V355.117C204.576 355.488 204.631 355.767 204.742 355.955C204.853 356.138 204.996 356.263 205.171 356.332C205.35 356.396 205.543 356.428 205.752 356.428C205.906 356.428 206.04 356.417 206.155 356.396C206.27 356.374 206.359 356.357 206.423 356.344L206.769 357.923C206.658 357.966 206.5 358.009 206.296 358.051C206.091 358.098 205.835 358.124 205.528 358.128C205.026 358.136 204.557 358.047 204.122 357.859C203.688 357.672 203.336 357.382 203.068 356.99C202.799 356.598 202.665 356.106 202.665 355.513V345.83ZM212.734 358.198C211.813 358.198 211.01 357.987 210.324 357.565C209.638 357.143 209.105 356.553 208.726 355.795C208.347 355.036 208.157 354.15 208.157 353.136C208.157 352.117 208.347 351.227 208.726 350.464C209.105 349.701 209.638 349.109 210.324 348.687C211.01 348.265 211.813 348.054 212.734 348.054C213.654 348.054 214.458 348.265 215.144 348.687C215.83 349.109 216.362 349.701 216.742 350.464C217.121 351.227 217.311 352.117 217.311 353.136C217.311 354.15 217.121 355.036 216.742 355.795C216.362 356.553 215.83 357.143 215.144 357.565C214.458 357.987 213.654 358.198 212.734 358.198ZM212.74 356.594C213.337 356.594 213.831 356.436 214.223 356.121C214.615 355.805 214.905 355.386 215.093 354.862C215.284 354.337 215.38 353.76 215.38 353.129C215.38 352.503 215.284 351.928 215.093 351.403C214.905 350.875 214.615 350.451 214.223 350.131C213.831 349.812 213.337 349.652 212.74 349.652C212.139 349.652 211.641 349.812 211.245 350.131C210.853 350.451 210.561 350.875 210.369 351.403C210.181 351.928 210.088 352.503 210.088 353.129C210.088 353.76 210.181 354.337 210.369 354.862C210.561 355.386 210.853 355.805 211.245 356.121C211.641 356.436 212.139 356.594 212.74 356.594ZM219.444 358V348.182H221.278V349.78H221.4C221.604 349.239 221.939 348.817 222.403 348.514C222.868 348.207 223.424 348.054 224.072 348.054C224.728 348.054 225.278 348.207 225.721 348.514C226.168 348.821 226.499 349.243 226.712 349.78H226.814C227.048 349.256 227.421 348.838 227.933 348.527C228.444 348.212 229.053 348.054 229.761 348.054C230.651 348.054 231.378 348.333 231.94 348.891C232.507 349.45 232.791 350.291 232.791 351.416V358H230.879V351.595C230.879 350.93 230.698 350.449 230.336 350.151C229.974 349.852 229.541 349.703 229.038 349.703C228.416 349.703 227.933 349.895 227.587 350.278C227.242 350.658 227.07 351.146 227.07 351.742V358H225.165V351.474C225.165 350.941 224.999 350.513 224.666 350.189C224.334 349.865 223.901 349.703 223.369 349.703C223.006 349.703 222.672 349.799 222.365 349.991C222.063 350.178 221.818 350.44 221.63 350.777C221.447 351.114 221.355 351.504 221.355 351.947V358H219.444ZM238.209 358.217C237.587 358.217 237.025 358.102 236.522 357.872C236.019 357.638 235.621 357.299 235.327 356.856C235.037 356.413 234.892 355.869 234.892 355.226C234.892 354.672 234.998 354.216 235.212 353.858C235.425 353.5 235.712 353.217 236.074 353.008C236.437 352.799 236.842 352.641 237.289 352.535C237.736 352.428 238.192 352.347 238.657 352.292C239.245 352.224 239.722 352.168 240.089 352.126C240.455 352.079 240.722 352.004 240.888 351.902C241.054 351.8 241.137 351.634 241.137 351.403V351.359C241.137 350.8 240.979 350.368 240.664 350.061C240.353 349.754 239.888 349.601 239.271 349.601C238.627 349.601 238.12 349.744 237.749 350.029C237.383 350.31 237.129 350.624 236.989 350.969L235.192 350.56C235.405 349.963 235.717 349.482 236.126 349.115C236.539 348.744 237.014 348.476 237.551 348.31C238.088 348.139 238.653 348.054 239.245 348.054C239.637 348.054 240.052 348.101 240.491 348.195C240.935 348.284 241.348 348.45 241.731 348.693C242.119 348.936 242.437 349.283 242.684 349.735C242.931 350.183 243.055 350.764 243.055 351.48V358H241.188V356.658H241.111C240.988 356.905 240.802 357.148 240.555 357.386C240.308 357.625 239.991 357.823 239.603 357.981C239.215 358.138 238.751 358.217 238.209 358.217ZM238.625 356.683C239.153 356.683 239.605 356.579 239.98 356.37C240.359 356.161 240.647 355.888 240.843 355.552C241.043 355.211 241.143 354.847 241.143 354.459V353.193C241.075 353.261 240.943 353.325 240.747 353.385C240.555 353.44 240.336 353.489 240.089 353.532C239.842 353.57 239.601 353.607 239.366 353.641C239.132 353.67 238.936 353.696 238.778 353.717C238.408 353.764 238.069 353.843 237.762 353.954C237.459 354.065 237.217 354.224 237.033 354.433C236.854 354.638 236.765 354.911 236.765 355.251C236.765 355.724 236.94 356.082 237.289 356.325C237.638 356.564 238.084 356.683 238.625 356.683ZM250.183 348.182V349.716H244.82V348.182H250.183ZM246.259 345.83H248.17V355.117C248.17 355.488 248.225 355.767 248.336 355.955C248.447 356.138 248.59 356.263 248.764 356.332C248.943 356.396 249.137 356.428 249.346 356.428C249.499 356.428 249.634 356.417 249.749 356.396C249.864 356.374 249.953 356.357 250.017 356.344L250.362 357.923C250.252 357.966 250.094 358.009 249.889 358.051C249.685 358.098 249.429 358.124 249.122 358.128C248.619 358.136 248.151 358.047 247.716 357.859C247.281 357.672 246.93 357.382 246.661 356.99C246.393 356.598 246.259 356.106 246.259 355.513V345.83ZM252.297 358V348.182H254.209V358H252.297ZM253.263 346.667C252.93 346.667 252.645 346.556 252.406 346.335C252.172 346.109 252.055 345.84 252.055 345.529C252.055 345.214 252.172 344.945 252.406 344.724C252.645 344.498 252.93 344.385 253.263 344.385C253.595 344.385 253.878 344.498 254.113 344.724C254.351 344.945 254.471 345.214 254.471 345.529C254.471 345.84 254.351 346.109 254.113 346.335C253.878 346.556 253.595 346.667 253.263 346.667ZM260.916 358.198C259.995 358.198 259.192 357.987 258.506 357.565C257.82 357.143 257.287 356.553 256.908 355.795C256.528 355.036 256.339 354.15 256.339 353.136C256.339 352.117 256.528 351.227 256.908 350.464C257.287 349.701 257.82 349.109 258.506 348.687C259.192 348.265 259.995 348.054 260.916 348.054C261.836 348.054 262.639 348.265 263.325 348.687C264.011 349.109 264.544 349.701 264.923 350.464C265.303 351.227 265.492 352.117 265.492 353.136C265.492 354.15 265.303 355.036 264.923 355.795C264.544 356.553 264.011 357.143 263.325 357.565C262.639 357.987 261.836 358.198 260.916 358.198ZM260.922 356.594C261.519 356.594 262.013 356.436 262.405 356.121C262.797 355.805 263.087 355.386 263.274 354.862C263.466 354.337 263.562 353.76 263.562 353.129C263.562 352.503 263.466 351.928 263.274 351.403C263.087 350.875 262.797 350.451 262.405 350.131C262.013 349.812 261.519 349.652 260.922 349.652C260.321 349.652 259.823 349.812 259.426 350.131C259.034 350.451 258.742 350.875 258.551 351.403C258.363 351.928 258.269 352.503 258.269 353.129C258.269 353.76 258.363 354.337 258.551 354.862C258.742 355.386 259.034 355.805 259.426 356.121C259.823 356.436 260.321 356.594 260.922 356.594ZM269.537 352.17V358H267.626V348.182H269.46V349.78H269.582C269.807 349.26 270.161 348.842 270.643 348.527C271.128 348.212 271.74 348.054 272.477 348.054C273.146 348.054 273.732 348.195 274.235 348.476C274.738 348.753 275.128 349.166 275.405 349.716C275.682 350.266 275.82 350.945 275.82 351.755V358H273.909V351.985C273.909 351.273 273.724 350.717 273.353 350.317C272.982 349.912 272.473 349.71 271.825 349.71C271.382 349.71 270.988 349.805 270.643 349.997C270.302 350.189 270.031 350.47 269.831 350.841C269.635 351.207 269.537 351.651 269.537 352.17ZM286.957 358.185C286.079 358.185 285.323 358.026 284.688 357.706C284.057 357.386 283.571 356.952 283.23 356.402C282.889 355.848 282.719 355.222 282.719 354.523C282.719 353.99 282.83 353.517 283.051 353.104C283.273 352.686 283.582 352.3 283.978 351.947C284.374 351.593 284.832 351.237 285.352 350.879L287.462 349.39C287.82 349.156 288.099 348.908 288.299 348.648C288.499 348.384 288.6 348.058 288.6 347.67C288.6 347.364 288.467 347.07 288.203 346.788C287.939 346.507 287.585 346.366 287.142 346.366C286.835 346.366 286.565 346.441 286.33 346.59C286.1 346.739 285.919 346.931 285.787 347.165C285.659 347.396 285.595 347.638 285.595 347.894C285.595 348.192 285.676 348.493 285.838 348.795C286.004 349.098 286.217 349.411 286.477 349.735C286.737 350.055 287.01 350.387 287.296 350.732L293.374 358H291.214L286.183 352.087C285.761 351.589 285.369 351.12 285.007 350.681C284.645 350.238 284.351 349.79 284.125 349.339C283.903 348.883 283.793 348.391 283.793 347.862C283.793 347.261 283.929 346.729 284.202 346.264C284.479 345.795 284.864 345.429 285.359 345.165C285.853 344.901 286.433 344.768 287.097 344.768C287.771 344.768 288.348 344.901 288.83 345.165C289.315 345.425 289.688 345.772 289.948 346.207C290.212 346.637 290.345 347.108 290.345 347.619C290.345 348.241 290.189 348.791 289.878 349.268C289.571 349.741 289.147 350.176 288.606 350.572L285.979 352.509C285.467 352.884 285.112 353.255 284.911 353.621C284.715 353.984 284.617 354.267 284.617 354.472C284.617 354.847 284.713 355.194 284.905 355.513C285.101 355.833 285.374 356.089 285.723 356.281C286.077 356.472 286.49 356.568 286.963 356.568C287.449 356.568 287.922 356.464 288.382 356.255C288.847 356.042 289.266 355.737 289.641 355.341C290.021 354.945 290.321 354.469 290.543 353.915C290.764 353.362 290.875 352.741 290.875 352.055H292.601C292.601 352.899 292.505 353.613 292.313 354.197C292.122 354.776 291.889 355.249 291.617 355.616C291.348 355.978 291.095 356.261 290.856 356.466C290.779 356.534 290.707 356.602 290.639 356.67C290.57 356.739 290.498 356.807 290.421 356.875C289.978 357.322 289.441 357.653 288.81 357.866C288.184 358.079 287.566 358.185 286.957 358.185ZM170.805 381V371.182H172.717V381H170.805ZM171.771 369.667C171.438 369.667 171.153 369.556 170.914 369.335C170.68 369.109 170.562 368.84 170.562 368.529C170.562 368.214 170.68 367.945 170.914 367.724C171.153 367.498 171.438 367.385 171.771 367.385C172.103 367.385 172.386 367.498 172.621 367.724C172.859 367.945 172.979 368.214 172.979 368.529C172.979 368.84 172.859 369.109 172.621 369.335C172.386 369.556 172.103 369.667 171.771 369.667ZM177.199 375.17V381H175.288V371.182H177.122V372.78H177.244C177.47 372.26 177.823 371.842 178.305 371.527C178.791 371.212 179.402 371.054 180.139 371.054C180.808 371.054 181.394 371.195 181.897 371.476C182.4 371.753 182.79 372.166 183.067 372.716C183.344 373.266 183.482 373.945 183.482 374.755V381H181.571V374.985C181.571 374.273 181.386 373.717 181.015 373.317C180.644 372.912 180.135 372.71 179.487 372.71C179.044 372.71 178.65 372.805 178.305 372.997C177.964 373.189 177.693 373.47 177.493 373.841C177.297 374.207 177.199 374.651 177.199 375.17ZM190.629 371.182V372.716H185.266V371.182H190.629ZM186.704 368.83H188.615V378.117C188.615 378.488 188.671 378.767 188.781 378.955C188.892 379.138 189.035 379.263 189.21 379.332C189.389 379.396 189.582 379.428 189.791 379.428C189.945 379.428 190.079 379.417 190.194 379.396C190.309 379.374 190.399 379.357 190.462 379.344L190.808 380.923C190.697 380.966 190.539 381.009 190.335 381.051C190.13 381.098 189.874 381.124 189.568 381.128C189.065 381.136 188.596 381.047 188.161 380.859C187.727 380.672 187.375 380.382 187.107 379.99C186.838 379.598 186.704 379.106 186.704 378.513V368.83ZM196.869 381.198C195.902 381.198 195.068 380.991 194.37 380.578C193.675 380.161 193.138 379.575 192.759 378.82C192.384 378.062 192.196 377.173 192.196 376.155C192.196 375.149 192.384 374.263 192.759 373.496C193.138 372.729 193.666 372.13 194.344 371.7C195.026 371.269 195.823 371.054 196.735 371.054C197.289 371.054 197.826 371.146 198.345 371.329C198.865 371.512 199.332 371.8 199.745 372.192C200.159 372.584 200.485 373.093 200.723 373.719C200.962 374.342 201.081 375.098 201.081 375.989V376.666H193.277V375.234H199.208C199.208 374.732 199.106 374.286 198.902 373.898C198.697 373.506 198.409 373.197 198.039 372.972C197.672 372.746 197.242 372.633 196.747 372.633C196.21 372.633 195.742 372.765 195.341 373.029C194.945 373.289 194.638 373.63 194.421 374.052C194.208 374.469 194.101 374.923 194.101 375.413V376.532C194.101 377.188 194.216 377.746 194.446 378.207C194.681 378.667 195.007 379.018 195.424 379.261C195.842 379.5 196.33 379.619 196.888 379.619C197.25 379.619 197.581 379.568 197.879 379.466C198.177 379.359 198.435 379.202 198.652 378.993C198.87 378.784 199.036 378.526 199.151 378.219L200.96 378.545C200.815 379.078 200.555 379.545 200.18 379.945C199.809 380.342 199.343 380.651 198.78 380.872C198.222 381.089 197.585 381.198 196.869 381.198ZM207.318 384.886C206.538 384.886 205.867 384.784 205.305 384.58C204.747 384.375 204.291 384.104 203.937 383.768C203.583 383.431 203.319 383.063 203.144 382.662L204.787 381.984C204.902 382.172 205.055 382.37 205.247 382.579C205.443 382.792 205.707 382.973 206.04 383.122C206.377 383.271 206.809 383.346 207.337 383.346C208.062 383.346 208.661 383.169 209.134 382.815C209.607 382.466 209.843 381.908 209.843 381.141V379.21H209.722C209.607 379.419 209.44 379.651 209.223 379.907C209.01 380.163 208.716 380.384 208.341 380.572C207.966 380.759 207.478 380.853 206.877 380.853C206.102 380.853 205.403 380.672 204.781 380.31C204.163 379.943 203.673 379.404 203.31 378.692C202.953 377.977 202.774 377.097 202.774 376.053C202.774 375.009 202.95 374.114 203.304 373.368C203.662 372.622 204.152 372.051 204.774 371.655C205.396 371.254 206.102 371.054 206.89 371.054C207.499 371.054 207.992 371.156 208.367 371.361C208.742 371.561 209.033 371.795 209.242 372.064C209.455 372.332 209.619 372.569 209.734 372.773H209.875V371.182H211.748V381.217C211.748 382.061 211.552 382.754 211.16 383.295C210.768 383.836 210.237 384.237 209.568 384.496C208.903 384.756 208.153 384.886 207.318 384.886ZM207.299 379.268C207.849 379.268 208.313 379.14 208.693 378.884C209.076 378.624 209.366 378.254 209.562 377.772C209.762 377.286 209.862 376.705 209.862 376.027C209.862 375.366 209.764 374.785 209.568 374.282C209.372 373.779 209.085 373.387 208.705 373.106C208.326 372.82 207.857 372.678 207.299 372.678C206.724 372.678 206.244 372.827 205.861 373.125C205.477 373.419 205.188 373.82 204.992 374.327C204.8 374.834 204.704 375.401 204.704 376.027C204.704 376.67 204.802 377.235 204.998 377.721C205.194 378.207 205.484 378.586 205.867 378.859C206.255 379.131 206.732 379.268 207.299 379.268ZM214.311 381V371.182H216.158V372.741H216.261C216.44 372.213 216.755 371.798 217.207 371.495C217.663 371.188 218.178 371.035 218.754 371.035C218.873 371.035 219.014 371.039 219.176 371.048C219.342 371.056 219.472 371.067 219.565 371.08V372.908C219.489 372.886 219.352 372.863 219.156 372.837C218.96 372.808 218.764 372.793 218.568 372.793C218.117 372.793 217.714 372.888 217.36 373.08C217.011 373.268 216.734 373.53 216.529 373.866C216.325 374.199 216.222 374.578 216.222 375.004V381H214.311ZM223.989 381.217C223.367 381.217 222.804 381.102 222.301 380.872C221.798 380.638 221.4 380.299 221.106 379.856C220.816 379.413 220.671 378.869 220.671 378.226C220.671 377.672 220.778 377.216 220.991 376.858C221.204 376.5 221.492 376.217 221.854 376.008C222.216 375.799 222.621 375.641 223.068 375.535C223.516 375.428 223.972 375.347 224.436 375.292C225.024 375.224 225.502 375.168 225.868 375.126C226.234 375.079 226.501 375.004 226.667 374.902C226.833 374.8 226.916 374.634 226.916 374.403V374.359C226.916 373.8 226.759 373.368 226.443 373.061C226.132 372.754 225.668 372.601 225.05 372.601C224.406 372.601 223.899 372.744 223.528 373.029C223.162 373.31 222.908 373.624 222.768 373.969L220.972 373.56C221.185 372.963 221.496 372.482 221.905 372.115C222.318 371.744 222.793 371.476 223.33 371.31C223.867 371.139 224.432 371.054 225.024 371.054C225.416 371.054 225.832 371.101 226.271 371.195C226.714 371.284 227.127 371.45 227.511 371.693C227.899 371.936 228.216 372.283 228.463 372.735C228.71 373.183 228.834 373.764 228.834 374.48V381H226.967V379.658H226.891C226.767 379.905 226.582 380.148 226.335 380.386C226.087 380.625 225.77 380.823 225.382 380.981C224.994 381.138 224.53 381.217 223.989 381.217ZM224.404 379.683C224.933 379.683 225.384 379.579 225.759 379.37C226.139 379.161 226.426 378.888 226.622 378.552C226.823 378.211 226.923 377.847 226.923 377.459V376.193C226.854 376.261 226.722 376.325 226.526 376.385C226.335 376.44 226.115 376.489 225.868 376.532C225.621 376.57 225.38 376.607 225.146 376.641C224.911 376.67 224.715 376.696 224.558 376.717C224.187 376.764 223.848 376.843 223.541 376.954C223.239 377.065 222.996 377.224 222.813 377.433C222.634 377.638 222.544 377.911 222.544 378.251C222.544 378.724 222.719 379.082 223.068 379.325C223.418 379.564 223.863 379.683 224.404 379.683ZM235.963 371.182V372.716H230.6V371.182H235.963ZM232.038 368.83H233.949V378.117C233.949 378.488 234.005 378.767 234.115 378.955C234.226 379.138 234.369 379.263 234.544 379.332C234.723 379.396 234.916 379.428 235.125 379.428C235.279 379.428 235.413 379.417 235.528 379.396C235.643 379.374 235.733 379.357 235.796 379.344L236.142 380.923C236.031 380.966 235.873 381.009 235.669 381.051C235.464 381.098 235.208 381.124 234.902 381.128C234.399 381.136 233.93 381.047 233.495 380.859C233.061 380.672 232.709 380.382 232.441 379.99C232.172 379.598 232.038 379.106 232.038 378.513V368.83ZM242.203 381.198C241.236 381.198 240.402 380.991 239.704 380.578C239.009 380.161 238.472 379.575 238.093 378.82C237.718 378.062 237.53 377.173 237.53 376.155C237.53 375.149 237.718 374.263 238.093 373.496C238.472 372.729 239 372.13 239.678 371.7C240.36 371.269 241.157 371.054 242.069 371.054C242.623 371.054 243.16 371.146 243.679 371.329C244.199 371.512 244.666 371.8 245.079 372.192C245.493 372.584 245.819 373.093 246.057 373.719C246.296 374.342 246.415 375.098 246.415 375.989V376.666H238.611V375.234H244.542C244.542 374.732 244.44 374.286 244.236 373.898C244.031 373.506 243.743 373.197 243.373 372.972C243.006 372.746 242.576 372.633 242.081 372.633C241.544 372.633 241.076 372.765 240.675 373.029C240.279 373.289 239.972 373.63 239.755 374.052C239.542 374.469 239.435 374.923 239.435 375.413V376.532C239.435 377.188 239.55 377.746 239.78 378.207C240.015 378.667 240.341 379.018 240.758 379.261C241.176 379.5 241.664 379.619 242.222 379.619C242.584 379.619 242.915 379.568 243.213 379.466C243.511 379.359 243.769 379.202 243.986 378.993C244.204 378.784 244.37 378.526 244.485 378.219L246.294 378.545C246.149 379.078 245.889 379.545 245.514 379.945C245.143 380.342 244.677 380.651 244.114 380.872C243.556 381.089 242.919 381.198 242.203 381.198ZM252.211 381.192C251.419 381.192 250.711 380.989 250.089 380.585C249.471 380.175 248.985 379.594 248.632 378.839C248.282 378.081 248.108 377.171 248.108 376.11C248.108 375.049 248.284 374.141 248.638 373.387C248.996 372.633 249.486 372.055 250.108 371.655C250.73 371.254 251.436 371.054 252.224 371.054C252.833 371.054 253.323 371.156 253.694 371.361C254.069 371.561 254.359 371.795 254.563 372.064C254.772 372.332 254.934 372.569 255.049 372.773H255.164V367.909H257.076V381H255.209V379.472H255.049C254.934 379.681 254.768 379.92 254.551 380.188C254.338 380.457 254.044 380.691 253.669 380.891C253.294 381.092 252.808 381.192 252.211 381.192ZM252.633 379.562C253.183 379.562 253.647 379.417 254.027 379.127C254.41 378.833 254.7 378.426 254.896 377.906C255.096 377.386 255.196 376.781 255.196 376.091C255.196 375.409 255.098 374.812 254.902 374.301C254.706 373.79 254.419 373.391 254.039 373.106C253.66 372.82 253.191 372.678 252.633 372.678C252.058 372.678 251.578 372.827 251.195 373.125C250.811 373.423 250.522 373.83 250.326 374.346C250.134 374.862 250.038 375.443 250.038 376.091C250.038 376.747 250.136 377.337 250.332 377.862C250.528 378.386 250.818 378.801 251.201 379.108C251.589 379.411 252.066 379.562 252.633 379.562ZM269.15 371.182V372.716H263.787V371.182H269.15ZM265.225 368.83H267.137V378.117C267.137 378.488 267.192 378.767 267.303 378.955C267.414 379.138 267.556 379.263 267.731 379.332C267.91 379.396 268.104 379.428 268.313 379.428C268.466 379.428 268.6 379.417 268.715 379.396C268.831 379.374 268.92 379.357 268.984 379.344L269.329 380.923C269.218 380.966 269.061 381.009 268.856 381.051C268.652 381.098 268.396 381.124 268.089 381.128C267.586 381.136 267.117 381.047 266.683 380.859C266.248 380.672 265.897 380.382 265.628 379.99C265.36 379.598 265.225 379.106 265.225 378.513V368.83ZM275.39 381.198C274.423 381.198 273.59 380.991 272.891 380.578C272.196 380.161 271.66 379.575 271.28 378.82C270.905 378.062 270.718 377.173 270.718 376.155C270.718 375.149 270.905 374.263 271.28 373.496C271.66 372.729 272.188 372.13 272.866 371.7C273.547 371.269 274.344 371.054 275.256 371.054C275.81 371.054 276.347 371.146 276.867 371.329C277.387 371.512 277.853 371.8 278.267 372.192C278.68 372.584 279.006 373.093 279.245 373.719C279.483 374.342 279.603 375.098 279.603 375.989V376.666H271.798V375.234H277.73C277.73 374.732 277.628 374.286 277.423 373.898C277.218 373.506 276.931 373.197 276.56 372.972C276.194 372.746 275.763 372.633 275.269 372.633C274.732 372.633 274.263 372.765 273.863 373.029C273.466 373.289 273.16 373.63 272.942 374.052C272.729 374.469 272.623 374.923 272.623 375.413V376.532C272.623 377.188 272.738 377.746 272.968 378.207C273.202 378.667 273.528 379.018 273.946 379.261C274.363 379.5 274.851 379.619 275.41 379.619C275.772 379.619 276.102 379.568 276.4 379.466C276.699 379.359 276.956 379.202 277.174 378.993C277.391 378.784 277.557 378.526 277.672 378.219L279.481 378.545C279.336 379.078 279.076 379.545 278.701 379.945C278.331 380.342 277.864 380.651 277.302 380.872C276.743 381.089 276.106 381.198 275.39 381.198ZM285.859 381.198C284.909 381.198 284.09 380.983 283.404 380.553C282.723 380.118 282.198 379.519 281.832 378.756C281.465 377.994 281.282 377.12 281.282 376.136C281.282 375.138 281.47 374.259 281.845 373.496C282.22 372.729 282.748 372.13 283.43 371.7C284.112 371.269 284.915 371.054 285.84 371.054C286.585 371.054 287.25 371.192 287.834 371.469C288.418 371.742 288.889 372.126 289.247 372.62C289.609 373.114 289.824 373.692 289.892 374.352H288.032C287.93 373.892 287.696 373.496 287.329 373.163C286.967 372.831 286.481 372.665 285.872 372.665C285.339 372.665 284.872 372.805 284.472 373.087C284.076 373.364 283.767 373.76 283.545 374.276C283.323 374.787 283.213 375.392 283.213 376.091C283.213 376.807 283.321 377.425 283.539 377.945C283.756 378.464 284.063 378.867 284.459 379.153C284.86 379.438 285.331 379.581 285.872 379.581C286.234 379.581 286.562 379.515 286.856 379.383C287.154 379.246 287.404 379.053 287.604 378.801C287.809 378.55 287.951 378.247 288.032 377.893H289.892C289.824 378.528 289.617 379.095 289.272 379.594C288.927 380.092 288.465 380.484 287.885 380.77C287.31 381.055 286.634 381.198 285.859 381.198ZM293.847 375.17V381H291.936V367.909H293.822V372.78H293.943C294.173 372.251 294.525 371.832 294.998 371.521C295.471 371.21 296.089 371.054 296.852 371.054C297.525 371.054 298.113 371.192 298.616 371.469C299.123 371.746 299.515 372.16 299.792 372.71C300.073 373.255 300.214 373.937 300.214 374.755V381H298.303V374.985C298.303 374.265 298.117 373.707 297.747 373.31C297.376 372.91 296.86 372.71 296.2 372.71C295.748 372.71 295.343 372.805 294.985 372.997C294.631 373.189 294.352 373.47 294.148 373.841C293.948 374.207 293.847 374.651 293.847 375.17Z" fill="#D9D9D9"/>
<path d="M221 205.211L344.677 274.491L474 205.211" stroke="white" stroke-width="3.07911"/>
<path d="M344.164 274.491V422.288" stroke="white" stroke-width="3.07911"/>
<path d="M367.159 118.609H331.263C330.398 118.609 329.568 118.953 328.956 119.565C328.344 120.177 328 121.007 328 121.873V151.242C328 152.108 328.344 152.938 328.956 153.55C329.568 154.162 330.398 154.505 331.263 154.505H367.159C368.025 154.505 368.855 154.162 369.467 153.55C370.079 152.938 370.423 152.108 370.423 151.242V121.873C370.423 121.007 370.079 120.177 369.467 119.565C368.855 118.953 368.025 118.609 367.159 118.609ZM361.449 125.136C361.933 125.136 362.406 125.279 362.808 125.548C363.211 125.817 363.524 126.2 363.71 126.647C363.895 127.094 363.943 127.586 363.849 128.061C363.755 128.536 363.521 128.972 363.179 129.314C362.837 129.656 362.401 129.889 361.926 129.984C361.451 130.078 360.959 130.03 360.512 129.845C360.065 129.659 359.682 129.346 359.414 128.943C359.145 128.541 359.001 128.067 359.001 127.583C359.001 126.934 359.259 126.312 359.718 125.853C360.177 125.394 360.799 125.136 361.449 125.136ZM361.449 136.557C361.933 136.557 362.406 136.701 362.808 136.97C363.211 137.239 363.524 137.621 363.71 138.068C363.895 138.515 363.943 139.008 363.849 139.482C363.755 139.957 363.521 140.393 363.179 140.735C362.837 141.078 362.401 141.311 361.926 141.405C361.451 141.5 360.959 141.451 360.512 141.266C360.065 141.081 359.682 140.767 359.414 140.365C359.145 139.962 359.001 139.489 359.001 139.005C359.001 138.356 359.259 137.733 359.718 137.274C360.177 136.815 360.799 136.557 361.449 136.557ZM353.29 133.294C353.774 133.294 354.248 133.438 354.65 133.707C355.053 133.976 355.366 134.358 355.552 134.805C355.737 135.252 355.785 135.744 355.691 136.219C355.596 136.694 355.363 137.13 355.021 137.472C354.679 137.814 354.243 138.048 353.768 138.142C353.293 138.236 352.801 138.188 352.354 138.003C351.907 137.817 351.524 137.504 351.255 137.101C350.986 136.699 350.843 136.226 350.843 135.742C350.843 135.092 351.101 134.47 351.56 134.011C352.019 133.552 352.641 133.294 353.29 133.294ZM348.395 125.136C348.88 125.136 349.353 125.279 349.755 125.548C350.158 125.817 350.471 126.2 350.657 126.647C350.842 127.094 350.89 127.586 350.796 128.061C350.701 128.536 350.468 128.972 350.126 129.314C349.784 129.656 349.348 129.889 348.873 129.984C348.398 130.078 347.906 130.03 347.459 129.845C347.012 129.659 346.629 129.346 346.36 128.943C346.092 128.541 345.948 128.067 345.948 127.583C345.948 126.934 346.206 126.312 346.665 125.853C347.124 125.394 347.746 125.136 348.395 125.136ZM343.501 136.557C343.985 136.557 344.458 136.701 344.86 136.97C345.263 137.239 345.576 137.621 345.762 138.068C345.947 138.515 345.995 139.008 345.901 139.482C345.807 139.957 345.573 140.393 345.231 140.735C344.889 141.078 344.453 141.311 343.978 141.405C343.503 141.5 343.011 141.451 342.564 141.266C342.117 141.081 341.734 140.767 341.466 140.365C341.197 139.962 341.053 139.489 341.053 139.005C341.053 138.356 341.311 137.733 341.77 137.274C342.229 136.815 342.851 136.557 343.501 136.557ZM363.896 149.61H334.527C334.094 149.61 333.679 149.439 333.373 149.133C333.067 148.827 332.895 148.412 332.895 147.979V125.136C332.895 124.703 333.067 124.288 333.373 123.982C333.679 123.676 334.094 123.504 334.527 123.504C334.959 123.504 335.374 123.676 335.68 123.982C335.986 124.288 336.158 124.703 336.158 125.136V146.347H363.896C364.329 146.347 364.744 146.519 365.05 146.825C365.356 147.131 365.528 147.546 365.528 147.979C365.528 148.412 365.356 148.827 365.05 149.133C364.744 149.439 364.329 149.61 363.896 149.61Z" fill="white"/>
<g clip-path="url(#clip3_4301_4833)">
<path d="M248.813 327.688H257.424C258.289 327.688 259.119 327.344 259.731 326.732C260.343 326.12 260.687 325.29 260.687 324.425V316.746C260.686 316.478 260.618 316.215 260.491 315.98C260.364 315.744 260.181 315.544 259.958 315.396C259.736 315.247 259.48 315.156 259.213 315.131C258.947 315.105 258.678 315.145 258.431 315.247C257.853 315.486 257.233 315.608 256.608 315.608C253.91 315.608 251.713 313.344 251.713 310.564C251.713 307.784 253.91 305.52 256.608 305.52C257.233 305.52 257.853 305.643 258.431 305.881C258.68 305.984 258.95 306.024 259.217 305.997C259.485 305.971 259.742 305.878 259.965 305.728C260.188 305.578 260.371 305.375 260.497 305.138C260.623 304.9 260.688 304.635 260.687 304.366V296.687C260.687 295.822 260.343 294.992 259.731 294.38C259.119 293.768 258.289 293.424 257.424 293.424H250.036C250.067 293.153 250.082 292.881 250.081 292.608C250.081 290.661 249.308 288.793 247.931 287.416C246.554 286.039 244.686 285.266 242.739 285.266C240.792 285.266 238.924 286.039 237.547 287.416C236.17 288.793 235.397 290.661 235.397 292.608C235.396 292.881 235.411 293.153 235.441 293.424H228.054C227.189 293.424 226.359 293.768 225.747 294.38C225.135 294.992 224.791 295.822 224.791 296.687V303.258C224.52 303.228 224.248 303.213 223.975 303.214C222.028 303.214 220.16 303.987 218.783 305.364C217.406 306.741 216.633 308.609 216.633 310.556C216.633 312.503 217.406 314.371 218.783 315.748C220.16 317.125 222.028 317.898 223.975 317.898C224.248 317.899 224.52 317.884 224.791 317.853V324.425C224.791 325.29 225.135 326.12 225.747 326.732C226.359 327.344 227.189 327.688 228.054 327.688H236.665" fill="white"/>
</g>
<g clip-path="url(#clip4_4301_4833)">
<path d="M427.046 306.566C427.528 302.525 429.181 298.714 431.801 295.601C432.091 295.251 432.45 294.966 432.857 294.764C433.263 294.561 433.707 294.445 434.161 294.424C434.614 294.403 435.067 294.477 435.491 294.641C435.914 294.805 436.299 295.056 436.62 295.377L442.264 301.14C442.807 301.683 443.14 302.4 443.203 303.166C443.266 303.931 443.055 304.693 442.608 305.317C442.269 305.798 442.014 306.332 441.854 306.898C441.803 307.065 441.699 307.211 441.559 307.315C441.419 307.419 441.249 307.475 441.074 307.475H427.858C427.743 307.475 427.629 307.451 427.524 307.404C427.419 307.357 427.325 307.289 427.248 307.203C427.171 307.117 427.114 307.015 427.079 306.906C427.044 306.796 427.033 306.68 427.046 306.566ZM450.02 287.908C449.569 287.869 449.115 287.923 448.687 288.069C448.258 288.214 447.865 288.447 447.531 288.753C447.198 289.059 446.932 289.431 446.749 289.845C446.567 290.259 446.473 290.706 446.473 291.159V299.454C446.467 300.223 446.736 300.97 447.232 301.559C447.727 302.148 448.416 302.541 449.176 302.668C450.605 302.904 451.916 303.609 452.9 304.672C453.885 305.734 454.488 307.095 454.615 308.538C454.741 309.981 454.384 311.426 453.599 312.644C452.814 313.861 451.646 314.783 450.279 315.264C450.12 315.323 449.983 315.429 449.885 315.568C449.788 315.706 449.736 315.872 449.736 316.041V329.345C449.736 329.461 449.759 329.575 449.806 329.681C449.853 329.786 449.922 329.881 450.007 329.958C450.093 330.035 450.195 330.093 450.305 330.128C450.415 330.163 450.531 330.174 450.646 330.161C455.736 329.533 460.429 327.087 463.859 323.274C467.289 319.461 469.227 314.537 469.316 309.409C469.469 298.336 460.993 288.891 450.02 287.908ZM445.912 315.258C445 314.933 444.172 314.409 443.488 313.724C442.803 313.038 442.28 312.21 441.956 311.297C441.9 311.136 441.796 310.995 441.657 310.895C441.518 310.795 441.352 310.74 441.181 310.739H427.856C427.741 310.738 427.627 310.762 427.521 310.808C427.416 310.855 427.321 310.923 427.244 311.009C427.167 311.095 427.109 311.196 427.074 311.306C427.039 311.415 427.027 311.532 427.04 311.646C427.612 316.36 429.747 320.747 433.105 324.105C436.463 327.463 440.849 329.598 445.563 330.169C445.678 330.182 445.794 330.171 445.904 330.136C446.014 330.1 446.115 330.042 446.201 329.965C446.286 329.888 446.355 329.794 446.401 329.688C446.448 329.583 446.472 329.469 446.471 329.353V316.041C446.471 315.869 446.418 315.7 446.317 315.56C446.217 315.42 446.076 315.314 445.912 315.258Z" fill="white"/>
</g>
<defs>
<filter id="filter0_d_4301_4833" x="509.3" y="57.3" width="148.4" height="148.4" filterUnits="userSpaceOnUse" color-interpolation-filters="sRGB">
<feFlood flood-opacity="0" result="BackgroundImageFix"/>
<feColorMatrix in="SourceAlpha" type="matrix" values="0 0 0 0 0 0 0 0 0 0 0 0 0 0 0 0 0 0 127 0" result="hardAlpha"/>
<feOffset dy="4"/>
<feGaussianBlur stdDeviation="15.85"/>
<feComposite in2="hardAlpha" operator="out"/>
<feColorMatrix type="matrix" values="0 0 0 0 0.0901961 0 0 0 0 0.0431373 0 0 0 0 0.34902 0 0 0 0.08 0"/>
<feBlend mode="normal" in2="BackgroundImageFix" result="effect1_dropShadow_4301_4833"/>
<feBlend mode="normal" in="SourceGraphic" in2="effect1_dropShadow_4301_4833" result="shape"/>
</filter>
<filter id="filter1_d_4301_4833" x="272.3" y="483.3" width="148.4" height="148.4" filterUnits="userSpaceOnUse" color-interpolation-filters="sRGB">
<feFlood flood-opacity="0" result="BackgroundImageFix"/>
<feColorMatrix in="SourceAlpha" type="matrix" values="0 0 0 0 0 0 0 0 0 0 0 0 0 0 0 0 0 0 127 0" result="hardAlpha"/>
<feOffset dy="4"/>
<feGaussianBlur stdDeviation="15.85"/>
<feComposite in2="hardAlpha" operator="out"/>
<feColorMatrix type="matrix" values="0 0 0 0 0.0901961 0 0 0 0 0.0431373 0 0 0 0 0.34902 0 0 0 0.08 0"/>
<feBlend mode="normal" in2="BackgroundImageFix" result="effect1_dropShadow_4301_4833"/>
<feBlend mode="normal" in="SourceGraphic" in2="effect1_dropShadow_4301_4833" result="shape"/>
</filter>
<filter id="filter2_d_4301_4833" x="35.3" y="51.3" width="148.4" height="148.4" filterUnits="userSpaceOnUse" color-interpolation-filters="sRGB">
<feFlood flood-opacity="0" result="BackgroundImageFix"/>
<feColorMatrix in="SourceAlpha" type="matrix" values="0 0 0 0 0 0 0 0 0 0 0 0 0 0 0 0 0 0 127 0" result="hardAlpha"/>
<feOffset dy="4"/>
<feGaussianBlur stdDeviation="15.85"/>
<feComposite in2="hardAlpha" operator="out"/>
<feColorMatrix type="matrix" values="0 0 0 0 0.0901961 0 0 0 0 0.0431373 0 0 0 0 0.34902 0 0 0 0.08 0"/>
<feBlend mode="normal" in2="BackgroundImageFix" result="effect1_dropShadow_4301_4833"/>
<feBlend mode="normal" in="SourceGraphic" in2="effect1_dropShadow_4301_4833" result="shape"/>
</filter>
<linearGradient id="paint0_linear_4301_4833" x1="180.5" y1="145" x2="584" y2="442" gradientUnits="userSpaceOnUse">
<stop stop-color="#A35AFF"/>
<stop offset="1" stop-color="#A35AFF" stop-opacity="0.07"/>
</linearGradient>
<linearGradient id="paint1_linear_4301_4833" x1="346.75" y1="1" x2="346.75" y2="415.5" gradientUnits="userSpaceOnUse">
<stop stop-color="#100852"/>
<stop offset="1" stop-color="#5921A0"/>
</linearGradient>
<clipPath id="clip0_4301_4833">
<rect width="42.2932" height="42.2932" fill="white" transform="translate(557 113.625)"/>
</clipPath>
<clipPath id="clip1_4301_4833">
<rect width="42.2932" height="42.2932" fill="white" transform="translate(321.898 536.453)"/>
</clipPath>
<clipPath id="clip2_4301_4833">
<rect width="42.2932" height="42.2932" fill="white" transform="translate(92.6055 104.453)"/>
</clipPath>
<clipPath id="clip3_4301_4833">
<rect width="52.2124" height="52.2124" fill="white" transform="translate(215 282)"/>
</clipPath>
<clipPath id="clip4_4301_4833">
<rect width="52.2124" height="52.2124" fill="white" transform="translate(422 283)"/>
</clipPath>
</defs>
</svg>
