<svg width="1440" height="710" viewBox="0 0 1440 710" fill="none" xmlns="http://www.w3.org/2000/svg">
<path d="M1581.79 -147.076C1581.79 -95.5675 1581.79 -49.3423 1581.79 1.50549C1462.94 16.6937 1345.41 31.2217 1227.89 45.7497C1162.52 54.3344 1134.13 84.7109 1133.47 150.087C1132.81 193.01 1132.81 235.273 1133.47 278.196C1134.13 344.232 1161.86 375.269 1226.57 383.854C1343.43 398.382 1460.3 412.91 1580.47 428.098C1580.47 476.304 1580.47 523.851 1580.47 577.34C1447.1 546.963 1313.06 521.209 1181.67 485.55C1099.79 463.097 1046.97 380.552 1044.99 292.724C1043.67 241.216 1043.67 189.708 1044.99 138.2C1046.97 47.0704 1103.09 -36.1353 1188.93 -58.5876C1317.68 -91.6056 1448.42 -117.359 1581.79 -147.076ZM1349.38 361.402C1349.38 316.497 1349.38 277.536 1349.38 236.594C1306.46 236.594 1264.86 236.594 1222.6 236.594C1222.6 272.253 1222.6 305.271 1222.6 342.912C1266.18 349.515 1307.78 355.459 1349.38 361.402ZM1581.13 384.514C1581.13 331.686 1581.13 285.461 1581.13 237.254C1507.84 237.254 1437.19 237.254 1363.9 237.254C1363.9 279.517 1363.9 318.479 1363.9 362.723C1439.17 369.987 1509.82 377.251 1581.13 384.514ZM1351.36 193.67C1351.36 152.067 1351.36 113.106 1351.36 70.8433C1306.46 78.1073 1263.54 85.3712 1220.62 92.6351C1220.62 127.634 1220.62 158.671 1220.62 193.01C1265.52 193.67 1308.44 193.67 1351.36 193.67ZM1580.47 193.67C1580.47 142.822 1580.47 95.2766 1580.47 44.4289C1506.52 53.674 1435.87 62.2585 1363.9 71.5035C1363.9 114.427 1363.9 152.068 1363.9 194.331C1438.51 193.67 1509.16 193.67 1580.47 193.67ZM1698 388.476L1601.6 426.777V578L1698 526.492V388.476ZM1698 356.119V231.971H1601.6V387.816L1698 356.119ZM1698 66.8809L1601.6 32.5425V196.972H1698V66.8809ZM1698 -95.5676L1601.6 -155V-1.13611L1698 37.1647V-95.5676Z" fill="#B5E0D6"/>
<path d="M-134.792 909.076C-134.792 857.568 -134.792 811.342 -134.792 760.495C-15.9431 745.306 101.586 730.778 219.114 716.25C284.481 707.666 312.873 677.289 313.533 611.913C314.193 568.99 314.193 526.727 313.533 483.804C312.873 417.768 285.141 386.731 220.435 378.146C103.566 363.618 -13.3019 349.09 -133.471 333.902C-133.471 285.696 -133.471 238.149 -133.471 184.66C-0.0964203 215.037 133.939 240.791 265.333 276.45C347.207 298.903 400.029 381.448 402.01 469.276C403.33 520.784 403.33 572.292 402.01 623.8C400.029 714.93 343.905 798.135 258.07 820.588C129.317 853.606 -1.41705 879.359 -134.792 909.076ZM97.6239 400.598C97.6239 445.503 97.6239 484.464 97.6239 525.406C140.542 525.406 182.139 525.406 224.396 525.406C224.396 489.747 224.396 456.729 224.396 419.088C180.818 412.485 139.221 406.541 97.6239 400.598ZM-134.132 377.486C-134.132 430.314 -134.132 476.539 -134.132 524.746C-60.8415 524.746 9.80759 524.746 83.0978 524.746C83.0978 482.483 83.0978 443.521 83.0978 399.277C7.82675 392.013 -62.8224 384.749 -134.132 377.486ZM95.6432 568.33C95.6432 609.933 95.6432 648.894 95.6432 691.157C140.542 683.893 183.459 676.629 226.377 669.365C226.377 634.366 226.377 603.329 226.377 568.99C181.479 568.33 138.561 568.33 95.6432 568.33ZM-133.471 568.33C-133.471 619.178 -133.471 666.723 -133.471 717.571C-59.521 708.326 11.1281 699.742 83.0978 690.496C83.0978 647.573 83.0978 609.932 83.0978 567.669C8.48703 568.33 -62.162 568.33 -133.471 568.33ZM-251 373.524L-154.6 335.223V184L-251 235.508V373.524ZM-251 405.881V530.029H-154.6V374.184L-251 405.881ZM-251 695.119L-154.6 729.458V565.028H-251V695.119ZM-251 857.568L-154.6 917V763.136L-251 724.835V857.568Z" fill="#B5E0D6"/>
</svg>
