<svg width="480" height="486" viewBox="0 0 480 486" fill="none" xmlns="http://www.w3.org/2000/svg">
<path d="M85.2902 526.184C85.2902 488.378 85.2902 454.45 85.2902 417.13C172.519 405.982 258.778 395.319 345.038 384.656C393.014 378.355 413.852 356.059 414.336 308.076C414.821 276.571 414.821 245.551 414.336 214.047C413.852 165.579 393.498 142.798 346.007 136.497C260.232 125.834 174.457 115.171 86.2595 104.023C86.2595 68.6415 86.2595 33.744 86.2595 -5.51543C184.149 16.7801 282.524 35.6829 378.96 61.8559C439.051 78.3351 477.819 138.921 479.273 203.384C480.242 241.189 480.242 278.994 479.273 316.8C477.819 383.686 436.628 444.757 373.629 461.236C279.132 485.47 183.18 504.373 85.2902 526.184ZM255.871 152.977C255.871 185.935 255.871 214.532 255.871 244.582C287.37 244.582 317.9 244.582 348.915 244.582C348.915 218.409 348.915 194.175 348.915 166.548C316.931 161.701 286.401 157.339 255.871 152.977ZM85.7748 136.013C85.7748 174.787 85.7748 208.715 85.7748 244.097C139.566 244.097 191.418 244.097 245.209 244.097C245.209 213.077 245.209 184.481 245.209 152.007C189.965 146.676 138.112 141.344 85.7748 136.013ZM254.417 276.087C254.417 306.622 254.417 335.218 254.417 366.238C287.37 360.906 318.869 355.575 350.368 350.243C350.368 324.555 350.368 301.775 350.368 276.571C317.415 276.086 285.916 276.087 254.417 276.087ZM86.2595 276.087C86.2595 313.407 86.2595 348.304 86.2595 385.625C140.535 378.84 192.388 372.539 245.209 365.753C245.209 334.249 245.209 306.622 245.209 275.602C190.449 276.086 138.597 276.087 86.2595 276.087ZM0 133.105L70.7521 104.993V-6L0 31.8053V133.105ZM0 156.854V247.975H70.7521V133.589L0 156.854ZM0 369.146L70.7521 394.349V273.663H0V369.146ZM0 488.378L70.7521 532V419.069L0 390.957V488.378Z" fill="url(#paint0_linear_4353_689)"/>
<defs>
<linearGradient id="paint0_linear_4353_689" x1="240" y1="-6" x2="240" y2="532" gradientUnits="userSpaceOnUse">
<stop stop-color="#A35AFF"/>
<stop offset="1" stop-color="#371FF7"/>
</linearGradient>
</defs>
</svg>
