<svg width="303" height="187" viewBox="0 0 303 187" fill="none" xmlns="http://www.w3.org/2000/svg">
<g clip-path="url(#clip0_4301_4260)">
<path d="M0 29.6816C0 13.2889 13.2889 0 29.6816 0H273.318C289.711 0 303 13.2889 303 29.6816V186.747H0V29.6816Z" fill="#E1F2EE"/>
<path d="M21.0234 38.3382C21.0234 28.0927 29.329 19.7871 39.5745 19.7871H263.423C273.669 19.7871 281.974 28.0927 281.974 38.3381V186.746H21.0234V38.3382Z" fill="white"/>
<g clip-path="url(#clip1_4301_4260)">
<path d="M50.3945 44.3554C50.3498 43.9369 50.1613 43.6111 49.8291 43.3779C49.5001 43.1447 49.0721 43.0281 48.545 43.0281C48.1745 43.0281 47.8567 43.084 47.5915 43.1958C47.3264 43.3076 47.1236 43.4594 46.983 43.651C46.8425 43.8427 46.7706 44.0615 46.7674 44.3075C46.7674 44.5119 46.8137 44.6892 46.9063 44.8393C47.0022 44.9894 47.1315 45.1172 47.2945 45.2226C47.4574 45.3248 47.6378 45.4111 47.8359 45.4814C48.0339 45.5516 48.2336 45.6107 48.4348 45.6587L49.3548 45.8886C49.7253 45.9749 50.0815 46.0915 50.4233 46.2384C50.7683 46.3854 51.0765 46.5706 51.348 46.7942C51.6227 47.0178 51.84 47.2878 51.9997 47.604C52.1594 47.9202 52.2392 48.2908 52.2392 48.7156C52.2392 49.2906 52.0923 49.7969 51.7984 50.2345C51.5046 50.6689 51.0797 51.0091 50.5239 51.2551C49.9713 51.4979 49.3021 51.6192 48.5163 51.6192C47.7528 51.6192 47.09 51.501 46.5278 51.2647C45.9688 51.0283 45.5312 50.6833 45.215 50.2297C44.9019 49.7761 44.7326 49.2235 44.7071 48.5719H46.4559C46.4815 48.9137 46.5869 49.1979 46.7722 49.4247C46.9575 49.6515 47.1986 49.8208 47.4957 49.9326C47.796 50.0444 48.1314 50.1003 48.5019 50.1003C48.8884 50.1003 49.227 50.0428 49.5177 49.9279C49.8116 49.8097 50.0416 49.6468 50.2077 49.4391C50.3738 49.2283 50.4584 48.9823 50.4616 48.7012C50.4584 48.4457 50.3834 48.2349 50.2364 48.0688C50.0895 47.8995 49.8834 47.7589 49.6183 47.6471C49.3564 47.5321 49.0497 47.4299 48.6984 47.3405L47.5819 47.053C46.7738 46.8453 46.1349 46.5307 45.6654 46.1091C45.199 45.6842 44.9658 45.1204 44.9658 44.4177C44.9658 43.8395 45.1223 43.3332 45.4354 42.8988C45.7516 42.4643 46.1812 42.1273 46.7243 41.8878C47.2673 41.645 47.8822 41.5236 48.569 41.5236C49.2653 41.5236 49.8755 41.645 50.3993 41.8878C50.9264 42.1273 51.34 42.4611 51.6403 42.8892C51.9406 43.314 52.0955 43.8028 52.1051 44.3554H50.3945ZM55.8652 51.6192C55.3988 51.6192 54.9788 51.5362 54.605 51.3701C54.2345 51.2008 53.9406 50.9516 53.7234 50.6226C53.5094 50.2936 53.4024 49.8879 53.4024 49.4056C53.4024 48.9903 53.479 48.6469 53.6324 48.3754C53.7857 48.1039 53.9949 47.8867 54.26 47.7238C54.5252 47.5609 54.8238 47.4379 55.1561 47.3548C55.4915 47.2686 55.838 47.2063 56.1958 47.168C56.627 47.1232 56.9768 47.0833 57.2451 47.0482C57.5135 47.0098 57.7083 46.9523 57.8297 46.8757C57.9543 46.7958 58.0166 46.6728 58.0166 46.5067V46.478C58.0166 46.117 57.9095 45.8375 57.6955 45.6395C57.4815 45.4414 57.1733 45.3424 56.7708 45.3424C56.3459 45.3424 56.0089 45.4351 55.7598 45.6203C55.5138 45.8056 55.3477 46.0244 55.2615 46.2768L53.6419 46.0468C53.7697 45.5996 53.9805 45.2258 54.2744 44.9256C54.5683 44.6221 54.9277 44.3953 55.3525 44.2452C55.7773 44.0918 56.2469 44.0152 56.7612 44.0152C57.1158 44.0152 57.4687 44.0567 57.8201 44.1398C58.1715 44.2228 58.4925 44.3602 58.7832 44.5518C59.0739 44.7403 59.3071 44.9974 59.4827 45.3232C59.6616 45.6491 59.7511 46.0563 59.7511 46.5451V51.4707H58.0836V50.4597H58.0261C57.9207 50.6641 57.7722 50.8558 57.5805 51.0347C57.3921 51.2104 57.1541 51.3525 56.8666 51.4611C56.5823 51.5665 56.2485 51.6192 55.8652 51.6192ZM56.3156 50.3447C56.6638 50.3447 56.9656 50.276 57.2212 50.1387C57.4767 49.9981 57.6732 49.8129 57.8105 49.5829C57.9511 49.3529 58.0214 49.1021 58.0214 48.8306V47.9633C57.967 48.0081 57.8744 48.0496 57.7434 48.0879C57.6157 48.1263 57.4719 48.1598 57.3122 48.1885C57.1525 48.2173 56.9944 48.2429 56.8379 48.2652C56.6813 48.2876 56.5456 48.3067 56.4306 48.3227C56.1718 48.3578 55.9403 48.4153 55.7358 48.4952C55.5314 48.5751 55.3701 48.6869 55.2519 48.8306C55.1337 48.9712 55.0746 49.1532 55.0746 49.3768C55.0746 49.6963 55.1912 49.9374 55.4244 50.1003C55.6576 50.2633 55.9546 50.3447 56.3156 50.3447ZM63.2297 41.6578V51.4707H61.4952V41.6578H63.2297ZM68.2715 51.6144C67.5336 51.6144 66.8963 51.4611 66.3597 51.1545C65.8263 50.8446 65.4158 50.407 65.1283 49.8416C64.8408 49.273 64.6971 48.6038 64.6971 47.834C64.6971 47.0769 64.8408 46.4125 65.1283 45.8407C65.419 45.2658 65.8247 44.8185 66.3453 44.4991C66.866 44.1765 67.4777 44.0152 68.1805 44.0152C68.6341 44.0152 69.0621 44.0886 69.4646 44.2356C69.8703 44.3793 70.228 44.6029 70.5379 44.9064C70.8509 45.2099 71.0969 45.5964 71.2758 46.0659C71.4546 46.5323 71.5441 47.0881 71.5441 47.7334V48.2652H65.5116V47.0961H69.8814C69.8782 46.7639 69.8064 46.4684 69.6658 46.2097C69.5253 45.9477 69.3288 45.7417 69.0765 45.5916C68.8273 45.4414 68.5366 45.3664 68.2044 45.3664C67.8498 45.3664 67.5384 45.4526 67.2701 45.6251C67.0018 45.7944 66.7925 46.018 66.6424 46.2959C66.4955 46.5706 66.4204 46.8725 66.4172 47.2015V48.2221C66.4172 48.6501 66.4955 49.0175 66.652 49.3241C66.8085 49.6276 67.0273 49.8608 67.3084 50.0237C67.5895 50.1834 67.9185 50.2633 68.2955 50.2633C68.5478 50.2633 68.7762 50.2281 68.9806 50.1578C69.1851 50.0844 69.3624 49.9774 69.5125 49.8368C69.6626 49.6963 69.776 49.5222 69.8527 49.3145L71.4722 49.4966C71.37 49.9247 71.1751 50.2984 70.8876 50.6178C70.6033 50.9341 70.2392 51.18 69.7952 51.3557C69.3512 51.5282 68.8433 51.6144 68.2715 51.6144ZM78.8283 46.0563L77.2471 46.2288C77.2024 46.0691 77.1241 45.919 77.0123 45.7784C76.9037 45.6379 76.7568 45.5245 76.5715 45.4382C76.3863 45.352 76.1595 45.3089 75.8911 45.3089C75.5302 45.3089 75.2267 45.3871 74.9808 45.5437C74.738 45.7002 74.6182 45.903 74.6214 46.1522C74.6182 46.3662 74.6965 46.5403 74.8562 46.6744C75.0191 46.8086 75.2874 46.9188 75.6611 47.0051L76.9165 47.2734C77.6129 47.4235 78.1303 47.6615 78.4689 47.9873C78.8107 48.3131 78.9832 48.7396 78.9864 49.2666C78.9832 49.7298 78.8475 50.1387 78.5791 50.4932C78.314 50.8446 77.9451 51.1193 77.4723 51.3174C76.9996 51.5154 76.4565 51.6144 75.8432 51.6144C74.9424 51.6144 74.2173 51.426 73.6679 51.0491C73.1185 50.6689 72.7911 50.1403 72.6856 49.4631L74.377 49.3002C74.4537 49.6324 74.6166 49.8831 74.8658 50.0524C75.1149 50.2217 75.4391 50.3064 75.8384 50.3064C76.2505 50.3064 76.5811 50.2217 76.8303 50.0524C77.0826 49.8831 77.2088 49.6739 77.2088 49.4247C77.2088 49.2139 77.1273 49.0398 76.9644 48.9025C76.8047 48.7651 76.5555 48.6597 76.217 48.5862L74.9616 48.3227C74.2556 48.1758 73.7334 47.9282 73.3948 47.58C73.0562 47.2287 72.8885 46.7846 72.8917 46.248C72.8885 45.7944 73.0115 45.4015 73.2606 45.0693C73.513 44.7339 73.8627 44.4752 74.3099 44.2931C74.7603 44.1078 75.2794 44.0152 75.8672 44.0152C76.7296 44.0152 77.4084 44.1989 77.9035 44.5662C78.4019 44.9335 78.7101 45.4303 78.8283 46.0563Z" fill="#459A82"/>
<path d="M51.0848 84.4159V62.4831H52.4899V84.4159H51.0848ZM55.8141 69.063C55.7113 68.1948 55.2943 67.5208 54.5632 67.041C53.8322 66.5612 52.9354 66.3214 51.873 66.3214C51.0963 66.3214 50.4166 66.447 49.834 66.6983C49.2571 66.9496 48.8059 67.2952 48.4803 67.735C48.1605 68.1748 48.0005 68.6746 48.0005 69.2343C48.0005 69.7027 48.1119 70.1053 48.3347 70.4423C48.5631 70.7736 48.8544 71.0506 49.2086 71.2734C49.5627 71.4904 49.9339 71.6703 50.3223 71.8131C50.7107 71.9502 51.0677 72.0616 51.3933 72.1473L53.1753 72.627C53.6322 72.747 54.1406 72.9126 54.7003 73.124C55.2658 73.3353 55.8055 73.6237 56.3196 73.9893C56.8394 74.3491 57.2677 74.8118 57.6047 75.3772C57.9417 75.9427 58.1102 76.6366 58.1102 77.4591C58.1102 78.4073 57.8617 79.264 57.3648 80.0294C56.8736 80.7947 56.1539 81.403 55.2058 81.8543C54.2634 82.3055 53.1182 82.5311 51.7702 82.5311C50.5137 82.5311 49.4256 82.3283 48.506 81.9228C47.5922 81.5173 46.8725 80.9518 46.347 80.2264C45.8272 79.501 45.5331 78.6586 45.4646 77.699H47.6578C47.715 78.3616 47.9377 78.9099 48.3261 79.344C48.7202 79.7723 49.2171 80.0922 49.8168 80.3035C50.4223 80.5092 51.0734 80.612 51.7702 80.612C52.5813 80.612 53.3095 80.4806 53.955 80.2179C54.6004 79.9494 55.1116 79.5782 55.4885 79.1041C55.8655 78.6243 56.054 78.0646 56.054 77.4249C56.054 76.8423 55.8912 76.3682 55.5656 76.0026C55.2401 75.6371 54.8117 75.3401 54.2805 75.1116C53.7493 74.8832 53.1753 74.6832 52.5585 74.5119L50.3994 73.895C49.0286 73.5009 47.9434 72.9383 47.1438 72.2072C46.3441 71.4761 45.9443 70.5194 45.9443 69.3371C45.9443 68.3547 46.2099 67.498 46.7411 66.7669C47.278 66.0301 47.9977 65.4589 48.9001 65.0534C49.8083 64.6421 50.8221 64.4365 51.9416 64.4365C53.0725 64.4365 54.0778 64.6393 54.9574 65.0448C55.837 65.4446 56.5338 65.9929 57.0478 66.6898C57.5676 67.3866 57.8417 68.1776 57.8703 69.063H55.8141ZM60.8839 78.6243V76.8765L68.5947 64.6764H69.8627V67.3837H69.0059L63.18 76.6024V76.7394H73.5638V78.6243H60.8839ZM69.143 82.2227V78.0931V77.2792V64.6764H71.1649V82.2227H69.143ZM82.2577 82.4625C81.2525 82.4625 80.3472 82.2626 79.5418 81.8628C78.7365 81.463 78.0911 80.9147 77.6056 80.2179C77.1201 79.521 76.8545 78.7271 76.8088 77.8361H78.865C78.945 78.63 79.3048 79.2869 79.9445 79.8066C80.5899 80.3207 81.361 80.5777 82.2577 80.5777C82.9774 80.5777 83.6171 80.4092 84.1768 80.0722C84.7423 79.7352 85.185 79.2726 85.5048 78.6843C85.8304 78.0903 85.9932 77.4191 85.9932 76.6709C85.9932 75.9055 85.8247 75.223 85.4877 74.6233C85.1564 74.0178 84.6995 73.5409 84.1169 73.1925C83.5343 72.8441 82.8689 72.667 82.1206 72.6613C81.5837 72.6556 81.0326 72.7384 80.4671 72.9098C79.9017 73.0754 79.4362 73.2896 79.0706 73.5523L77.0829 73.3124L78.1453 64.6764H87.2612V66.5612H79.9274L79.3105 71.736H79.4133C79.7731 71.4504 80.2244 71.2134 80.767 71.0249C81.3096 70.8364 81.875 70.7422 82.4633 70.7422C83.5371 70.7422 84.4938 70.9992 85.3335 71.5133C86.1788 72.0216 86.8413 72.7184 87.3211 73.6037C87.8066 74.489 88.0494 75.5 88.0494 76.6366C88.0494 77.7561 87.798 78.7557 87.2954 79.6353C86.7985 80.5092 86.1131 81.2003 85.2392 81.7086C84.3653 82.2112 83.3715 82.4625 82.2577 82.4625ZM97.0731 82.4625C95.8965 82.4625 94.857 82.2541 93.9545 81.8371C93.0578 81.4145 92.3581 80.8347 91.8555 80.0979C91.3529 79.3554 91.1044 78.5101 91.1101 77.5619C91.1044 76.8194 91.25 76.134 91.547 75.5057C91.8441 74.8717 92.2496 74.3434 92.7636 73.9207C93.2834 73.4924 93.8631 73.2211 94.5028 73.1068V73.004C93.6632 72.787 92.995 72.3158 92.498 71.5904C92.0011 70.8593 91.7555 70.0282 91.7612 69.0972C91.7555 68.2062 91.9811 67.4094 92.4381 66.7069C92.895 66.0044 93.5233 65.4503 94.3229 65.0448C95.1283 64.6393 96.045 64.4365 97.0731 64.4365C98.0898 64.4365 98.9979 64.6393 99.7976 65.0448C100.597 65.4503 101.225 66.0044 101.682 66.7069C102.145 67.4094 102.379 68.2062 102.385 69.0972C102.379 70.0282 102.125 70.8593 101.622 71.5904C101.126 72.3158 100.466 72.787 99.6433 73.004V73.1068C100.277 73.2211 100.849 73.4924 101.357 73.9207C101.865 74.3434 102.271 74.8717 102.573 75.5057C102.876 76.134 103.03 76.8194 103.036 77.5619C103.03 78.5101 102.773 79.3554 102.265 80.0979C101.762 80.8347 101.063 81.4145 100.166 81.8371C99.2749 82.2541 98.244 82.4625 97.0731 82.4625ZM97.0731 80.5777C97.867 80.5777 98.5524 80.4492 99.1293 80.1922C99.7062 79.9351 100.152 79.5724 100.466 79.1041C100.78 78.6357 100.94 78.0874 100.946 77.4591C100.94 76.7966 100.769 76.2111 100.432 75.7028C100.095 75.1944 99.6348 74.7946 99.0522 74.5033C98.4753 74.212 97.8156 74.0664 97.0731 74.0664C96.3249 74.0664 95.6566 74.212 95.0683 74.5033C94.4857 74.7946 94.0259 75.1944 93.6889 75.7028C93.3576 76.2111 93.1949 76.7966 93.2006 77.4591C93.1949 78.0874 93.3462 78.6357 93.6547 79.1041C93.9688 79.5724 94.4172 79.9351 94.9998 80.1922C95.5823 80.4492 96.2735 80.5777 97.0731 80.5777ZM97.0731 72.2501C97.7014 72.2501 98.2583 72.1244 98.7438 71.8731C99.235 71.6218 99.6205 71.2705 99.9004 70.8193C100.18 70.3681 100.323 69.8397 100.329 69.2343C100.323 68.6403 100.183 68.1234 99.9089 67.6836C99.6348 67.2381 99.255 66.8954 98.7695 66.6555C98.284 66.4099 97.7185 66.2871 97.0731 66.2871C96.4163 66.2871 95.8422 66.4099 95.351 66.6555C94.8598 66.8954 94.48 67.2381 94.2115 67.6836C93.9431 68.1234 93.8117 68.6403 93.8174 69.2343C93.8117 69.8397 93.946 70.3681 94.2201 70.8193C94.5 71.2705 94.8855 71.6218 95.3767 71.8731C95.8679 72.1244 96.4334 72.2501 97.0731 72.2501ZM108.828 79.8238L108.691 80.749C108.594 81.4002 108.445 82.097 108.245 82.8395C108.051 83.582 107.848 84.2817 107.637 84.9386C107.426 85.5954 107.251 86.118 107.114 86.5064H105.572C105.646 86.1409 105.743 85.6582 105.863 85.0585C105.983 84.4588 106.103 83.7877 106.223 83.0451C106.349 82.3083 106.452 81.5544 106.532 80.7833L106.634 79.8238H108.828ZM117.65 82.4625C116.359 82.4625 115.26 82.1113 114.352 81.4087C113.443 80.7005 112.749 79.6752 112.27 78.333C111.79 76.9851 111.55 75.3572 111.55 73.4495C111.55 71.5532 111.79 69.934 112.27 68.5917C112.755 67.2438 113.452 66.2157 114.36 65.5074C115.274 64.7935 116.371 64.4365 117.65 64.4365C118.93 64.4365 120.023 64.7935 120.931 65.5074C121.845 66.2157 122.542 67.2438 123.022 68.5917C123.507 69.934 123.75 71.5532 123.75 73.4495C123.75 75.3572 123.51 76.9851 123.031 78.333C122.551 79.6752 121.857 80.7005 120.949 81.4087C120.04 82.1113 118.941 82.4625 117.65 82.4625ZM117.65 80.5777C118.93 80.5777 119.923 79.9608 120.632 78.7271C121.34 77.4934 121.694 75.7342 121.694 73.4495C121.694 71.9302 121.531 70.6365 121.206 69.5684C120.886 68.5004 120.423 67.6864 119.818 67.1267C119.218 66.567 118.495 66.2871 117.65 66.2871C116.382 66.2871 115.391 66.9125 114.677 68.1634C113.963 69.4085 113.606 71.1706 113.606 73.4495C113.606 74.9688 113.766 76.2597 114.086 77.322C114.406 78.3844 114.866 79.1926 115.465 79.7466C116.071 80.3007 116.799 80.5777 117.65 80.5777ZM132.729 82.4625C131.438 82.4625 130.339 82.1113 129.43 81.4087C128.522 80.7005 127.828 79.6752 127.349 78.333C126.869 76.9851 126.629 75.3572 126.629 73.4495C126.629 71.5532 126.869 69.934 127.349 68.5917C127.834 67.2438 128.531 66.2157 129.439 65.5074C130.353 64.7935 131.45 64.4365 132.729 64.4365C134.008 64.4365 135.102 64.7935 136.01 65.5074C136.924 66.2157 137.621 67.2438 138.101 68.5917C138.586 69.934 138.829 71.5532 138.829 73.4495C138.829 75.3572 138.589 76.9851 138.109 78.333C137.63 79.6752 136.936 80.7005 136.027 81.4087C135.119 82.1113 134.02 82.4625 132.729 82.4625ZM132.729 80.5777C134.008 80.5777 135.002 79.9608 135.71 78.7271C136.419 77.4934 136.773 75.7342 136.773 73.4495C136.773 71.9302 136.61 70.6365 136.284 69.5684C135.965 68.5004 135.502 67.6864 134.897 67.1267C134.297 66.567 133.574 66.2871 132.729 66.2871C131.461 66.2871 130.47 66.9125 129.756 68.1634C129.042 69.4085 128.685 71.1706 128.685 73.4495C128.685 74.9688 128.845 76.2597 129.165 77.322C129.485 78.3844 129.944 79.1926 130.544 79.7466C131.15 80.3007 131.878 80.5777 132.729 80.5777ZM147.808 82.4625C146.517 82.4625 145.417 82.1113 144.509 81.4087C143.601 80.7005 142.907 79.6752 142.427 78.333C141.948 76.9851 141.708 75.3572 141.708 73.4495C141.708 71.5532 141.948 69.934 142.427 68.5917C142.913 67.2438 143.61 66.2157 144.518 65.5074C145.432 64.7935 146.528 64.4365 147.808 64.4365C149.087 64.4365 150.181 64.7935 151.089 65.5074C152.003 66.2157 152.7 67.2438 153.18 68.5917C153.665 69.934 153.908 71.5532 153.908 73.4495C153.908 75.3572 153.668 76.9851 153.188 78.333C152.708 79.6752 152.014 80.7005 151.106 81.4087C150.198 82.1113 149.099 82.4625 147.808 82.4625ZM147.808 80.5777C149.087 80.5777 150.081 79.9608 150.789 78.7271C151.497 77.4934 151.852 75.7342 151.852 73.4495C151.852 71.9302 151.689 70.6365 151.363 69.5684C151.043 68.5004 150.581 67.6864 149.975 67.1267C149.376 66.567 148.653 66.2871 147.808 66.2871C146.54 66.2871 145.549 66.9125 144.835 68.1634C144.121 69.4085 143.764 71.1706 143.764 73.4495C143.764 74.9688 143.924 76.2597 144.244 77.322C144.564 78.3844 145.023 79.1926 145.623 79.7466C146.228 80.3007 146.957 80.5777 147.808 80.5777Z" fill="black"/>
<path d="M219.654 110.329C239.537 84.1666 262.826 81.7442 270.843 81.623V240.049H18.8242C18.8242 240.049 25.456 209.621 39.669 196.082C53.9555 182.474 71.5119 187.1 87.3713 175.008C103.067 163.04 99.397 140.125 121.845 136.854C144.293 133.584 145.595 146.302 163.935 146.302C181.974 146.302 194.801 143.031 219.654 110.329Z" fill="url(#paint0_linear_4301_4260)"/>
<path d="M269.362 81.623C261.344 81.7442 239.537 84.1666 219.654 110.329C194.801 143.031 181.974 146.302 163.935 146.302C145.595 146.302 144.293 133.584 121.845 136.854C99.397 140.125 103.067 163.04 87.3713 175.008C71.5119 187.1 53.9555 182.474 39.669 196.082C25.456 209.621 18.8242 240.049 18.8242 240.049" stroke="#93DEC9" stroke-width="1.67253" stroke-linecap="round"/>
</g>
<circle cx="264.045" cy="40.1937" r="27.8265" fill="#55D3B5"/>
<g clip-path="url(#clip2_4301_4260)">
<path d="M280.436 53.0754C280.436 53.4034 280.306 53.7179 280.074 53.9499C279.842 54.1818 279.528 54.3121 279.2 54.3121H249.518C249.19 54.3121 248.875 54.1818 248.643 53.9499C248.412 53.7179 248.281 53.4034 248.281 53.0754C248.281 52.7473 248.412 52.4328 248.643 52.2008C248.875 51.9689 249.19 51.8386 249.518 51.8386H250.755V41.9447C250.755 41.6167 250.885 41.3022 251.117 41.0702C251.349 40.8383 251.663 40.708 251.991 40.708H255.702C256.03 40.708 256.344 40.8383 256.576 41.0702C256.808 41.3022 256.938 41.6167 256.938 41.9447V51.8386H259.412V34.5243C259.412 34.1963 259.542 33.8818 259.774 33.6498C260.006 33.4179 260.321 33.2876 260.649 33.2876H265.596C265.924 33.2876 266.238 33.4179 266.47 33.6498C266.702 33.8818 266.832 34.1963 266.832 34.5243V51.8386H269.306V27.1039C269.306 26.7759 269.436 26.4614 269.668 26.2294C269.9 25.9975 270.214 25.8672 270.542 25.8672H276.726C277.054 25.8672 277.369 25.9975 277.601 26.2294C277.833 26.4614 277.963 26.7759 277.963 27.1039V51.8386H279.2C279.528 51.8386 279.842 51.9689 280.074 52.2008C280.306 52.4328 280.436 52.7473 280.436 53.0754Z" fill="white"/>
</g>
</g>
<defs>
<linearGradient id="paint0_linear_4301_4260" x1="270.618" y1="100.867" x2="268.704" y2="241.635" gradientUnits="userSpaceOnUse">
<stop stop-color="#E3F8F2"/>
<stop offset="0.613308" stop-color="#F5FEFC"/>
<stop offset="1" stop-color="white"/>
</linearGradient>
<clipPath id="clip0_4301_4260">
<path d="M0 29.6816C0 13.2889 13.2889 0 29.6816 0H273.318C289.711 0 303 13.2889 303 29.6816V186.747H0V29.6816Z" fill="white"/>
</clipPath>
<clipPath id="clip1_4301_4260">
<rect width="260.951" height="165.722" fill="white" transform="translate(21.0234 18.5508)"/>
</clipPath>
<clipPath id="clip2_4301_4260">
<rect width="39.5755" height="39.5755" fill="white" transform="translate(244.57 20.9199)"/>
</clipPath>
</defs>
</svg>
