<svg width="304" height="187" viewBox="0 0 304 187" fill="none" xmlns="http://www.w3.org/2000/svg">
<g clip-path="url(#clip0_4301_4282)">
<path d="M0.5 29.6816C0.5 13.2889 13.7889 0 30.1816 0H273.818C290.211 0 303.5 13.2889 303.5 29.6816V186.747H0.5V29.6816Z" fill="#F1EFFF"/>
<path d="M21.5234 37.1018C21.5234 26.8564 29.829 18.5508 40.0745 18.5508H263.923C274.169 18.5508 282.474 26.8564 282.474 37.1018V186.747H21.5234V37.1018Z" fill="white"/>
<rect x="64.8125" y="126.393" width="8.65714" height="39.5755" rx="4.32857" fill="#020202"/>
<rect x="77.1797" y="128.865" width="8.65714" height="37.102" rx="4.32857" fill="#8959FF"/>
<path d="M71.2991 171.131L72.0391 171.131V175.5C72.0391 175.889 71.9675 176.221 71.8243 176.493C71.6811 176.766 71.4791 176.973 71.2185 177.114C70.9579 177.255 70.6506 177.326 70.2965 177.326C69.9623 177.326 69.6649 177.265 69.4043 177.144C69.1437 177.02 68.9388 176.845 68.7896 176.619C68.6404 176.392 68.5658 176.122 68.5658 175.81L69.2939 175.81C69.2939 175.983 69.3367 176.134 69.4222 176.263C69.5097 176.391 69.6291 176.49 69.7803 176.562C69.9315 176.633 70.1035 176.669 70.2965 176.669C70.5094 176.669 70.6904 176.625 70.8396 176.535C70.9888 176.445 71.1022 176.314 71.1798 176.141C71.2593 175.966 71.2991 175.752 71.2991 175.5V171.131ZM74.7754 177.35C74.4849 177.35 74.2214 177.295 73.9846 177.185C73.7479 177.074 73.5599 176.914 73.4207 176.705C73.2814 176.494 73.2118 176.24 73.2118 175.941C73.2118 175.679 73.2635 175.466 73.367 175.303C73.4704 175.138 73.6087 175.008 73.7817 174.915C73.9548 174.821 74.1458 174.752 74.3546 174.706C74.5655 174.658 74.7774 174.62 74.9902 174.592C75.2687 174.557 75.4945 174.53 75.6676 174.512C75.8426 174.492 75.9699 174.459 76.0495 174.413C76.1311 174.368 76.1719 174.288 76.1719 174.175V174.151C76.1719 173.856 76.0913 173.628 75.9302 173.465C75.771 173.301 75.5293 173.22 75.2051 173.22C74.8689 173.22 74.6053 173.293 74.4143 173.441C74.2234 173.588 74.0891 173.745 74.0115 173.912L73.3431 173.673C73.4625 173.395 73.6216 173.178 73.8205 173.023C74.0214 172.866 74.2403 172.756 74.477 172.695C74.7157 172.631 74.9504 172.599 75.1812 172.599C75.3284 172.599 75.4975 172.617 75.6885 172.653C75.8814 172.687 76.0674 172.757 76.2465 172.865C76.4275 172.972 76.5777 173.134 76.697 173.351C76.8164 173.568 76.8761 173.858 76.8761 174.222V177.242L76.1719 177.242V176.622L76.136 176.622C76.0883 176.721 76.0087 176.827 75.8973 176.941C75.7859 177.054 75.6377 177.151 75.4527 177.23C75.2677 177.31 75.0419 177.35 74.7754 177.35ZM74.8828 176.717C75.1613 176.717 75.396 176.662 75.587 176.553C75.78 176.443 75.9252 176.302 76.0227 176.129C76.1221 175.956 76.1719 175.774 76.1719 175.583V174.939C76.142 174.974 76.0764 175.007 75.9749 175.037C75.8755 175.065 75.7601 175.09 75.6288 175.112C75.4995 175.132 75.3732 175.149 75.2498 175.165C75.1285 175.179 75.03 175.191 74.9544 175.201C74.7714 175.225 74.6003 175.264 74.4412 175.318C74.284 175.369 74.1567 175.448 74.0592 175.553C73.9638 175.657 73.916 175.798 73.916 175.977C73.916 176.222 74.0065 176.407 74.1875 176.532C74.3706 176.655 74.6023 176.717 74.8828 176.717ZM78.8656 174.485V177.242L78.1614 177.242V172.659L78.8417 172.659V173.375L78.9014 173.375C79.0088 173.142 79.1719 172.955 79.3908 172.814C79.6096 172.671 79.8921 172.599 80.2382 172.599C80.5485 172.599 80.8201 172.663 81.0528 172.79C81.2856 172.915 81.4666 173.106 81.5959 173.363C81.7252 173.618 81.7898 173.94 81.7898 174.33V177.242L81.0856 177.242V174.378C81.0856 174.018 80.9921 173.737 80.8051 173.536C80.6181 173.333 80.3615 173.232 80.0353 173.232C79.8105 173.232 79.6096 173.281 79.4325 173.378C79.2575 173.475 79.1192 173.618 79.0178 173.805C78.9163 173.992 78.8656 174.218 78.8656 174.485Z" fill="black"/>
<rect x="118.285" y="137.459" width="8.65714" height="28.4449" rx="4.32857" fill="#020202"/>
<rect x="130.652" y="120.209" width="8.65714" height="45.7592" rx="4.32857" fill="#8959FF"/>
<path d="M121.871 171.131L122.754 171.131L124.831 176.204L124.902 176.204L126.979 171.131L127.862 171.131V177.242L127.17 177.242V172.599L127.11 172.599L125.201 177.242L124.532 177.242L122.623 172.599L122.563 172.599V177.242L121.871 177.242V171.131ZM130.599 177.35C130.309 177.35 130.045 177.295 129.809 177.185C129.572 177.074 129.384 176.914 129.245 176.705C129.105 176.494 129.036 176.24 129.036 175.941C129.036 175.679 129.088 175.466 129.191 175.303C129.294 175.138 129.433 175.008 129.606 174.915C129.779 174.821 129.97 174.752 130.179 174.706C130.39 174.658 130.601 174.62 130.814 174.592C131.093 174.557 131.319 174.53 131.492 174.512C131.667 174.492 131.794 174.459 131.874 174.413C131.955 174.368 131.996 174.288 131.996 174.175V174.151C131.996 173.856 131.915 173.628 131.754 173.465C131.595 173.301 131.353 173.22 131.029 173.22C130.693 173.22 130.429 173.293 130.238 173.441C130.047 173.588 129.913 173.745 129.836 173.912L129.167 173.673C129.286 173.395 129.446 173.178 129.645 173.023C129.845 172.866 130.064 172.756 130.301 172.695C130.54 172.631 130.774 172.599 131.005 172.599C131.152 172.599 131.322 172.617 131.513 172.653C131.705 172.687 131.891 172.757 132.07 172.865C132.252 172.972 132.402 173.134 132.521 173.351C132.64 173.568 132.7 173.858 132.7 174.222V177.242L131.996 177.242V176.622L131.96 176.622C131.912 176.721 131.833 176.827 131.721 176.941C131.61 177.054 131.462 177.151 131.277 177.23C131.092 177.31 130.866 177.35 130.599 177.35ZM130.707 176.717C130.985 176.717 131.22 176.662 131.411 176.553C131.604 176.443 131.749 176.302 131.847 176.129C131.946 175.956 131.996 175.774 131.996 175.583V174.939C131.966 174.974 131.9 175.007 131.799 175.037C131.699 175.065 131.584 175.09 131.453 175.112C131.324 175.132 131.197 175.149 131.074 175.165C130.953 175.179 130.854 175.191 130.778 175.201C130.595 175.225 130.424 175.264 130.265 175.318C130.108 175.369 129.981 175.448 129.883 175.553C129.788 175.657 129.74 175.798 129.74 175.977C129.74 176.222 129.831 176.407 130.012 176.532C130.195 176.655 130.426 176.717 130.707 176.717ZM133.985 177.242V172.659L134.666 172.659V173.351L134.714 173.351C134.797 173.124 134.948 172.94 135.167 172.799C135.386 172.658 135.633 172.587 135.907 172.587C135.959 172.587 136.023 172.588 136.101 172.59C136.179 172.592 136.237 172.595 136.277 172.599V173.315C136.253 173.309 136.199 173.3 136.113 173.288C136.029 173.275 135.941 173.268 135.847 173.268C135.625 173.268 135.426 173.314 135.251 173.408C135.078 173.499 134.94 173.627 134.839 173.79C134.739 173.951 134.69 174.135 134.69 174.342V177.242L133.985 177.242Z" fill="black"/>
<rect x="171.754" y="128.994" width="8.37287" height="36.972" rx="4.18644" fill="#020202"/>
<rect x="184.359" y="137.467" width="8.37287" height="28.4993" rx="4.18644" fill="#8959FF"/>
<path d="M174.621 171.131L175.504 171.131L177.581 176.204L177.653 176.204L179.729 171.131L180.613 171.131V177.242L179.92 177.242V172.599L179.861 172.599L177.951 177.242L177.283 177.242L175.373 172.599L175.313 172.599V177.242L174.621 177.242V171.131ZM183.35 177.35C183.059 177.35 182.796 177.295 182.559 177.185C182.322 177.074 182.134 176.914 181.995 176.705C181.856 176.494 181.786 176.24 181.786 175.941C181.786 175.679 181.838 175.466 181.941 175.303C182.045 175.138 182.183 175.008 182.356 174.915C182.529 174.821 182.72 174.752 182.929 174.706C183.14 174.658 183.352 174.62 183.564 174.592C183.843 174.557 184.069 174.53 184.242 174.512C184.417 174.492 184.544 174.459 184.624 174.413C184.705 174.368 184.746 174.288 184.746 174.175V174.151C184.746 173.856 184.666 173.628 184.504 173.465C184.345 173.301 184.104 173.22 183.779 173.22C183.443 173.22 183.18 173.293 182.989 173.441C182.798 173.588 182.663 173.745 182.586 173.912L181.917 173.673C182.037 173.395 182.196 173.178 182.395 173.023C182.596 172.866 182.814 172.756 183.051 172.695C183.29 172.631 183.525 172.599 183.755 172.599C183.903 172.599 184.072 172.617 184.263 172.653C184.456 172.687 184.642 172.757 184.821 172.865C185.002 172.972 185.152 173.134 185.271 173.351C185.391 173.568 185.45 173.858 185.45 174.222V177.242L184.746 177.242V176.622L184.71 176.622C184.663 176.721 184.583 176.827 184.472 176.941C184.36 177.054 184.212 177.151 184.027 177.23C183.842 177.31 183.616 177.35 183.35 177.35ZM183.457 176.717C183.736 176.717 183.97 176.662 184.161 176.553C184.354 176.443 184.499 176.302 184.597 176.129C184.696 175.956 184.746 175.774 184.746 175.583V174.939C184.716 174.974 184.651 175.007 184.549 175.037C184.45 175.065 184.334 175.09 184.203 175.112C184.074 175.132 183.947 175.149 183.824 175.165C183.703 175.179 183.604 175.191 183.529 175.201C183.346 175.225 183.175 175.264 183.015 175.318C182.858 175.369 182.731 175.448 182.633 175.553C182.538 175.657 182.49 175.798 182.49 175.977C182.49 176.222 182.581 176.407 182.762 176.532C182.945 176.655 183.177 176.717 183.457 176.717ZM187.025 178.961C186.906 178.961 186.799 178.951 186.706 178.931C186.612 178.913 186.548 178.895 186.512 178.877L186.691 178.257C186.862 178.3 187.013 178.316 187.144 178.304C187.276 178.293 187.392 178.234 187.494 178.128C187.597 178.025 187.691 177.857 187.777 177.624L187.908 177.266L186.213 172.659L186.977 172.659L188.242 176.311L188.29 176.311L189.555 172.659L190.319 172.659L188.374 177.911C188.286 178.147 188.178 178.343 188.049 178.498C187.919 178.656 187.769 178.772 187.598 178.848C187.429 178.923 187.238 178.961 187.025 178.961Z" fill="black"/>
<rect x="225.18" y="122.543" width="8.37287" height="43.2857" rx="4.18644" fill="#020202"/>
<rect x="237.785" y="109.617" width="8.37287" height="56.3508" rx="4.18644" fill="#8959FF"/>
<path d="M231.567 171.131L232.307 171.131V175.5C232.307 175.889 232.236 176.221 232.092 176.493C231.949 176.766 231.747 176.973 231.487 177.114C231.226 177.255 230.919 177.326 230.565 177.326C230.23 177.326 229.933 177.265 229.672 177.144C229.412 177.02 229.207 176.845 229.058 176.619C228.909 176.392 228.834 176.122 228.834 175.81L229.562 175.81C229.562 175.983 229.605 176.134 229.69 176.263C229.778 176.391 229.897 176.49 230.048 176.562C230.2 176.633 230.372 176.669 230.565 176.669C230.778 176.669 230.959 176.625 231.108 176.535C231.257 176.445 231.37 176.314 231.448 176.141C231.527 175.966 231.567 175.752 231.567 175.5V171.131ZM236.583 175.368V172.659L237.287 172.659V177.242L236.583 177.242V176.466L236.536 176.466C236.428 176.699 236.261 176.897 236.034 177.06C235.807 177.221 235.521 177.302 235.175 177.302C234.888 177.302 234.634 177.239 234.411 177.114C234.188 176.987 234.013 176.796 233.886 176.541C233.758 176.284 233.695 175.961 233.695 175.571V172.659L234.399 172.659V175.523C234.399 175.858 234.493 176.124 234.68 176.323C234.868 176.522 235.109 176.622 235.402 176.622C235.577 176.622 235.755 176.577 235.936 176.487C236.119 176.398 236.272 176.26 236.395 176.075C236.521 175.89 236.583 175.655 236.583 175.368ZM239.281 174.485V177.242L238.577 177.242V172.659L239.258 172.659V173.375L239.317 173.375C239.425 173.142 239.588 172.955 239.807 172.814C240.025 172.671 240.308 172.599 240.654 172.599C240.964 172.599 241.236 172.663 241.469 172.79C241.701 172.915 241.882 173.106 242.012 173.363C242.141 173.618 242.206 173.94 242.206 174.33V177.242L241.501 177.242V174.378C241.501 174.018 241.408 173.737 241.221 173.536C241.034 173.333 240.777 173.232 240.451 173.232C240.226 173.232 240.025 173.281 239.848 173.378C239.673 173.475 239.535 173.618 239.434 173.805C239.332 173.992 239.281 174.218 239.281 174.485Z" fill="black"/>
<path d="M45.5616 51.4707V41.6578H49.2415C49.9953 41.6578 50.6278 41.7887 51.1389 42.0507C51.6532 42.3126 52.0413 42.68 52.3032 43.1527C52.5684 43.6223 52.7009 44.1701 52.7009 44.7962C52.7009 45.4255 52.5668 45.9717 52.2984 46.4349C52.0333 46.8949 51.642 47.251 51.1245 47.5034C50.607 47.7525 49.9714 47.8771 49.2175 47.8771H46.5966V46.4013H48.9779C49.4188 46.4013 49.7797 46.3406 50.0608 46.2193C50.3419 46.0947 50.5495 45.9142 50.6837 45.6778C50.8211 45.4382 50.8897 45.1444 50.8897 44.7962C50.8897 44.448 50.8211 44.1509 50.6837 43.905C50.5464 43.6558 50.3371 43.4674 50.056 43.3396C49.7749 43.2086 49.4124 43.1431 48.9684 43.1431H47.3393V51.4707H45.5616ZM50.631 47.0242L53.0603 51.4707H51.0766L48.6905 47.0242H50.631ZM54.3372 51.4707V41.6578H60.7194V43.1479H56.1148V45.812H60.3888V47.3021H56.1148V49.9806H60.7578V51.4707H54.3372ZM62.533 51.4707V41.6578H66.2129C66.9667 41.6578 67.5992 41.7983 68.1103 42.0794C68.6246 42.3605 69.0127 42.747 69.2746 43.239C69.5397 43.7277 69.6723 44.2835 69.6723 44.9064C69.6723 45.5357 69.5397 46.0947 69.2746 46.5834C69.0095 47.0721 68.6182 47.457 68.1007 47.7381C67.5832 48.0161 66.946 48.155 66.1889 48.155H63.75V46.6936H65.9493C66.3901 46.6936 66.7511 46.6169 67.0322 46.4636C67.3133 46.3103 67.5209 46.0995 67.6551 45.8311C67.7924 45.5628 67.8611 45.2546 67.8611 44.9064C67.8611 44.5582 67.7924 44.2516 67.6551 43.9864C67.5209 43.7213 67.3117 43.5153 67.0274 43.3683C66.7463 43.2182 66.3838 43.1431 65.9397 43.1431H64.3106V51.4707H62.533ZM79.9847 46.5642C79.9847 47.6216 79.7867 48.5271 79.3906 49.281C78.9977 50.0317 78.461 50.6066 77.7807 51.0059C77.1035 51.4052 76.3352 51.6049 75.476 51.6049C74.6167 51.6049 73.8469 51.4052 73.1665 51.0059C72.4893 50.6034 71.9526 50.0269 71.5565 49.2762C71.1636 48.5224 70.9672 47.6184 70.9672 46.5642C70.9672 45.5069 71.1636 44.6029 71.5565 43.8523C71.9526 43.0984 72.4893 42.5218 73.1665 42.1225C73.8469 41.7233 74.6167 41.5236 75.476 41.5236C76.3352 41.5236 77.1035 41.7233 77.7807 42.1225C78.461 42.5218 78.9977 43.0984 79.3906 43.8523C79.7867 44.6029 79.9847 45.5069 79.9847 46.5642ZM78.1975 46.5642C78.1975 45.82 78.0809 45.1923 77.8477 44.6812C77.6177 44.1669 77.2983 43.7788 76.8894 43.5169C76.4806 43.2517 76.0094 43.1192 75.476 43.1192C74.9425 43.1192 74.4714 43.2517 74.0625 43.5169C73.6536 43.7788 73.3326 44.1669 73.0994 44.6812C72.8694 45.1923 72.7544 45.82 72.7544 46.5642C72.7544 47.3085 72.8694 47.9378 73.0994 48.4521C73.3326 48.9632 73.6536 49.3513 74.0625 49.6164C74.4714 49.8783 74.9425 50.0093 75.476 50.0093C76.0094 50.0093 76.4806 49.8783 76.8894 49.6164C77.2983 49.3513 77.6177 48.9632 77.8477 48.4521C78.0809 47.9378 78.1975 47.3085 78.1975 46.5642ZM81.6653 51.4707V41.6578H85.3452C86.099 41.6578 86.7315 41.7887 87.2426 42.0507C87.7569 42.3126 88.145 42.68 88.4069 43.1527C88.6721 43.6223 88.8046 44.1701 88.8046 44.7962C88.8046 45.4255 88.6705 45.9717 88.4021 46.4349C88.137 46.8949 87.7457 47.251 87.2282 47.5034C86.7108 47.7525 86.0751 47.8771 85.3212 47.8771H82.7003V46.4013H85.0817C85.5225 46.4013 85.8834 46.3406 86.1645 46.2193C86.4456 46.0947 86.6533 45.9142 86.7874 45.6778C86.9248 45.4382 86.9935 45.1444 86.9935 44.7962C86.9935 44.448 86.9248 44.1509 86.7874 43.905C86.6501 43.6558 86.4408 43.4674 86.1597 43.3396C85.8786 43.2086 85.5161 43.1431 85.0721 43.1431H83.443V51.4707H81.6653ZM86.7347 47.0242L89.164 51.4707H87.1803L84.7942 47.0242H86.7347ZM90.0097 43.1479V41.6578H97.8389V43.1479H94.8059V51.4707H93.0427V43.1479H90.0097Z" fill="#8A8A8A"/>
<path d="M46.4101 78.5117V76.9696L52.2017 70.6296C52.8814 69.8871 53.4411 69.2417 53.8809 68.6934C54.3207 68.1393 54.6463 67.6196 54.8576 67.1341C55.0747 66.6429 55.1832 66.1288 55.1832 65.5919C55.1832 64.9751 55.0347 64.441 54.7377 63.9898C54.4464 63.5386 54.0466 63.1902 53.5382 62.9446C53.0299 62.6989 52.4587 62.5761 51.8247 62.5761C51.1508 62.5761 50.5624 62.7161 50.0598 62.996C49.5629 63.2701 49.1774 63.6557 48.9032 64.1526C48.6348 64.6495 48.5005 65.2321 48.5005 65.9003H46.4786C46.4786 64.8722 46.7156 63.9698 47.1897 63.193C47.6638 62.4162 48.3092 61.8108 49.126 61.3767C49.9484 60.9426 50.8709 60.7256 51.8933 60.7256C52.9214 60.7256 53.8324 60.9426 54.6263 61.3767C55.4202 61.8108 56.0428 62.3962 56.494 63.133C56.9452 63.8698 57.1709 64.6895 57.1709 65.5919C57.1709 66.2373 57.0538 66.8685 56.8196 67.4853C56.5911 68.0965 56.1913 68.779 55.6201 69.533C55.0547 70.2812 54.2693 71.1951 53.2641 72.2746L49.323 76.4898V76.6269H57.4793V78.5117H46.4101ZM60.2295 74.9134V73.1656L67.9402 60.9655H69.2082V63.6728H68.3515L62.5256 72.8914V73.0285H72.9094V74.9134H60.2295ZM68.4885 78.5117V74.3822V73.5683V60.9655H70.5105V78.5117H68.4885ZM81.7403 78.7516C80.5637 78.7516 79.5242 78.5431 78.6218 78.1262C77.725 77.7035 77.0253 77.1238 76.5227 76.387C76.0201 75.6445 75.7716 74.7991 75.7773 73.851C75.7716 73.1085 75.9173 72.4231 76.2143 71.7948C76.5113 71.1608 76.9168 70.6325 77.4309 70.2098C77.9506 69.7814 78.5304 69.5101 79.1701 69.3959V69.2931C78.3305 69.076 77.6622 68.6048 77.1653 67.8794C76.6684 67.1483 76.4228 66.3173 76.4285 65.3863C76.4228 64.4953 76.6484 63.6985 77.1053 62.996C77.5622 62.2934 78.1905 61.7394 78.9902 61.3339C79.7955 60.9283 80.7122 60.7256 81.7403 60.7256C82.757 60.7256 83.6652 60.9283 84.4648 61.3339C85.2644 61.7394 85.8927 62.2934 86.3497 62.996C86.8123 63.6985 87.0465 64.4953 87.0522 65.3863C87.0465 66.3173 86.7923 67.1483 86.2897 67.8794C85.7928 68.6048 85.1331 69.076 84.3106 69.2931V69.3959C84.9446 69.5101 85.5158 69.7814 86.0241 70.2098C86.5324 70.6325 86.938 71.1608 87.2407 71.7948C87.5434 72.4231 87.6976 73.1085 87.7033 73.851C87.6976 74.7991 87.4406 75.6445 86.9322 76.387C86.4296 77.1238 85.7299 77.7035 84.8332 78.1262C83.9422 78.5431 82.9112 78.7516 81.7403 78.7516ZM81.7403 76.8668C82.5343 76.8668 83.2197 76.7382 83.7965 76.4812C84.3734 76.2242 84.8189 75.8615 85.1331 75.3931C85.4472 74.9248 85.6071 74.3765 85.6128 73.7482C85.6071 73.0856 85.4358 72.5002 85.0988 71.9918C84.7618 71.4835 84.302 71.0837 83.7194 70.7924C83.1426 70.5011 82.4829 70.3554 81.7403 70.3554C80.9921 70.3554 80.3238 70.5011 79.7355 70.7924C79.1529 71.0837 78.6932 71.4835 78.3562 71.9918C78.0249 72.5002 77.8621 73.0856 77.8678 73.7482C77.8621 74.3765 78.0135 74.9248 78.3219 75.3931C78.636 75.8615 79.0844 76.2242 79.667 76.4812C80.2496 76.7382 80.9407 76.8668 81.7403 76.8668ZM81.7403 68.5391C82.3686 68.5391 82.9255 68.4135 83.411 68.1622C83.9022 67.9109 84.2877 67.5596 84.5676 67.1084C84.8475 66.6571 84.9903 66.1288 84.996 65.5234C84.9903 64.9294 84.8503 64.4125 84.5762 63.9727C84.302 63.5271 83.9222 63.1844 83.4367 62.9446C82.9512 62.6989 82.3858 62.5761 81.7403 62.5761C81.0835 62.5761 80.5095 62.6989 80.0183 62.9446C79.5271 63.1844 79.1472 63.5271 78.8788 63.9727C78.6103 64.4125 78.479 64.9294 78.4847 65.5234C78.479 66.1288 78.6132 66.6571 78.8874 67.1084C79.1672 67.5596 79.5528 67.9109 80.044 68.1622C80.5352 68.4135 81.1006 68.5391 81.7403 68.5391ZM99.9313 75.2218V74.2965C99.9313 73.6568 100.063 73.0713 100.325 72.5402C100.594 72.0033 100.982 71.5749 101.491 71.255C102.005 70.9295 102.627 70.7667 103.358 70.7667C104.101 70.7667 104.723 70.9295 105.226 71.255C105.729 71.5749 106.108 72.0033 106.366 72.5402C106.623 73.0713 106.751 73.6568 106.751 74.2965V75.2218C106.751 75.8615 106.62 76.4498 106.357 76.9867C106.1 77.5179 105.717 77.9463 105.209 78.2718C104.706 78.5917 104.089 78.7516 103.358 78.7516C102.616 78.7516 101.99 78.5917 101.482 78.2718C100.974 77.9463 100.588 77.5179 100.325 76.9867C100.063 76.4498 99.9313 75.8615 99.9313 75.2218ZM101.679 74.2965V75.2218C101.679 75.753 101.805 76.2299 102.056 76.6526C102.307 77.0695 102.741 77.278 103.358 77.278C103.958 77.278 104.381 77.0695 104.626 76.6526C104.878 76.2299 105.003 75.753 105.003 75.2218V74.2965C105.003 73.7653 104.883 73.2912 104.643 72.8743C104.404 72.4516 103.975 72.2403 103.358 72.2403C102.759 72.2403 102.327 72.4516 102.065 72.8743C101.808 73.2912 101.679 73.7653 101.679 74.2965ZM91.1924 65.1807V64.2554C91.1924 63.6157 91.3238 63.0302 91.5865 62.499C91.855 61.9621 92.2434 61.5338 92.7517 61.2139C93.2658 60.8883 93.8884 60.7256 94.6194 60.7256C95.362 60.7256 95.9845 60.8883 96.4872 61.2139C96.9898 61.5338 97.3696 61.9621 97.6266 62.499C97.8837 63.0302 98.0122 63.6157 98.0122 64.2554V65.1807C98.0122 65.8204 97.8808 66.4087 97.6181 66.9456C97.361 67.4768 96.9784 67.9051 96.47 68.2307C95.9674 68.5506 95.3505 68.7105 94.6194 68.7105C93.8769 68.7105 93.2515 68.5506 92.7432 68.2307C92.2348 67.9051 91.8493 67.4768 91.5865 66.9456C91.3238 66.4087 91.1924 65.8204 91.1924 65.1807ZM92.9402 64.2554V65.1807C92.9402 65.7119 93.0659 66.1888 93.3172 66.6114C93.5685 67.0284 94.0026 67.2369 94.6194 67.2369C95.2192 67.2369 95.6418 67.0284 95.8874 66.6114C96.1388 66.1888 96.2644 65.7119 96.2644 65.1807V64.2554C96.2644 63.7242 96.1445 63.2501 95.9046 62.8332C95.6647 62.4105 95.2363 62.1992 94.6194 62.1992C94.0197 62.1992 93.5885 62.4105 93.3258 62.8332C93.0687 63.2501 92.9402 63.7242 92.9402 64.2554ZM91.8436 78.5117L103.907 60.9655H105.86L93.797 78.5117H91.8436Z" fill="black"/>
<path d="M49.423 92.1813H48.7914C48.754 91.9996 48.6886 91.84 48.5952 91.7024C48.5035 91.5649 48.3915 91.4494 48.259 91.356C48.1283 91.2609 47.9831 91.1896 47.8235 91.142C47.6639 91.0945 47.4974 91.0707 47.3242 91.0707C47.0084 91.0707 46.7223 91.1505 46.4659 91.3102C46.2112 91.4698 46.0082 91.705 45.8571 92.0157C45.7077 92.3264 45.633 92.7077 45.633 93.1594C45.633 93.611 45.7077 93.9923 45.8571 94.303C46.0082 94.6137 46.2112 94.8489 46.4659 95.0085C46.7223 95.1682 47.0084 95.248 47.3242 95.248C47.4974 95.248 47.6639 95.2242 47.8235 95.1767C47.9831 95.1291 48.1283 95.0586 48.259 94.9652C48.3915 94.8702 48.5035 94.7538 48.5952 94.6163C48.6886 94.477 48.754 94.3174 48.7914 94.1374H49.423C49.3755 94.404 49.2889 94.6426 49.1632 94.8532C49.0376 95.0637 48.8814 95.2429 48.6946 95.3906C48.5078 95.5366 48.2981 95.6479 48.0654 95.7243C47.8345 95.8007 47.5874 95.8389 47.3242 95.8389C46.8793 95.8389 46.4837 95.7302 46.1373 95.5129C45.7909 95.2955 45.5183 94.9865 45.3197 94.5857C45.121 94.185 45.0217 93.7095 45.0217 93.1594C45.0217 92.6092 45.121 92.1337 45.3197 91.733C45.5183 91.3322 45.7909 91.0232 46.1373 90.8058C46.4837 90.5885 46.8793 90.4798 47.3242 90.4798C47.5874 90.4798 47.8345 90.518 48.0654 90.5944C48.2981 90.6708 48.5078 90.7829 48.6946 90.9306C48.8814 91.0767 49.0376 91.255 49.1632 91.4655C49.2889 91.6744 49.3755 91.913 49.423 92.1813ZM51.9517 95.8491C51.5985 95.8491 51.2886 95.765 51.022 95.5969C50.7571 95.4288 50.5499 95.1936 50.4005 94.8914C50.2528 94.5891 50.1789 94.2359 50.1789 93.8318C50.1789 93.4242 50.2528 93.0685 50.4005 92.7646C50.5499 92.4606 50.7571 92.2246 51.022 92.0565C51.2886 91.8883 51.5985 91.8043 51.9517 91.8043C52.3049 91.8043 52.6139 91.8883 52.8788 92.0565C53.1454 92.2246 53.3526 92.4606 53.5003 92.7646C53.6497 93.0685 53.7245 93.4242 53.7245 93.8318C53.7245 94.2359 53.6497 94.5891 53.5003 94.8914C53.3526 95.1936 53.1454 95.4288 52.8788 95.5969C52.6139 95.765 52.3049 95.8491 51.9517 95.8491ZM51.9517 95.3091C52.22 95.3091 52.4407 95.2403 52.6139 95.1028C52.7871 94.9652 52.9153 94.7844 52.9985 94.5603C53.0817 94.3361 53.1233 94.0933 53.1233 93.8318C53.1233 93.5703 53.0817 93.3266 52.9985 93.1008C52.9153 92.8749 52.7871 92.6924 52.6139 92.5531C52.4407 92.4139 52.22 92.3443 51.9517 92.3443C51.6834 92.3443 51.4626 92.4139 51.2894 92.5531C51.1162 92.6924 50.988 92.8749 50.9048 93.1008C50.8216 93.3266 50.78 93.5703 50.78 93.8318C50.78 94.0933 50.8216 94.3361 50.9048 94.5603C50.988 94.7844 51.1162 94.9652 51.2894 95.1028C51.4626 95.2403 51.6834 95.3091 51.9517 95.3091ZM54.642 95.7676V91.8552H55.2228V92.4665H55.2737C55.3552 92.2577 55.4868 92.0955 55.6685 91.98C55.8502 91.8629 56.0684 91.8043 56.3231 91.8043C56.5812 91.8043 56.796 91.8629 56.9675 91.98C57.1408 92.0955 57.2757 92.2577 57.3725 92.4665H57.4133C57.5135 92.2645 57.6638 92.104 57.8641 91.9851C58.0645 91.8646 58.3048 91.8043 58.585 91.8043C58.9348 91.8043 59.2209 91.9138 59.4433 92.1329C59.6658 92.3502 59.777 92.689 59.777 93.1492V95.7676H59.1759V93.1492C59.1759 92.8605 59.0969 92.6542 58.939 92.5302C58.7811 92.4063 58.5951 92.3443 58.3812 92.3443C58.1061 92.3443 57.893 92.4275 57.7419 92.5939C57.5907 92.7586 57.5152 92.9675 57.5152 93.2205V95.7676H56.9039V93.088C56.9039 92.8656 56.8317 92.6864 56.6874 92.5506C56.543 92.4131 56.3571 92.3443 56.1296 92.3443C55.9733 92.3443 55.8273 92.3859 55.6915 92.4691C55.5573 92.5523 55.4486 92.6678 55.3654 92.8155C55.2839 92.9615 55.2432 93.1305 55.2432 93.3224V95.7676H54.642ZM60.8761 97.2347V91.8552H61.4568V92.4767H61.5281C61.5723 92.4088 61.6334 92.3222 61.7115 92.2169C61.7913 92.1099 61.9051 92.0149 62.0528 91.9316C62.2023 91.8467 62.4043 91.8043 62.659 91.8043C62.9885 91.8043 63.2788 91.8867 63.5301 92.0514C63.7815 92.2161 63.9776 92.4496 64.1185 92.7518C64.2595 93.0541 64.3299 93.4107 64.3299 93.8216C64.3299 94.2359 64.2595 94.5951 64.1185 94.899C63.9776 95.2013 63.7823 95.4356 63.5327 95.602C63.2831 95.7667 62.9953 95.8491 62.6692 95.8491C62.4179 95.8491 62.2167 95.8075 62.0656 95.7243C61.9144 95.6394 61.7981 95.5434 61.7166 95.4365C61.6351 95.3278 61.5723 95.2378 61.5281 95.1665H61.4772V97.2347H60.8761ZM61.467 93.8114C61.467 94.1069 61.5103 94.3675 61.5969 94.5934C61.6835 94.8175 61.81 94.9933 61.9764 95.1206C62.1428 95.2463 62.3466 95.3091 62.5877 95.3091C62.839 95.3091 63.0487 95.2429 63.2169 95.1104C63.3867 94.9763 63.514 94.7963 63.5989 94.5704C63.6855 94.3429 63.7288 94.0899 63.7288 93.8114C63.7288 93.5363 63.6864 93.2884 63.6015 93.0677C63.5183 92.8452 63.3918 92.6695 63.2219 92.5404C63.0538 92.4097 62.8424 92.3443 62.5877 92.3443C62.3432 92.3443 62.1377 92.4063 61.9713 92.5302C61.8049 92.6525 61.6793 92.824 61.5944 93.0447C61.5094 93.2638 61.467 93.5193 61.467 93.8114ZM66.3982 95.8593C66.1503 95.8593 65.9253 95.8126 65.7232 95.7192C65.5211 95.6241 65.3607 95.4874 65.2418 95.3091C65.1229 95.1291 65.0635 94.9118 65.0635 94.657C65.0635 94.4329 65.1076 94.2512 65.1959 94.112C65.2842 93.971 65.4023 93.8607 65.55 93.7808C65.6977 93.701 65.8607 93.6416 66.039 93.6025C66.219 93.5618 66.3999 93.5295 66.5816 93.5058C66.8193 93.4752 67.012 93.4523 67.1598 93.437C67.3092 93.42 67.4179 93.392 67.4858 93.3529C67.5554 93.3139 67.5902 93.246 67.5902 93.1492V93.1288C67.5902 92.8775 67.5214 92.6822 67.3839 92.543C67.2481 92.4037 67.0417 92.3341 66.765 92.3341C66.478 92.3341 66.253 92.3969 66.09 92.5226C65.927 92.6482 65.8123 92.7824 65.7461 92.925L65.1756 92.7212C65.2775 92.4835 65.4133 92.2984 65.5831 92.166C65.7546 92.0318 65.9414 91.9384 66.1435 91.8858C66.3472 91.8315 66.5476 91.8043 66.7446 91.8043C66.8702 91.8043 67.0146 91.8196 67.1776 91.8501C67.3423 91.879 67.5011 91.9393 67.6539 92.031C67.8084 92.1227 67.9366 92.2611 68.0385 92.4462C68.1404 92.6313 68.1913 92.8792 68.1913 93.1899V95.7676H67.5902V95.2378H67.5597C67.5189 95.3227 67.451 95.4135 67.3559 95.5103C67.2608 95.6071 67.1343 95.6895 66.9764 95.7574C66.8184 95.8253 66.6257 95.8593 66.3982 95.8593ZM66.4899 95.3193C66.7276 95.3193 66.928 95.2726 67.091 95.1792C67.2557 95.0858 67.3797 94.9652 67.4629 94.8175C67.5478 94.6698 67.5902 94.5144 67.5902 94.3514V93.8012C67.5647 93.8318 67.5087 93.8598 67.4221 93.8853C67.3372 93.909 67.2387 93.9303 67.1266 93.949C67.0163 93.9659 66.9084 93.9812 66.8032 93.9948C66.6996 94.0067 66.6155 94.0169 66.551 94.0254C66.3948 94.0457 66.2487 94.0789 66.1129 94.1247C65.9788 94.1689 65.8701 94.2359 65.7869 94.3259C65.7054 94.4142 65.6646 94.5348 65.6646 94.6876C65.6646 94.8965 65.7419 95.0544 65.8964 95.1614C66.0526 95.2666 66.2504 95.3193 66.4899 95.3193ZM69.2885 95.7676V91.8552H69.8692V92.4462H69.91C69.9813 92.2526 70.1104 92.0955 70.2971 91.9749C70.4839 91.8544 70.6945 91.7941 70.9288 91.7941C70.973 91.7941 71.0282 91.795 71.0944 91.7967C71.1606 91.7984 71.2107 91.8009 71.2447 91.8043V92.4156C71.2243 92.4105 71.1776 92.4029 71.1046 92.3927C71.0333 92.3808 70.9577 92.3748 70.8779 92.3748C70.6877 92.3748 70.5179 92.4147 70.3685 92.4946C70.2207 92.5727 70.1036 92.6813 70.017 92.8206C69.9321 92.9581 69.8896 93.1152 69.8896 93.2918V95.7676H69.2885ZM73.4785 95.8491C73.1015 95.8491 72.7763 95.7659 72.5029 95.5995C72.2312 95.4314 72.0215 95.197 71.8738 94.8965C71.7278 94.5942 71.6547 94.2427 71.6547 93.842C71.6547 93.4412 71.7278 93.088 71.8738 92.7824C72.0215 92.475 72.227 92.2356 72.4902 92.0641C72.7551 91.8909 73.0641 91.8043 73.4173 91.8043C73.6211 91.8043 73.8223 91.8383 74.021 91.9062C74.2197 91.9741 74.4005 92.0845 74.5635 92.2373C74.7265 92.3884 74.8565 92.5888 74.9532 92.8384C75.05 93.088 75.0984 93.3954 75.0984 93.7605V94.0152H72.0827V93.4956H74.4871C74.4871 93.2748 74.443 93.0778 74.3547 92.9046C74.2681 92.7314 74.1441 92.5947 73.9828 92.4946C73.8232 92.3944 73.6347 92.3443 73.4173 92.3443C73.1779 92.3443 72.9708 92.4037 72.7958 92.5226C72.6226 92.6397 72.4893 92.7926 72.396 92.9811C72.3026 93.1695 72.2559 93.3716 72.2559 93.5873V93.9337C72.2559 94.2291 72.3068 94.4796 72.4087 94.6851C72.5123 94.8888 72.6558 95.0442 72.8392 95.1512C73.0225 95.2565 73.2356 95.3091 73.4785 95.3091C73.6364 95.3091 73.779 95.287 73.9064 95.2429C74.0354 95.197 74.1467 95.1291 74.2401 95.0391C74.3334 94.9474 74.4056 94.8336 74.4566 94.6978L75.0373 94.8608C74.9762 95.0578 74.8734 95.231 74.7291 95.3804C74.5848 95.5282 74.4065 95.6436 74.1942 95.7268C73.9819 95.8083 73.7434 95.8491 73.4785 95.8491ZM77.4901 95.8491C77.1641 95.8491 76.8763 95.7667 76.6267 95.602C76.3771 95.4356 76.1818 95.2013 76.0409 94.899C75.8999 94.5951 75.8294 94.2359 75.8294 93.8216C75.8294 93.4107 75.8999 93.0541 76.0409 92.7518C76.1818 92.4496 76.3779 92.2161 76.6292 92.0514C76.8805 91.8867 77.1709 91.8043 77.5003 91.8043C77.755 91.8043 77.9563 91.8467 78.104 91.9316C78.2534 92.0149 78.3672 92.1099 78.4453 92.2169C78.5251 92.3222 78.5871 92.4088 78.6312 92.4767H78.6822V90.5511H79.2833V95.7676H78.7026V95.1665H78.6312C78.5871 95.2378 78.5243 95.3278 78.4428 95.4365C78.3613 95.5434 78.2449 95.6394 78.0938 95.7243C77.9427 95.8075 77.7415 95.8491 77.4901 95.8491ZM77.5717 95.3091C77.8128 95.3091 78.0165 95.2463 78.183 95.1206C78.3494 94.9933 78.4759 94.8175 78.5625 94.5934C78.6491 94.3675 78.6924 94.1069 78.6924 93.8114C78.6924 93.5193 78.6499 93.2638 78.565 93.0447C78.4801 92.824 78.3545 92.6525 78.1881 92.5302C78.0216 92.4063 77.8162 92.3443 77.5717 92.3443C77.3169 92.3443 77.1047 92.4097 76.9349 92.5404C76.7668 92.6695 76.6403 92.8452 76.5554 93.0677C76.4722 93.2884 76.4306 93.5363 76.4306 93.8114C76.4306 94.0899 76.473 94.3429 76.5579 94.5704C76.6445 94.7963 76.7719 94.9763 76.94 95.1104C77.1098 95.2429 77.3203 95.3091 77.5717 95.3091ZM84.1865 91.8552V92.3647H82.159V91.8552H84.1865ZM82.7499 90.9179H83.351V94.6469C83.351 94.8167 83.3756 94.944 83.4249 95.0289C83.4758 95.1121 83.5404 95.1682 83.6185 95.197C83.6983 95.2242 83.7823 95.2378 83.8706 95.2378C83.9369 95.2378 83.9912 95.2344 84.0336 95.2276C84.0761 95.2191 84.1101 95.2123 84.1355 95.2072L84.2578 95.7472C84.217 95.7625 84.1601 95.7778 84.0871 95.793C84.0141 95.81 83.9216 95.8185 83.8095 95.8185C83.6397 95.8185 83.4733 95.782 83.3103 95.709C83.1489 95.636 83.0148 95.5248 82.9078 95.3753C82.8025 95.2259 82.7499 95.0374 82.7499 94.8099V90.9179ZM86.638 95.8491C86.2848 95.8491 85.975 95.765 85.7084 95.5969C85.4435 95.4288 85.2363 95.1936 85.0869 94.8914C84.9391 94.5891 84.8653 94.2359 84.8653 93.8318C84.8653 93.4242 84.9391 93.0685 85.0869 92.7646C85.2363 92.4606 85.4435 92.2246 85.7084 92.0565C85.975 91.8883 86.2848 91.8043 86.638 91.8043C86.9912 91.8043 87.3003 91.8883 87.5652 92.0565C87.8318 92.2246 88.039 92.4606 88.1867 92.7646C88.3361 93.0685 88.4108 93.4242 88.4108 93.8318C88.4108 94.2359 88.3361 94.5891 88.1867 94.8914C88.039 95.1936 87.8318 95.4288 87.5652 95.5969C87.3003 95.765 86.9912 95.8491 86.638 95.8491ZM86.638 95.3091C86.9063 95.3091 87.1271 95.2403 87.3003 95.1028C87.4735 94.9652 87.6017 94.7844 87.6849 94.5603C87.7681 94.3361 87.8097 94.0933 87.8097 93.8318C87.8097 93.5703 87.7681 93.3266 87.6849 93.1008C87.6017 92.8749 87.4735 92.6924 87.3003 92.5531C87.1271 92.4139 86.9063 92.3443 86.638 92.3443C86.3698 92.3443 86.149 92.4139 85.9758 92.5531C85.8026 92.6924 85.6744 92.8749 85.5912 93.1008C85.508 93.3266 85.4664 93.5703 85.4664 93.8318C85.4664 94.0933 85.508 94.3361 85.5912 94.5603C85.6744 94.7844 85.8026 94.9652 85.9758 95.1028C86.149 95.2403 86.3698 95.3091 86.638 95.3091ZM93.3223 94.1374H94.0151L94.5958 94.9016L94.7486 95.1053L95.6147 96.2566H94.9218L94.3513 95.4925L94.2087 95.2989L93.3223 94.1374ZM95.8286 93.1594C95.8286 93.7095 95.7293 94.185 95.5306 94.5857C95.3319 94.9865 95.0594 95.2955 94.713 95.5129C94.3666 95.7302 93.9709 95.8389 93.526 95.8389C93.0811 95.8389 92.6855 95.7302 92.3391 95.5129C91.9927 95.2955 91.7201 94.9865 91.5215 94.5857C91.3228 94.185 91.2235 93.7095 91.2235 93.1594C91.2235 92.6092 91.3228 92.1337 91.5215 91.733C91.7201 91.3322 91.9927 91.0232 92.3391 90.8058C92.6855 90.5885 93.0811 90.4798 93.526 90.4798C93.9709 90.4798 94.3666 90.5885 94.713 90.8058C95.0594 91.0232 95.3319 91.3322 95.5306 91.733C95.7293 92.1337 95.8286 92.6092 95.8286 93.1594ZM95.2173 93.1594C95.2173 92.7077 95.1417 92.3264 94.9906 92.0157C94.8412 91.705 94.6383 91.4698 94.3819 91.3102C94.1272 91.1505 93.8419 91.0707 93.526 91.0707C93.2102 91.0707 92.9241 91.1505 92.6677 91.3102C92.413 91.4698 92.21 91.705 92.0589 92.0157C91.9095 92.3264 91.8348 92.7077 91.8348 93.1594C91.8348 93.611 91.9095 93.9923 92.0589 94.303C92.21 94.6137 92.413 94.8489 92.6677 95.0085C92.9241 95.1682 93.2102 95.248 93.526 95.248C93.8419 95.248 94.1272 95.1682 94.3819 95.0085C94.6383 94.8489 94.8412 94.6137 94.9906 94.303C95.1417 93.9923 95.2173 93.611 95.2173 93.1594ZM98.633 90.5511V95.7676H98.0013V91.2134H97.9707L96.6972 92.059V91.4171L98.0013 90.5511H98.633ZM103.862 91.8552V92.3647H101.835V91.8552H103.862ZM102.426 90.9179H103.027V94.6469C103.027 94.8167 103.051 94.944 103.101 95.0289C103.152 95.1121 103.216 95.1682 103.294 95.197C103.374 95.2242 103.458 95.2378 103.546 95.2378C103.613 95.2378 103.667 95.2344 103.709 95.2276C103.752 95.2191 103.786 95.2123 103.811 95.2072L103.933 95.7472C103.893 95.7625 103.836 95.7778 103.763 95.793C103.69 95.81 103.597 95.8185 103.485 95.8185C103.315 95.8185 103.149 95.782 102.986 95.709C102.825 95.636 102.69 95.5248 102.584 95.3753C102.478 95.2259 102.426 95.0374 102.426 94.8099V90.9179ZM105.452 93.4141V95.7676H104.85V90.5511H105.452V92.4665H105.502C105.594 92.2645 105.732 92.104 105.915 91.9851C106.1 91.8646 106.346 91.8043 106.654 91.8043C106.92 91.8043 107.154 91.8578 107.354 91.9648C107.555 92.07 107.71 92.2322 107.82 92.4513C107.932 92.6686 107.988 92.9454 107.988 93.2816V95.7676H107.387V93.3224C107.387 93.0116 107.307 92.7713 107.145 92.6015C106.986 92.43 106.764 92.3443 106.481 92.3443C106.284 92.3443 106.107 92.3859 105.951 92.4691C105.796 92.5523 105.674 92.6737 105.584 92.8333C105.496 92.9929 105.452 93.1865 105.452 93.4141ZM109.088 95.7676V91.8552H109.689V95.7676H109.088ZM109.394 91.2032C109.277 91.2032 109.176 91.1633 109.091 91.0835C109.008 91.0037 108.966 90.9077 108.966 90.7956C108.966 90.6836 109.008 90.5876 109.091 90.5078C109.176 90.428 109.277 90.3881 109.394 90.3881C109.511 90.3881 109.611 90.428 109.694 90.5078C109.779 90.5876 109.822 90.6836 109.822 90.7956C109.822 90.9077 109.779 91.0037 109.694 91.0835C109.611 91.1633 109.511 91.2032 109.394 91.2032ZM113.562 92.7314L113.022 92.8843C112.988 92.7943 112.937 92.7068 112.871 92.6219C112.807 92.5353 112.718 92.464 112.606 92.408C112.494 92.3519 112.351 92.3239 112.176 92.3239C111.936 92.3239 111.737 92.3791 111.577 92.4895C111.419 92.5981 111.34 92.7365 111.34 92.9046C111.34 93.0541 111.395 93.1721 111.503 93.2587C111.612 93.3453 111.782 93.4175 112.013 93.4752L112.594 93.6178C112.943 93.7027 113.204 93.8326 113.376 94.0075C113.547 94.1807 113.633 94.404 113.633 94.6774C113.633 94.9016 113.568 95.1019 113.439 95.2785C113.312 95.4551 113.134 95.5944 112.904 95.6963C112.675 95.7981 112.409 95.8491 112.105 95.8491C111.706 95.8491 111.375 95.7625 111.114 95.5893C110.852 95.4161 110.687 95.1631 110.617 94.8302L111.188 94.6876C111.242 94.8982 111.345 95.0561 111.496 95.1614C111.649 95.2666 111.848 95.3193 112.094 95.3193C112.375 95.3193 112.597 95.2599 112.762 95.141C112.928 95.0204 113.011 94.8761 113.011 94.708C113.011 94.5721 112.964 94.4584 112.869 94.3667C112.774 94.2733 112.628 94.2037 112.431 94.1578L111.779 94.005C111.42 93.9201 111.157 93.7885 110.989 93.6102C110.823 93.4302 110.739 93.2052 110.739 92.9352C110.739 92.7145 110.801 92.5192 110.925 92.3494C111.051 92.1796 111.222 92.0463 111.437 91.9495C111.655 91.8527 111.901 91.8043 112.176 91.8043C112.563 91.8043 112.867 91.8892 113.088 92.059C113.31 92.2288 113.468 92.453 113.562 92.7314ZM116.942 97.2347C116.84 97.2347 116.749 97.2262 116.67 97.2092C116.59 97.194 116.535 97.1787 116.504 97.1634L116.657 96.6336C116.803 96.6709 116.932 96.6845 117.044 96.6743C117.156 96.6642 117.255 96.6141 117.342 96.5241C117.43 96.4358 117.511 96.2923 117.584 96.0936L117.696 95.788L116.249 91.8552H116.901L117.981 94.9729H118.022L119.102 91.8552H119.754L118.093 96.3381C118.019 96.5402 117.926 96.7075 117.816 96.8399C117.705 96.9741 117.577 97.0734 117.431 97.1379C117.287 97.2024 117.124 97.2347 116.942 97.2347ZM122.048 95.8491C121.671 95.8491 121.346 95.7659 121.072 95.5995C120.801 95.4314 120.591 95.197 120.443 94.8965C120.297 94.5942 120.224 94.2427 120.224 93.842C120.224 93.4412 120.297 93.088 120.443 92.7824C120.591 92.475 120.796 92.2356 121.06 92.0641C121.324 91.8909 121.633 91.8043 121.987 91.8043C122.19 91.8043 122.392 91.8383 122.59 91.9062C122.789 91.9741 122.97 92.0845 123.133 92.2373C123.296 92.3884 123.426 92.5888 123.523 92.8384C123.619 93.088 123.668 93.3954 123.668 93.7605V94.0152H120.652V93.4956H123.056C123.056 93.2748 123.012 93.0778 122.924 92.9046C122.837 92.7314 122.713 92.5947 122.552 92.4946C122.393 92.3944 122.204 92.3443 121.987 92.3443C121.747 92.3443 121.54 92.4037 121.365 92.5226C121.192 92.6397 121.059 92.7926 120.965 92.9811C120.872 93.1695 120.825 93.3716 120.825 93.5873V93.9337C120.825 94.2291 120.876 94.4796 120.978 94.6851C121.082 94.8888 121.225 95.0442 121.408 95.1512C121.592 95.2565 121.805 95.3091 122.048 95.3091C122.206 95.3091 122.348 95.287 122.476 95.2429C122.605 95.197 122.716 95.1291 122.809 95.0391C122.903 94.9474 122.975 94.8336 123.026 94.6978L123.607 94.8608C123.545 95.0578 123.443 95.231 123.298 95.3804C123.154 95.5282 122.976 95.6436 122.764 95.7268C122.551 95.8083 122.313 95.8491 122.048 95.8491ZM125.733 95.8593C125.486 95.8593 125.261 95.8126 125.058 95.7192C124.856 95.6241 124.696 95.4874 124.577 95.3091C124.458 95.1291 124.399 94.9118 124.399 94.657C124.399 94.4329 124.443 94.2512 124.531 94.112C124.62 93.971 124.738 93.8607 124.885 93.7808C125.033 93.701 125.196 93.6416 125.374 93.6025C125.554 93.5618 125.735 93.5295 125.917 93.5058C126.155 93.4752 126.347 93.4523 126.495 93.437C126.644 93.42 126.753 93.392 126.821 93.3529C126.891 93.3139 126.925 93.246 126.925 93.1492V93.1288C126.925 92.8775 126.857 92.6822 126.719 92.543C126.583 92.4037 126.377 92.3341 126.1 92.3341C125.813 92.3341 125.588 92.3969 125.425 92.5226C125.262 92.6482 125.148 92.7824 125.081 92.925L124.511 92.7212C124.613 92.4835 124.749 92.2984 124.918 92.166C125.09 92.0318 125.277 91.9384 125.479 91.8858C125.683 91.8315 125.883 91.8043 126.08 91.8043C126.206 91.8043 126.35 91.8196 126.513 91.8501C126.678 91.879 126.836 91.9393 126.989 92.031C127.144 92.1227 127.272 92.2611 127.374 92.4462C127.476 92.6313 127.527 92.8792 127.527 93.1899V95.7676H126.925V95.2378H126.895C126.854 95.3227 126.786 95.4135 126.691 95.5103C126.596 95.6071 126.47 95.6895 126.312 95.7574C126.154 95.8253 125.961 95.8593 125.733 95.8593ZM125.825 95.3193C126.063 95.3193 126.263 95.2726 126.426 95.1792C126.591 95.0858 126.715 94.9652 126.798 94.8175C126.883 94.6698 126.925 94.5144 126.925 94.3514V93.8012C126.9 93.8318 126.844 93.8598 126.757 93.8853C126.672 93.909 126.574 93.9303 126.462 93.949C126.352 93.9659 126.244 93.9812 126.138 93.9948C126.035 94.0067 125.951 94.0169 125.886 94.0254C125.73 94.0457 125.584 94.0789 125.448 94.1247C125.314 94.1689 125.205 94.2359 125.122 94.3259C125.041 94.4142 125 94.5348 125 94.6876C125 94.8965 125.077 95.0544 125.232 95.1614C125.388 95.2666 125.586 95.3193 125.825 95.3193ZM128.624 95.7676V91.8552H129.205V92.4462H129.245C129.317 92.2526 129.446 92.0955 129.632 91.9749C129.819 91.8544 130.03 91.7941 130.264 91.7941C130.308 91.7941 130.363 91.795 130.43 91.7967C130.496 91.7984 130.546 91.8009 130.58 91.8043V92.4156C130.56 92.4105 130.513 92.4029 130.44 92.3927C130.369 92.3808 130.293 92.3748 130.213 92.3748C130.023 92.3748 129.853 92.4147 129.704 92.4946C129.556 92.5727 129.439 92.6813 129.352 92.8206C129.267 92.9581 129.225 93.1152 129.225 93.2918V95.7676H128.624Z" fill="#2D2D2D"/>
<circle cx="264.545" cy="40.1937" r="27.8265" fill="#8959FF"/>
<g clip-path="url(#clip1_4301_4282)">
<path d="M263.927 24.6152C255.605 24.6152 249.086 28.4182 249.086 33.2724V48.1132C249.086 52.9674 255.605 56.7703 263.927 56.7703C272.248 56.7703 278.768 52.9674 278.768 48.1132V33.2724C278.768 28.4182 272.248 24.6152 263.927 24.6152ZM276.294 40.6928C276.294 42.18 275.076 43.6965 272.953 44.8544C270.563 46.1576 267.357 46.8765 263.927 46.8765C260.496 46.8765 257.29 46.1576 254.9 44.8544C252.778 43.6965 251.559 42.18 251.559 40.6928V38.1204C254.197 40.4393 258.706 41.9295 263.927 41.9295C269.147 41.9295 273.657 40.4331 276.294 38.1204V40.6928ZM272.953 52.2748C270.563 53.578 267.357 54.2969 263.927 54.2969C260.496 54.2969 257.29 53.578 254.9 52.2748C252.778 51.1169 251.559 49.6004 251.559 48.1132V45.5408C254.197 47.8597 258.706 49.3499 263.927 49.3499C269.147 49.3499 273.657 47.8535 276.294 45.5408V48.1132C276.294 49.6004 275.076 51.1169 272.953 52.2748Z" fill="white"/>
</g>
</g>
<defs>
<clipPath id="clip0_4301_4282">
<path d="M0.5 29.6816C0.5 13.2889 13.7889 0 30.1816 0H273.818C290.211 0 303.5 13.2889 303.5 29.6816V186.747H0.5V29.6816Z" fill="white"/>
</clipPath>
<clipPath id="clip1_4301_4282">
<rect width="39.5755" height="39.5755" fill="white" transform="translate(244.141 20.9062)"/>
</clipPath>
</defs>
</svg>
